<ttFont>
    <TTGlyph name="A" xMin="-123" yMin="-260" xMax="1393" yMax="1372">
      <contour>
        <pt x="96" y="414" on="1"/>
        <pt x="340" y="414" on="1"/>
        <pt x="393" y="522" on="0"/>
        <pt x="497" y="734" on="0"/>
        <pt x="594" y="928" on="0"/>
        <pt x="680" y="1098" on="0"/>
        <pt x="747" y="1230" on="0"/>
        <pt x="794" y="1318" on="0"/>
        <pt x="803" y="1333" on="1"/>
        <pt x="815" y="1355" on="0"/>
        <pt x="842" y="1372" on="0"/>
        <pt x="862" y="1372" on="1"/>
        <pt x="885" y="1372" on="0"/>
        <pt x="913" y="1343" on="0"/>
        <pt x="913" y="1315" on="1"/>
        <pt x="913" y="1304" on="0"/>
        <pt x="909" y="1220" on="0"/>
        <pt x="903" y="1094" on="0"/>
        <pt x="895" y="938" on="0"/>
        <pt x="889" y="773" on="0"/>
        <pt x="885" y="610" on="0"/>
        <pt x="885" y="541" on="1"/>
        <pt x="885" y="509" on="0"/>
        <pt x="885" y="445" on="0"/>
        <pt x="887" y="416" on="1"/>
        <pt x="950" y="416" on="0"/>
        <pt x="1061" y="416" on="0"/>
        <pt x="1096" y="418" on="1"/>
        <pt x="1096" y="379" on="1"/>
        <pt x="1042" y="377" on="0"/>
        <pt x="940" y="377" on="0"/>
        <pt x="889" y="377" on="1"/>
        <pt x="896" y="247" on="0"/>
        <pt x="941" y="35" on="0"/>
        <pt x="1034" y="-116" on="0"/>
        <pt x="1182" y="-199" on="0"/>
        <pt x="1292" y="-199" on="1"/>
        <pt x="1336" y="-199" on="0"/>
        <pt x="1386" y="-188" on="1"/>
        <pt x="1393" y="-229" on="1"/>
        <pt x="1342" y="-245" on="0"/>
        <pt x="1259" y="-260" on="0"/>
        <pt x="1221" y="-260" on="1"/>
        <pt x="1129" y="-260" on="0"/>
        <pt x="994" y="-214" on="0"/>
        <pt x="899" y="-130" on="0"/>
        <pt x="839" y="-13" on="0"/>
        <pt x="805" y="128" on="0"/>
        <pt x="791" y="289" on="0"/>
        <pt x="791" y="375" on="1"/>
        <pt x="383" y="375" on="1"/>
        <pt x="377" y="361" on="0"/>
        <pt x="365" y="336" on="0"/>
        <pt x="358" y="322" on="1"/>
        <pt x="308" y="212" on="0"/>
        <pt x="216" y="51" on="0"/>
        <pt x="131" y="-63" on="0"/>
        <pt x="55" y="-137" on="0"/>
        <pt x="-15" y="-184" on="0"/>
        <pt x="-78" y="-211" on="0"/>
        <pt x="-106" y="-221" on="1"/>
        <pt x="-123" y="-186" on="1"/>
        <pt x="-123" y="-186" on="0"/>
        <pt x="-85" y="-161" on="0"/>
        <pt x="-21" y="-107" on="0"/>
        <pt x="65" y="-19" on="0"/>
        <pt x="163" y="105" on="0"/>
        <pt x="270" y="270" on="0"/>
        <pt x="322" y="375" on="1"/>
        <pt x="96" y="375" on="1"/>
      </contour>
      <contour>
        <pt x="856" y="1329" on="1"/>
        <pt x="845" y="1329" on="0"/>
        <pt x="769" y="1194" on="0"/>
        <pt x="650" y="952" on="0"/>
        <pt x="492" y="616" on="0"/>
        <pt x="399" y="414" on="1"/>
        <pt x="791" y="414" on="1"/>
        <pt x="791" y="505" on="0"/>
        <pt x="803" y="690" on="0"/>
        <pt x="820" y="867" on="0"/>
        <pt x="839" y="1030" on="0"/>
        <pt x="855" y="1167" on="0"/>
        <pt x="866" y="1273" on="0"/>
        <pt x="866" y="1305" on="1"/>
        <pt x="866" y="1320" on="0"/>
        <pt x="861" y="1329" on="0"/>
      </contour>
    </TTGlyph>
    <TTGlyph name="AE" xMin="-123" yMin="-172" xMax="1974" yMax="1446">
      <contour>
        <pt x="96" y="463" on="1"/>
        <pt x="340" y="463" on="1"/>
        <pt x="393" y="571" on="0"/>
        <pt x="497" y="783" on="0"/>
        <pt x="594" y="977" on="0"/>
        <pt x="680" y="1147" on="0"/>
        <pt x="747" y="1279" on="0"/>
        <pt x="794" y="1367" on="0"/>
        <pt x="803" y="1382" on="1"/>
        <pt x="815" y="1404" on="0"/>
        <pt x="842" y="1421" on="0"/>
        <pt x="862" y="1421" on="1"/>
        <pt x="885" y="1421" on="0"/>
        <pt x="913" y="1392" on="0"/>
        <pt x="913" y="1364" on="1"/>
        <pt x="913" y="1353" on="0"/>
        <pt x="909" y="1269" on="0"/>
        <pt x="903" y="1142" on="0"/>
        <pt x="895" y="982" on="0"/>
        <pt x="889" y="812" on="0"/>
        <pt x="885" y="641" on="0"/>
        <pt x="885" y="565" on="1"/>
        <pt x="936" y="647" on="0"/>
        <pt x="1080" y="775" on="0"/>
        <pt x="1163" y="817" on="1"/>
        <pt x="1115" y="860" on="0"/>
        <pt x="1061" y="977" on="0"/>
        <pt x="1061" y="1049" on="1"/>
        <pt x="1061" y="1148" on="0"/>
        <pt x="1137" y="1297" on="0"/>
        <pt x="1261" y="1396" on="0"/>
        <pt x="1422" y="1446" on="0"/>
        <pt x="1507" y="1446" on="1"/>
        <pt x="1601" y="1446" on="0"/>
        <pt x="1729" y="1387" on="0"/>
        <pt x="1807" y="1296" on="0"/>
        <pt x="1841" y="1186" on="0"/>
        <pt x="1841" y="1135" on="1"/>
        <pt x="1841" y="1107" on="0"/>
        <pt x="1835" y="1073" on="0"/>
        <pt x="1835" y="1071" on="1"/>
        <pt x="1796" y="1075" on="1"/>
        <pt x="1797" y="1083" on="0"/>
        <pt x="1798" y="1093" on="1"/>
        <pt x="1799" y="1101" on="0"/>
        <pt x="1800" y="1123" on="0"/>
        <pt x="1800" y="1137" on="1"/>
        <pt x="1800" y="1182" on="0"/>
        <pt x="1773" y="1278" on="0"/>
        <pt x="1706" y="1356" on="0"/>
        <pt x="1593" y="1407" on="0"/>
        <pt x="1507" y="1407" on="1"/>
        <pt x="1432" y="1407" on="0"/>
        <pt x="1305" y="1356" on="0"/>
        <pt x="1213" y="1267" on="0"/>
        <pt x="1161" y="1148" on="0"/>
        <pt x="1161" y="1079" on="1"/>
        <pt x="1161" y="1010" on="0"/>
        <pt x="1207" y="895" on="0"/>
        <pt x="1249" y="852" on="1"/>
        <pt x="1294" y="867" on="0"/>
        <pt x="1385" y="885" on="0"/>
        <pt x="1432" y="885" on="1"/>
        <pt x="1466" y="885" on="0"/>
        <pt x="1523" y="874" on="0"/>
        <pt x="1565" y="852" on="0"/>
        <pt x="1589" y="821" on="0"/>
        <pt x="1589" y="801" on="1"/>
        <pt x="1589" y="773" on="0"/>
        <pt x="1552" y="741" on="0"/>
        <pt x="1501" y="725" on="0"/>
        <pt x="1446" y="721" on="0"/>
        <pt x="1427" y="721" on="1"/>
        <pt x="1362" y="721" on="0"/>
        <pt x="1246" y="756" on="0"/>
        <pt x="1198" y="788" on="1"/>
        <pt x="1139" y="759" on="0"/>
        <pt x="1036" y="671" on="0"/>
        <pt x="960" y="554" on="0"/>
        <pt x="915" y="410" on="0"/>
        <pt x="915" y="326" on="1"/>
        <pt x="915" y="244" on="0"/>
        <pt x="960" y="120" on="0"/>
        <pt x="1033" y="31" on="0"/>
        <pt x="1128" y="-29" on="0"/>
        <pt x="1228" y="-64" on="0"/>
        <pt x="1326" y="-78" on="0"/>
        <pt x="1366" y="-78" on="1"/>
        <pt x="1496" y="-78" on="0"/>
        <pt x="1702" y="5" on="0"/>
        <pt x="1848" y="146" on="0"/>
        <pt x="1929" y="334" on="0"/>
        <pt x="1935" y="438" on="1"/>
        <pt x="1974" y="436" on="1"/>
        <pt x="1971" y="349" on="0"/>
        <pt x="1915" y="194" on="0"/>
        <pt x="1819" y="62" on="0"/>
        <pt x="1691" y="-43" on="0"/>
        <pt x="1541" y="-117" on="0"/>
        <pt x="1375" y="-156" on="0"/>
        <pt x="1290" y="-156" on="1"/>
        <pt x="1160" y="-156" on="0"/>
        <pt x="972" y="-82" on="0"/>
        <pt x="851" y="39" on="0"/>
        <pt x="793" y="192" on="0"/>
        <pt x="793" y="270" on="1"/>
        <pt x="793" y="330" on="0"/>
        <pt x="799" y="426" on="1"/>
        <pt x="726" y="425" on="0"/>
        <pt x="609" y="424" on="0"/>
        <pt x="511" y="424" on="0"/>
        <pt x="425" y="424" on="0"/>
        <pt x="383" y="424" on="1"/>
        <pt x="371" y="397" on="0"/>
        <pt x="358" y="371" on="1"/>
        <pt x="308" y="261" on="0"/>
        <pt x="216" y="100" on="0"/>
        <pt x="131" y="-14" on="0"/>
        <pt x="55" y="-88" on="0"/>
        <pt x="-15" y="-135" on="0"/>
        <pt x="-78" y="-162" on="0"/>
        <pt x="-106" y="-172" on="1"/>
        <pt x="-123" y="-137" on="1"/>
        <pt x="-123" y="-137" on="0"/>
        <pt x="-85" y="-113" on="0"/>
        <pt x="-21" y="-58" on="0"/>
        <pt x="65" y="29" on="0"/>
        <pt x="163" y="153" on="0"/>
        <pt x="270" y="319" on="0"/>
        <pt x="322" y="424" on="1"/>
        <pt x="96" y="424" on="1"/>
      </contour>
      <contour>
        <pt x="856" y="1378" on="1"/>
        <pt x="845" y="1378" on="0"/>
        <pt x="769" y="1243" on="0"/>
        <pt x="650" y="1001" on="0"/>
        <pt x="492" y="665" on="0"/>
        <pt x="399" y="463" on="1"/>
        <pt x="451" y="463" on="0"/>
        <pt x="560" y="463" on="0"/>
        <pt x="664" y="463" on="0"/>
        <pt x="760" y="464" on="0"/>
        <pt x="801" y="465" on="1"/>
        <pt x="805" y="539" on="0"/>
        <pt x="819" y="710" on="0"/>
        <pt x="833" y="885" on="0"/>
        <pt x="847" y="1055" on="0"/>
        <pt x="859" y="1204" on="0"/>
        <pt x="866" y="1320" on="0"/>
        <pt x="866" y="1354" on="1"/>
        <pt x="866" y="1369" on="0"/>
        <pt x="861" y="1378" on="0"/>
      </contour>
      <contour>
        <pt x="1432" y="846" on="1"/>
        <pt x="1359" y="846" on="0"/>
        <pt x="1284" y="823" on="1"/>
        <pt x="1321" y="795" on="0"/>
        <pt x="1417" y="766" on="0"/>
        <pt x="1473" y="766" on="1"/>
        <pt x="1510" y="766" on="0"/>
        <pt x="1550" y="787" on="0"/>
        <pt x="1550" y="801" on="1"/>
        <pt x="1550" y="816" on="0"/>
        <pt x="1487" y="846" on="0"/>
      </contour>
    </TTGlyph>
    <TTGlyph name="AEacute" xMin="-123" yMin="-172" xMax="1974" yMax="1714">
      <component glyphName="AE" x="0" y="0" flags="0x204"/>
      <component glyphName="acute" x="844" y="672" flags="0x4"/>
    </TTGlyph>
    <TTGlyph name="Aacute" xMin="-123" yMin="-260" xMax="1393" yMax="1663">
      <component glyphName="A" x="0" y="0" flags="0x204"/>
      <component glyphName="acute" x="563" y="621" flags="0x4"/>
    </TTGlyph>
    <TTGlyph name="Abreve" xMin="-123" yMin="-260" xMax="1393" yMax="1631">
      <component glyphName="A" x="0" y="0" flags="0x204"/>
      <component glyphName="breve" x="565" y="621" flags="0x4"/>
    </TTGlyph>
    <TTGlyph name="Acircumflex" xMin="-123" yMin="-260" xMax="1393" yMax="1659">
      <component glyphName="A" x="0" y="0" flags="0x204"/>
      <component glyphName="circumflex" x="563" y="621" flags="0x4"/>
    </TTGlyph>
    <TTGlyph name="Adieresis" xMin="-123" yMin="-260" xMax="1393" yMax="1582">
      <component glyphName="A" x="0" y="0" flags="0x204"/>
      <component glyphName="dieresis" x="563" y="621" flags="0x4"/>
    </TTGlyph>
    <TTGlyph name="Agrave" xMin="-123" yMin="-260" xMax="1393" yMax="1663">
      <component glyphName="A" x="0" y="0" flags="0x204"/>
      <component glyphName="grave" x="563" y="621" flags="0x4"/>
    </TTGlyph>
    <TTGlyph name="Amacron" xMin="-123" yMin="-260" xMax="1393" yMax="1553">
      <component glyphName="A" x="0" y="0" flags="0x204"/>
      <component glyphName="macron" x="563" y="621" flags="0x4"/>
    </TTGlyph>
    <TTGlyph name="Aogonek" xMin="-123" yMin="-502" xMax="1407" yMax="1372">
      <contour>
        <pt x="96" y="414" on="1"/>
        <pt x="340" y="414" on="1"/>
        <pt x="393" y="522" on="0"/>
        <pt x="497" y="734" on="0"/>
        <pt x="594" y="928" on="0"/>
        <pt x="680" y="1098" on="0"/>
        <pt x="747" y="1230" on="0"/>
        <pt x="794" y="1318" on="0"/>
        <pt x="803" y="1333" on="1"/>
        <pt x="815" y="1355" on="0"/>
        <pt x="842" y="1372" on="0"/>
        <pt x="862" y="1372" on="1"/>
        <pt x="885" y="1372" on="0"/>
        <pt x="913" y="1343" on="0"/>
        <pt x="913" y="1315" on="1"/>
        <pt x="913" y="1304" on="0"/>
        <pt x="909" y="1220" on="0"/>
        <pt x="903" y="1094" on="0"/>
        <pt x="895" y="938" on="0"/>
        <pt x="889" y="773" on="0"/>
        <pt x="885" y="610" on="0"/>
        <pt x="885" y="541" on="1"/>
        <pt x="885" y="509" on="0"/>
        <pt x="885" y="445" on="0"/>
        <pt x="887" y="416" on="1"/>
        <pt x="950" y="416" on="0"/>
        <pt x="1061" y="416" on="0"/>
        <pt x="1096" y="418" on="1"/>
        <pt x="1096" y="379" on="1"/>
        <pt x="1042" y="377" on="0"/>
        <pt x="940" y="377" on="0"/>
        <pt x="889" y="377" on="1"/>
        <pt x="896" y="247" on="0"/>
        <pt x="941" y="35" on="0"/>
        <pt x="1034" y="-116" on="0"/>
        <pt x="1182" y="-199" on="0"/>
        <pt x="1292" y="-199" on="1"/>
        <pt x="1336" y="-199" on="0"/>
        <pt x="1386" y="-188" on="1"/>
        <pt x="1393" y="-229" on="1"/>
        <pt x="1362" y="-238" on="0"/>
        <pt x="1301" y="-273" on="0"/>
        <pt x="1252" y="-318" on="0"/>
        <pt x="1221" y="-369" on="0"/>
        <pt x="1221" y="-395" on="1"/>
        <pt x="1221" y="-413" on="0"/>
        <pt x="1233" y="-437" on="0"/>
        <pt x="1251" y="-452" on="0"/>
        <pt x="1274" y="-459" on="0"/>
        <pt x="1286" y="-459" on="1"/>
        <pt x="1303" y="-459" on="0"/>
        <pt x="1337" y="-453" on="0"/>
        <pt x="1367" y="-444" on="0"/>
        <pt x="1391" y="-434" on="0"/>
        <pt x="1397" y="-430" on="1"/>
        <pt x="1407" y="-455" on="1"/>
        <pt x="1395" y="-463" on="0"/>
        <pt x="1362" y="-479" on="0"/>
        <pt x="1326" y="-493" on="0"/>
        <pt x="1289" y="-502" on="0"/>
        <pt x="1272" y="-502" on="1"/>
        <pt x="1254" y="-502" on="0"/>
        <pt x="1214" y="-496" on="0"/>
        <pt x="1182" y="-476" on="0"/>
        <pt x="1161" y="-441" on="0"/>
        <pt x="1161" y="-412" on="1"/>
        <pt x="1161" y="-388" on="0"/>
        <pt x="1182" y="-344" on="0"/>
        <pt x="1214" y="-305" on="0"/>
        <pt x="1252" y="-272" on="0"/>
        <pt x="1268" y="-258" on="1"/>
        <pt x="1255" y="-260" on="0"/>
        <pt x="1232" y="-260" on="0"/>
        <pt x="1221" y="-260" on="1"/>
        <pt x="1129" y="-260" on="0"/>
        <pt x="994" y="-214" on="0"/>
        <pt x="899" y="-130" on="0"/>
        <pt x="839" y="-13" on="0"/>
        <pt x="805" y="128" on="0"/>
        <pt x="791" y="289" on="0"/>
        <pt x="791" y="375" on="1"/>
        <pt x="383" y="375" on="1"/>
        <pt x="377" y="361" on="0"/>
        <pt x="365" y="336" on="0"/>
        <pt x="358" y="322" on="1"/>
        <pt x="308" y="212" on="0"/>
        <pt x="216" y="51" on="0"/>
        <pt x="131" y="-63" on="0"/>
        <pt x="55" y="-137" on="0"/>
        <pt x="-15" y="-184" on="0"/>
        <pt x="-78" y="-211" on="0"/>
        <pt x="-106" y="-221" on="1"/>
        <pt x="-123" y="-186" on="1"/>
        <pt x="-123" y="-186" on="0"/>
        <pt x="-85" y="-161" on="0"/>
        <pt x="-21" y="-107" on="0"/>
        <pt x="65" y="-19" on="0"/>
        <pt x="163" y="105" on="0"/>
        <pt x="270" y="270" on="0"/>
        <pt x="322" y="375" on="1"/>
        <pt x="96" y="375" on="1"/>
      </contour>
      <contour>
        <pt x="856" y="1329" on="1"/>
        <pt x="845" y="1329" on="0"/>
        <pt x="769" y="1194" on="0"/>
        <pt x="650" y="952" on="0"/>
        <pt x="492" y="616" on="0"/>
        <pt x="399" y="414" on="1"/>
        <pt x="791" y="414" on="1"/>
        <pt x="791" y="505" on="0"/>
        <pt x="803" y="690" on="0"/>
        <pt x="820" y="867" on="0"/>
        <pt x="839" y="1030" on="0"/>
        <pt x="855" y="1167" on="0"/>
        <pt x="866" y="1273" on="0"/>
        <pt x="866" y="1305" on="1"/>
        <pt x="866" y="1320" on="0"/>
        <pt x="861" y="1329" on="0"/>
      </contour>
    </TTGlyph>
    <TTGlyph name="Aring" xMin="-123" yMin="-260" xMax="1393" yMax="1625">
      <component glyphName="A" x="0" y="0" flags="0x204"/>
      <component glyphName="ring" x="584" y="621" flags="0x4"/>
    </TTGlyph>
    <TTGlyph name="Atilde" xMin="-123" yMin="-260" xMax="1393" yMax="1610">
      <component glyphName="A" x="0" y="0" flags="0x204"/>
      <component glyphName="tilde" x="563" y="621" flags="0x4"/>
    </TTGlyph>
    <TTGlyph name="B" xMin="0" yMin="-178" xMax="1249" yMax="1470">
      <contour>
        <pt x="545" y="49" on="1"/>
        <pt x="488" y="190" on="0"/>
        <pt x="442" y="448" on="0"/>
        <pt x="442" y="563" on="1"/>
        <pt x="442" y="580" on="0"/>
        <pt x="442" y="614" on="0"/>
        <pt x="444" y="631" on="1"/>
        <pt x="378" y="639" on="0"/>
        <pt x="309" y="678" on="0"/>
        <pt x="309" y="707" on="1"/>
        <pt x="309" y="736" on="0"/>
        <pt x="390" y="774" on="0"/>
        <pt x="461" y="782" on="1"/>
        <pt x="477" y="880" on="0"/>
        <pt x="529" y="1038" on="0"/>
        <pt x="578" y="1149" on="0"/>
        <pt x="614" y="1210" on="0"/>
        <pt x="614" y="1212" on="1"/>
        <pt x="651" y="1200" on="1"/>
        <pt x="647" y="1188" on="0"/>
        <pt x="626" y="1125" on="0"/>
        <pt x="599" y="1022" on="0"/>
        <pt x="571" y="879" on="0"/>
        <pt x="561" y="788" on="1"/>
        <pt x="563" y="788" on="1"/>
        <pt x="639" y="788" on="0"/>
        <pt x="787" y="773" on="0"/>
        <pt x="856" y="756" on="1"/>
        <pt x="903" y="782" on="0"/>
        <pt x="985" y="849" on="0"/>
        <pt x="1046" y="930" on="0"/>
        <pt x="1081" y="1025" on="0"/>
        <pt x="1081" y="1079" on="1"/>
        <pt x="1081" y="1154" on="0"/>
        <pt x="1029" y="1264" on="0"/>
        <pt x="948" y="1343" on="0"/>
        <pt x="846" y="1393" on="0"/>
        <pt x="747" y="1421" on="0"/>
        <pt x="661" y="1432" on="0"/>
        <pt x="635" y="1432" on="1"/>
        <pt x="538" y="1432" on="0"/>
        <pt x="378" y="1397" on="0"/>
        <pt x="251" y="1344" on="0"/>
        <pt x="157" y="1283" on="0"/>
        <pt x="95" y="1230" on="0"/>
        <pt x="64" y="1195" on="0"/>
        <pt x="63" y="1194" on="1"/>
        <pt x="33" y="1219" on="1"/>
        <pt x="35" y="1222" on="0"/>
        <pt x="70" y="1262" on="0"/>
        <pt x="137" y="1317" on="0"/>
        <pt x="235" y="1381" on="0"/>
        <pt x="365" y="1434" on="0"/>
        <pt x="526" y="1470" on="0"/>
        <pt x="623" y="1470" on="1"/>
        <pt x="688" y="1470" on="0"/>
        <pt x="825" y="1453" on="0"/>
        <pt x="954" y="1415" on="0"/>
        <pt x="1070" y="1355" on="0"/>
        <pt x="1156" y="1269" on="0"/>
        <pt x="1206" y="1155" on="0"/>
        <pt x="1206" y="1083" on="1"/>
        <pt x="1206" y="1035" on="0"/>
        <pt x="1168" y="939" on="0"/>
        <pt x="1098" y="847" on="0"/>
        <pt x="1000" y="765" on="0"/>
        <pt x="940" y="731" on="1"/>
        <pt x="1007" y="707" on="0"/>
        <pt x="1121" y="638" on="0"/>
        <pt x="1203" y="545" on="0"/>
        <pt x="1249" y="427" on="0"/>
        <pt x="1249" y="354" on="1"/>
        <pt x="1249" y="276" on="0"/>
        <pt x="1193" y="136" on="0"/>
        <pt x="1092" y="18" on="0"/>
        <pt x="952" y="-77" on="0"/>
        <pt x="784" y="-143" on="0"/>
        <pt x="593" y="-178" on="0"/>
        <pt x="492" y="-178" on="1"/>
        <pt x="365" y="-178" on="0"/>
        <pt x="180" y="-119" on="0"/>
        <pt x="59" y="-21" on="0"/>
        <pt x="0" y="106" on="0"/>
        <pt x="0" y="174" on="1"/>
        <pt x="0" y="218" on="0"/>
        <pt x="27" y="297" on="0"/>
        <pt x="76" y="364" on="0"/>
        <pt x="146" y="415" on="0"/>
        <pt x="190" y="430" on="1"/>
        <pt x="203" y="399" on="1"/>
        <pt x="165" y="385" on="0"/>
        <pt x="114" y="329" on="0"/>
        <pt x="83" y="263" on="0"/>
        <pt x="70" y="195" on="0"/>
        <pt x="70" y="170" on="1"/>
        <pt x="70" y="140" on="0"/>
        <pt x="86" y="70" on="0"/>
        <pt x="124" y="2" on="0"/>
        <pt x="187" y="-62" on="0"/>
        <pt x="281" y="-110" on="0"/>
        <pt x="409" y="-139" on="0"/>
        <pt x="492" y="-139" on="1"/>
        <pt x="556" y="-139" on="0"/>
        <pt x="702" y="-112" on="0"/>
        <pt x="844" y="-58" on="0"/>
        <pt x="974" y="22" on="0"/>
        <pt x="1074" y="130" on="0"/>
        <pt x="1133" y="264" on="0"/>
        <pt x="1133" y="344" on="1"/>
        <pt x="1133" y="416" on="0"/>
        <pt x="1093" y="528" on="0"/>
        <pt x="1022" y="614" on="0"/>
        <pt x="928" y="675" on="0"/>
        <pt x="874" y="696" on="1"/>
        <pt x="800" y="664" on="0"/>
        <pt x="637" y="627" on="0"/>
        <pt x="549" y="627" on="1"/>
        <pt x="547" y="592" on="0"/>
        <pt x="545" y="517" on="0"/>
        <pt x="545" y="477" on="1"/>
        <pt x="545" y="381" on="0"/>
        <pt x="565" y="171" on="0"/>
        <pt x="584" y="55" on="1"/>
      </contour>
      <contour>
        <pt x="551" y="668" on="1"/>
        <pt x="604" y="670" on="0"/>
        <pt x="727" y="697" on="0"/>
        <pt x="788" y="723" on="1"/>
        <pt x="731" y="737" on="0"/>
        <pt x="616" y="750" on="0"/>
        <pt x="563" y="750" on="1"/>
        <pt x="557" y="750" on="1"/>
        <pt x="555" y="730" on="0"/>
        <pt x="553" y="689" on="0"/>
      </contour>
      <contour>
        <pt x="350" y="705" on="1"/>
        <pt x="350" y="698" on="0"/>
        <pt x="394" y="678" on="0"/>
        <pt x="446" y="672" on="1"/>
        <pt x="448" y="690" on="0"/>
        <pt x="452" y="726" on="0"/>
        <pt x="455" y="743" on="1"/>
        <pt x="398" y="735" on="0"/>
        <pt x="350" y="711" on="0"/>
      </contour>
    </TTGlyph>
    <TTGlyph name="C" xMin="84" yMin="-141" xMax="1364" yMax="1436">
      <contour>
        <pt x="1147" y="1409" on="1"/>
        <pt x="1116" y="1398" on="0"/>
        <pt x="1056" y="1371" on="0"/>
        <pt x="1028" y="1356" on="1"/>
        <pt x="1084" y="1308" on="0"/>
        <pt x="1153" y="1166" on="0"/>
        <pt x="1153" y="1073" on="1"/>
        <pt x="1153" y="997" on="0"/>
        <pt x="1114" y="869" on="0"/>
        <pt x="1044" y="777" on="0"/>
        <pt x="949" y="725" on="0"/>
        <pt x="893" y="725" on="1"/>
        <pt x="852" y="725" on="0"/>
        <pt x="772" y="753" on="0"/>
        <pt x="709" y="811" on="0"/>
        <pt x="670" y="898" on="0"/>
        <pt x="670" y="958" on="1"/>
        <pt x="670" y="1025" on="0"/>
        <pt x="714" y="1146" on="0"/>
        <pt x="789" y="1249" on="0"/>
        <pt x="889" y="1334" on="0"/>
        <pt x="944" y="1366" on="1"/>
        <pt x="915" y="1380" on="0"/>
        <pt x="848" y="1397" on="0"/>
        <pt x="813" y="1397" on="1"/>
        <pt x="752" y="1397" on="0"/>
        <pt x="614" y="1351" on="0"/>
        <pt x="479" y="1259" on="0"/>
        <pt x="356" y="1124" on="0"/>
        <pt x="261" y="944" on="0"/>
        <pt x="205" y="722" on="0"/>
        <pt x="205" y="590" on="1"/>
        <pt x="205" y="456" on="0"/>
        <pt x="283" y="216" on="0"/>
        <pt x="433" y="34" on="0"/>
        <pt x="652" y="-72" on="0"/>
        <pt x="793" y="-72" on="1"/>
        <pt x="875" y="-72" on="0"/>
        <pt x="1032" y="-23" on="0"/>
        <pt x="1172" y="64" on="0"/>
        <pt x="1290" y="185" on="0"/>
        <pt x="1333" y="256" on="1"/>
        <pt x="1364" y="238" on="1"/>
        <pt x="1316" y="149" on="0"/>
        <pt x="1181" y="9" on="0"/>
        <pt x="1017" y="-89" on="0"/>
        <pt x="831" y="-141" on="0"/>
        <pt x="733" y="-141" on="1"/>
        <pt x="592" y="-141" on="0"/>
        <pt x="354" y="-42" on="0"/>
        <pt x="181" y="140" on="0"/>
        <pt x="84" y="397" on="0"/>
        <pt x="84" y="555" on="1"/>
        <pt x="84" y="698" on="0"/>
        <pt x="146" y="939" on="0"/>
        <pt x="254" y="1135" on="0"/>
        <pt x="397" y="1284" on="0"/>
        <pt x="559" y="1385" on="0"/>
        <pt x="731" y="1436" on="0"/>
        <pt x="813" y="1436" on="1"/>
        <pt x="858" y="1436" on="0"/>
        <pt x="945" y="1409" on="0"/>
        <pt x="983" y="1386" on="1"/>
        <pt x="1023" y="1405" on="0"/>
        <pt x="1103" y="1429" on="0"/>
        <pt x="1141" y="1436" on="1"/>
      </contour>
      <contour>
        <pt x="1114" y="1075" on="1"/>
        <pt x="1114" y="1157" on="0"/>
        <pt x="1049" y="1290" on="0"/>
        <pt x="993" y="1333" on="1"/>
        <pt x="944" y="1301" on="0"/>
        <pt x="859" y="1218" on="0"/>
        <pt x="797" y="1117" on="0"/>
        <pt x="762" y="998" on="0"/>
        <pt x="762" y="930" on="1"/>
        <pt x="762" y="894" on="0"/>
        <pt x="781" y="833" on="0"/>
        <pt x="817" y="789" on="0"/>
        <pt x="869" y="764" on="0"/>
        <pt x="901" y="764" on="1"/>
        <pt x="955" y="764" on="0"/>
        <pt x="1035" y="826" on="0"/>
        <pt x="1088" y="919" on="0"/>
        <pt x="1114" y="1028" on="0"/>
      </contour>
    </TTGlyph>
    <TTGlyph name="Cacute" xMin="84" yMin="-141" xMax="1364" yMax="1722">
      <component glyphName="C" x="0" y="0" flags="0x204"/>
      <component glyphName="acute" x="508" y="680" flags="0x4"/>
    </TTGlyph>
    <TTGlyph name="Ccaron" xMin="84" yMin="-141" xMax="1364" yMax="1718">
      <component glyphName="C" x="0" y="0" flags="0x204"/>
      <component glyphName="caron" x="510" y="680" flags="0x4"/>
    </TTGlyph>
    <TTGlyph name="Ccedilla" xMin="84" yMin="-395" xMax="1364" yMax="1436">
      <contour>
        <pt x="1147" y="1409" on="1"/>
        <pt x="1116" y="1398" on="0"/>
        <pt x="1056" y="1371" on="0"/>
        <pt x="1028" y="1356" on="1"/>
        <pt x="1084" y="1308" on="0"/>
        <pt x="1153" y="1166" on="0"/>
        <pt x="1153" y="1073" on="1"/>
        <pt x="1153" y="997" on="0"/>
        <pt x="1114" y="869" on="0"/>
        <pt x="1044" y="777" on="0"/>
        <pt x="949" y="725" on="0"/>
        <pt x="893" y="725" on="1"/>
        <pt x="852" y="725" on="0"/>
        <pt x="772" y="753" on="0"/>
        <pt x="709" y="811" on="0"/>
        <pt x="670" y="898" on="0"/>
        <pt x="670" y="958" on="1"/>
        <pt x="670" y="1025" on="0"/>
        <pt x="714" y="1146" on="0"/>
        <pt x="789" y="1249" on="0"/>
        <pt x="889" y="1334" on="0"/>
        <pt x="944" y="1366" on="1"/>
        <pt x="915" y="1380" on="0"/>
        <pt x="848" y="1397" on="0"/>
        <pt x="813" y="1397" on="1"/>
        <pt x="752" y="1397" on="0"/>
        <pt x="614" y="1351" on="0"/>
        <pt x="479" y="1259" on="0"/>
        <pt x="356" y="1124" on="0"/>
        <pt x="261" y="944" on="0"/>
        <pt x="205" y="722" on="0"/>
        <pt x="205" y="590" on="1"/>
        <pt x="205" y="456" on="0"/>
        <pt x="283" y="216" on="0"/>
        <pt x="433" y="34" on="0"/>
        <pt x="652" y="-72" on="0"/>
        <pt x="793" y="-72" on="1"/>
        <pt x="875" y="-72" on="0"/>
        <pt x="1032" y="-23" on="0"/>
        <pt x="1172" y="64" on="0"/>
        <pt x="1290" y="185" on="0"/>
        <pt x="1333" y="256" on="1"/>
        <pt x="1364" y="238" on="1"/>
        <pt x="1318" y="152" on="0"/>
        <pt x="1188" y="15" on="0"/>
        <pt x="1032" y="-82" on="0"/>
        <pt x="854" y="-137" on="0"/>
        <pt x="760" y="-141" on="1"/>
        <pt x="733" y="-225" on="1"/>
        <pt x="755" y="-225" on="0"/>
        <pt x="798" y="-236" on="0"/>
        <pt x="830" y="-257" on="0"/>
        <pt x="850" y="-287" on="0"/>
        <pt x="850" y="-307" on="1"/>
        <pt x="850" y="-354" on="0"/>
        <pt x="784" y="-395" on="0"/>
        <pt x="733" y="-395" on="1"/>
        <pt x="696" y="-395" on="0"/>
        <pt x="637" y="-375" on="0"/>
        <pt x="614" y="-362" on="1"/>
        <pt x="629" y="-330" on="1"/>
        <pt x="646" y="-341" on="0"/>
        <pt x="703" y="-360" on="0"/>
        <pt x="729" y="-360" on="1"/>
        <pt x="760" y="-360" on="0"/>
        <pt x="799" y="-332" on="0"/>
        <pt x="799" y="-307" on="1"/>
        <pt x="799" y="-291" on="0"/>
        <pt x="783" y="-270" on="0"/>
        <pt x="759" y="-258" on="0"/>
        <pt x="732" y="-254" on="0"/>
        <pt x="721" y="-254" on="1"/>
        <pt x="712" y="-254" on="0"/>
        <pt x="695" y="-255" on="0"/>
        <pt x="686" y="-258" on="1"/>
        <pt x="725" y="-141" on="1"/>
        <pt x="586" y="-140" on="0"/>
        <pt x="351" y="-40" on="0"/>
        <pt x="180" y="142" on="0"/>
        <pt x="84" y="397" on="0"/>
        <pt x="84" y="555" on="1"/>
        <pt x="84" y="698" on="0"/>
        <pt x="146" y="939" on="0"/>
        <pt x="254" y="1135" on="0"/>
        <pt x="397" y="1284" on="0"/>
        <pt x="559" y="1385" on="0"/>
        <pt x="731" y="1436" on="0"/>
        <pt x="813" y="1436" on="1"/>
        <pt x="858" y="1436" on="0"/>
        <pt x="945" y="1409" on="0"/>
        <pt x="983" y="1386" on="1"/>
        <pt x="1023" y="1405" on="0"/>
        <pt x="1103" y="1429" on="0"/>
        <pt x="1141" y="1436" on="1"/>
      </contour>
      <contour>
        <pt x="1114" y="1075" on="1"/>
        <pt x="1114" y="1157" on="0"/>
        <pt x="1049" y="1290" on="0"/>
        <pt x="993" y="1333" on="1"/>
        <pt x="944" y="1301" on="0"/>
        <pt x="859" y="1218" on="0"/>
        <pt x="797" y="1117" on="0"/>
        <pt x="762" y="998" on="0"/>
        <pt x="762" y="930" on="1"/>
        <pt x="762" y="894" on="0"/>
        <pt x="781" y="833" on="0"/>
        <pt x="817" y="789" on="0"/>
        <pt x="869" y="764" on="0"/>
        <pt x="901" y="764" on="1"/>
        <pt x="955" y="764" on="0"/>
        <pt x="1035" y="826" on="0"/>
        <pt x="1088" y="919" on="0"/>
        <pt x="1114" y="1028" on="0"/>
      </contour>
    </TTGlyph>
    <TTGlyph name="Ccircumflex" xMin="84" yMin="-141" xMax="1364" yMax="1718">
      <component glyphName="C" x="0" y="0" flags="0x204"/>
      <component glyphName="circumflex" x="508" y="680" flags="0x4"/>
    </TTGlyph>
    <TTGlyph name="Cdotaccent" xMin="84" yMin="-141" xMax="1364" yMax="1647">
      <component glyphName="C" x="0" y="0" flags="0x204"/>
      <component glyphName="dotaccent" x="508" y="680" flags="0x4"/>
    </TTGlyph>
    <TTGlyph name="D" xMin="61" yMin="-168" xMax="1384" yMax="1462">
      <contour>
        <pt x="408" y="-98" on="1"/>
        <pt x="331" y="-98" on="0"/>
        <pt x="203" y="-60" on="0"/>
        <pt x="112" y="12" on="0"/>
        <pt x="61" y="116" on="0"/>
        <pt x="61" y="182" on="1"/>
        <pt x="61" y="250" on="0"/>
        <pt x="124" y="391" on="0"/>
        <pt x="184" y="451" on="1"/>
        <pt x="203" y="432" on="1"/>
        <pt x="172" y="392" on="0"/>
        <pt x="131" y="280" on="0"/>
        <pt x="131" y="217" on="1"/>
        <pt x="131" y="166" on="0"/>
        <pt x="162" y="67" on="0"/>
        <pt x="228" y="-11" on="0"/>
        <pt x="333" y="-59" on="0"/>
        <pt x="408" y="-59" on="1"/>
        <pt x="414" y="-59" on="0"/>
        <pt x="426" y="-57" on="0"/>
        <pt x="432" y="-57" on="1"/>
        <pt x="401" y="37" on="0"/>
        <pt x="352" y="309" on="0"/>
        <pt x="352" y="489" on="1"/>
        <pt x="352" y="657" on="0"/>
        <pt x="392" y="913" on="0"/>
        <pt x="446" y="1099" on="0"/>
        <pt x="503" y="1220" on="0"/>
        <pt x="520" y="1253" on="1"/>
        <pt x="549" y="1247" on="1"/>
        <pt x="540" y="1204" on="0"/>
        <pt x="512" y="1055" on="0"/>
        <pt x="485" y="838" on="0"/>
        <pt x="465" y="548" on="0"/>
        <pt x="465" y="365" on="1"/>
        <pt x="465" y="262" on="0"/>
        <pt x="477" y="53" on="0"/>
        <pt x="489" y="-53" on="1"/>
        <pt x="610" y="-40" on="0"/>
        <pt x="820" y="56" on="0"/>
        <pt x="993" y="202" on="0"/>
        <pt x="1127" y="388" on="0"/>
        <pt x="1220" y="594" on="0"/>
        <pt x="1268" y="810" on="0"/>
        <pt x="1268" y="913" on="1"/>
        <pt x="1268" y="1049" on="0"/>
        <pt x="1184" y="1243" on="0"/>
        <pt x="1050" y="1366" on="0"/>
        <pt x="881" y="1423" on="0"/>
        <pt x="797" y="1423" on="1"/>
        <pt x="714" y="1423" on="0"/>
        <pt x="572" y="1401" on="0"/>
        <pt x="453" y="1365" on="0"/>
        <pt x="356" y="1320" on="0"/>
        <pt x="318" y="1296" on="1"/>
        <pt x="228" y="1240" on="0"/>
        <pt x="170" y="1169" on="1"/>
        <pt x="137" y="1192" on="1"/>
        <pt x="138" y="1194" on="0"/>
        <pt x="173" y="1236" on="0"/>
        <pt x="243" y="1296" on="0"/>
        <pt x="350" y="1364" on="0"/>
        <pt x="495" y="1423" on="0"/>
        <pt x="682" y="1462" on="0"/>
        <pt x="797" y="1462" on="1"/>
        <pt x="935" y="1462" on="0"/>
        <pt x="1153" y="1390" on="0"/>
        <pt x="1304" y="1249" on="0"/>
        <pt x="1384" y="1042" on="0"/>
        <pt x="1384" y="907" on="1"/>
        <pt x="1384" y="749" on="0"/>
        <pt x="1302" y="484" on="0"/>
        <pt x="1164" y="269" on="0"/>
        <pt x="984" y="105" on="0"/>
        <pt x="786" y="-12" on="0"/>
        <pt x="584" y="-81" on="0"/>
        <pt x="494" y="-92" on="1"/>
        <pt x="497" y="-111" on="0"/>
        <pt x="503" y="-145" on="0"/>
        <pt x="506" y="-164" on="1"/>
        <pt x="473" y="-168" on="1"/>
        <pt x="467" y="-152" on="0"/>
        <pt x="452" y="-116" on="0"/>
        <pt x="444" y="-96" on="1"/>
        <pt x="435" y="-98" on="0"/>
        <pt x="417" y="-98" on="0"/>
      </contour>
    </TTGlyph>
    <TTGlyph name="Dcaron" xMin="61" yMin="-168" xMax="1384" yMax="1745">
      <component glyphName="D" x="0" y="0" flags="0x204"/>
      <component glyphName="caron" x="489" y="707" flags="0x4"/>
    </TTGlyph>
    <TTGlyph name="Dcroat" xMin="61" yMin="-168" xMax="1384" yMax="1462">
      <contour>
        <pt x="152" y="690" on="1"/>
        <pt x="360" y="690" on="1"/>
        <pt x="371" y="808" on="0"/>
        <pt x="413" y="994" on="0"/>
        <pt x="460" y="1132" on="0"/>
        <pt x="505" y="1226" on="0"/>
        <pt x="520" y="1253" on="1"/>
        <pt x="549" y="1247" on="1"/>
        <pt x="542" y="1215" on="0"/>
        <pt x="522" y="1114" on="0"/>
        <pt x="502" y="976" on="0"/>
        <pt x="482" y="799" on="0"/>
        <pt x="475" y="690" on="1"/>
        <pt x="780" y="690" on="1"/>
        <pt x="780" y="651" on="1"/>
        <pt x="471" y="651" on="1"/>
        <pt x="465" y="522" on="0"/>
        <pt x="465" y="365" on="1"/>
        <pt x="465" y="262" on="0"/>
        <pt x="477" y="53" on="0"/>
        <pt x="489" y="-53" on="1"/>
        <pt x="610" y="-40" on="0"/>
        <pt x="820" y="56" on="0"/>
        <pt x="993" y="202" on="0"/>
        <pt x="1127" y="388" on="0"/>
        <pt x="1220" y="594" on="0"/>
        <pt x="1268" y="810" on="0"/>
        <pt x="1268" y="913" on="1"/>
        <pt x="1268" y="1049" on="0"/>
        <pt x="1184" y="1243" on="0"/>
        <pt x="1050" y="1366" on="0"/>
        <pt x="881" y="1423" on="0"/>
        <pt x="797" y="1423" on="1"/>
        <pt x="714" y="1423" on="0"/>
        <pt x="572" y="1401" on="0"/>
        <pt x="453" y="1365" on="0"/>
        <pt x="356" y="1320" on="0"/>
        <pt x="318" y="1296" on="1"/>
        <pt x="228" y="1240" on="0"/>
        <pt x="170" y="1169" on="1"/>
        <pt x="137" y="1192" on="1"/>
        <pt x="138" y="1194" on="0"/>
        <pt x="173" y="1236" on="0"/>
        <pt x="243" y="1296" on="0"/>
        <pt x="350" y="1364" on="0"/>
        <pt x="495" y="1423" on="0"/>
        <pt x="682" y="1462" on="0"/>
        <pt x="797" y="1462" on="1"/>
        <pt x="935" y="1462" on="0"/>
        <pt x="1153" y="1390" on="0"/>
        <pt x="1304" y="1249" on="0"/>
        <pt x="1384" y="1042" on="0"/>
        <pt x="1384" y="907" on="1"/>
        <pt x="1384" y="749" on="0"/>
        <pt x="1302" y="484" on="0"/>
        <pt x="1164" y="269" on="0"/>
        <pt x="984" y="105" on="0"/>
        <pt x="786" y="-12" on="0"/>
        <pt x="584" y="-81" on="0"/>
        <pt x="494" y="-92" on="1"/>
        <pt x="497" y="-111" on="0"/>
        <pt x="503" y="-145" on="0"/>
        <pt x="506" y="-164" on="1"/>
        <pt x="473" y="-168" on="1"/>
        <pt x="467" y="-152" on="0"/>
        <pt x="452" y="-116" on="0"/>
        <pt x="444" y="-96" on="1"/>
        <pt x="435" y="-98" on="0"/>
        <pt x="417" y="-98" on="0"/>
        <pt x="408" y="-98" on="1"/>
        <pt x="331" y="-98" on="0"/>
        <pt x="203" y="-60" on="0"/>
        <pt x="112" y="12" on="0"/>
        <pt x="61" y="116" on="0"/>
        <pt x="61" y="182" on="1"/>
        <pt x="61" y="250" on="0"/>
        <pt x="124" y="391" on="0"/>
        <pt x="184" y="451" on="1"/>
        <pt x="203" y="432" on="1"/>
        <pt x="172" y="392" on="0"/>
        <pt x="131" y="280" on="0"/>
        <pt x="131" y="217" on="1"/>
        <pt x="131" y="166" on="0"/>
        <pt x="162" y="67" on="0"/>
        <pt x="228" y="-11" on="0"/>
        <pt x="333" y="-59" on="0"/>
        <pt x="408" y="-59" on="1"/>
        <pt x="414" y="-59" on="0"/>
        <pt x="426" y="-57" on="0"/>
        <pt x="432" y="-57" on="1"/>
        <pt x="401" y="37" on="0"/>
        <pt x="352" y="309" on="0"/>
        <pt x="352" y="489" on="1"/>
        <pt x="352" y="533" on="0"/>
        <pt x="353" y="613" on="0"/>
        <pt x="356" y="651" on="1"/>
        <pt x="152" y="651" on="1"/>
      </contour>
    </TTGlyph>
    <TTGlyph name="E" xMin="82" yMin="-156" xMax="1260" yMax="1446">
      <contour>
        <pt x="346" y="1049" on="1"/>
        <pt x="346" y="1148" on="0"/>
        <pt x="422" y="1297" on="0"/>
        <pt x="546" y="1396" on="0"/>
        <pt x="707" y="1446" on="0"/>
        <pt x="793" y="1446" on="1"/>
        <pt x="887" y="1446" on="0"/>
        <pt x="1015" y="1387" on="0"/>
        <pt x="1093" y="1296" on="0"/>
        <pt x="1126" y="1186" on="0"/>
        <pt x="1126" y="1135" on="1"/>
        <pt x="1126" y="1107" on="0"/>
        <pt x="1120" y="1073" on="0"/>
        <pt x="1120" y="1071" on="1"/>
        <pt x="1081" y="1075" on="1"/>
        <pt x="1082" y="1083" on="0"/>
        <pt x="1083" y="1093" on="1"/>
        <pt x="1084" y="1101" on="0"/>
        <pt x="1085" y="1123" on="0"/>
        <pt x="1085" y="1137" on="1"/>
        <pt x="1085" y="1182" on="0"/>
        <pt x="1058" y="1278" on="0"/>
        <pt x="992" y="1356" on="0"/>
        <pt x="879" y="1407" on="0"/>
        <pt x="793" y="1407" on="1"/>
        <pt x="718" y="1407" on="0"/>
        <pt x="590" y="1356" on="0"/>
        <pt x="498" y="1267" on="0"/>
        <pt x="446" y="1148" on="0"/>
        <pt x="446" y="1079" on="1"/>
        <pt x="446" y="1010" on="0"/>
        <pt x="493" y="895" on="0"/>
        <pt x="535" y="852" on="1"/>
        <pt x="580" y="867" on="0"/>
        <pt x="670" y="885" on="0"/>
        <pt x="717" y="885" on="1"/>
        <pt x="751" y="885" on="0"/>
        <pt x="808" y="874" on="0"/>
        <pt x="850" y="852" on="0"/>
        <pt x="874" y="821" on="0"/>
        <pt x="874" y="801" on="1"/>
        <pt x="874" y="773" on="0"/>
        <pt x="837" y="741" on="0"/>
        <pt x="786" y="725" on="0"/>
        <pt x="731" y="721" on="0"/>
        <pt x="713" y="721" on="1"/>
        <pt x="648" y="721" on="0"/>
        <pt x="531" y="756" on="0"/>
        <pt x="483" y="788" on="1"/>
        <pt x="425" y="759" on="0"/>
        <pt x="322" y="671" on="0"/>
        <pt x="246" y="554" on="0"/>
        <pt x="201" y="410" on="0"/>
        <pt x="201" y="326" on="1"/>
        <pt x="201" y="244" on="0"/>
        <pt x="246" y="120" on="0"/>
        <pt x="319" y="31" on="0"/>
        <pt x="414" y="-29" on="0"/>
        <pt x="514" y="-64" on="0"/>
        <pt x="611" y="-78" on="0"/>
        <pt x="651" y="-78" on="1"/>
        <pt x="781" y="-78" on="0"/>
        <pt x="987" y="5" on="0"/>
        <pt x="1133" y="146" on="0"/>
        <pt x="1215" y="334" on="0"/>
        <pt x="1221" y="438" on="1"/>
        <pt x="1260" y="436" on="1"/>
        <pt x="1257" y="349" on="0"/>
        <pt x="1200" y="194" on="0"/>
        <pt x="1104" y="62" on="0"/>
        <pt x="976" y="-43" on="0"/>
        <pt x="826" y="-117" on="0"/>
        <pt x="660" y="-156" on="0"/>
        <pt x="575" y="-156" on="1"/>
        <pt x="477" y="-156" on="0"/>
        <pt x="298" y="-101" on="0"/>
        <pt x="162" y="7" on="0"/>
        <pt x="82" y="166" on="0"/>
        <pt x="82" y="270" on="1"/>
        <pt x="82" y="359" on="0"/>
        <pt x="140" y="524" on="0"/>
        <pt x="239" y="666" on="0"/>
        <pt x="373" y="779" on="0"/>
        <pt x="449" y="817" on="1"/>
        <pt x="401" y="860" on="0"/>
        <pt x="346" y="977" on="0"/>
      </contour>
      <contour>
        <pt x="717" y="846" on="1"/>
        <pt x="644" y="846" on="0"/>
        <pt x="569" y="823" on="1"/>
        <pt x="606" y="795" on="0"/>
        <pt x="702" y="766" on="0"/>
        <pt x="758" y="766" on="1"/>
        <pt x="795" y="766" on="0"/>
        <pt x="836" y="787" on="0"/>
        <pt x="836" y="801" on="1"/>
        <pt x="836" y="816" on="0"/>
        <pt x="773" y="846" on="0"/>
      </contour>
    </TTGlyph>
    <TTGlyph name="Eacute" xMin="82" yMin="-156" xMax="1260" yMax="1732">
      <component glyphName="E" x="0" y="0" flags="0x204"/>
      <component glyphName="acute" x="457" y="690" flags="0x4"/>
    </TTGlyph>
    <TTGlyph name="Ebreve" xMin="82" yMin="-156" xMax="1260" yMax="1700">
      <component glyphName="E" x="0" y="0" flags="0x204"/>
      <component glyphName="breve" x="459" y="690" flags="0x4"/>
    </TTGlyph>
    <TTGlyph name="Ecaron" xMin="82" yMin="-156" xMax="1260" yMax="1728">
      <component glyphName="E" x="0" y="0" flags="0x204"/>
      <component glyphName="caron" x="459" y="690" flags="0x4"/>
    </TTGlyph>
    <TTGlyph name="Ecircumflex" xMin="82" yMin="-156" xMax="1260" yMax="1728">
      <component glyphName="E" x="0" y="0" flags="0x204"/>
      <component glyphName="circumflex" x="457" y="690" flags="0x4"/>
    </TTGlyph>
    <TTGlyph name="Edieresis" xMin="82" yMin="-156" xMax="1260" yMax="1651">
      <component glyphName="E" x="0" y="0" flags="0x204"/>
      <component glyphName="dieresis" x="457" y="690" flags="0x4"/>
    </TTGlyph>
    <TTGlyph name="Edotaccent" xMin="82" yMin="-156" xMax="1260" yMax="1657">
      <component glyphName="E" x="0" y="0" flags="0x204"/>
      <component glyphName="dotaccent" x="457" y="690" flags="0x4"/>
    </TTGlyph>
    <TTGlyph name="Egrave" xMin="82" yMin="-156" xMax="1260" yMax="1732">
      <component glyphName="E" x="0" y="0" flags="0x204"/>
      <component glyphName="grave" x="457" y="690" flags="0x4"/>
    </TTGlyph>
    <TTGlyph name="Emacron" xMin="82" yMin="-156" xMax="1260" yMax="1622">
      <component glyphName="E" x="0" y="0" flags="0x204"/>
      <component glyphName="macron" x="457" y="690" flags="0x4"/>
    </TTGlyph>
    <TTGlyph name="Eng" xMin="-20" yMin="-745" xMax="1257" yMax="1679">
      <contour>
        <pt x="-20" y="-219" on="1"/>
        <pt x="-13" y="-210" on="0"/>
        <pt x="34" y="-148" on="0"/>
        <pt x="97" y="-44" on="0"/>
        <pt x="169" y="101" on="0"/>
        <pt x="233" y="285" on="0"/>
        <pt x="282" y="507" on="0"/>
        <pt x="291" y="635" on="1"/>
        <pt x="305" y="823" on="0"/>
        <pt x="322" y="1131" on="0"/>
        <pt x="331" y="1351" on="0"/>
        <pt x="334" y="1472" on="0"/>
        <pt x="334" y="1473" on="1"/>
        <pt x="373" y="1477" on="1"/>
        <pt x="399" y="1349" on="0"/>
        <pt x="449" y="1079" on="0"/>
        <pt x="502" y="811" on="0"/>
        <pt x="558" y="554" on="0"/>
        <pt x="624" y="325" on="0"/>
        <pt x="700" y="132" on="0"/>
        <pt x="791" y="-8" on="0"/>
        <pt x="900" y="-86" on="0"/>
        <pt x="965" y="-86" on="1"/>
        <pt x="1007" y="-86" on="0"/>
        <pt x="1097" y="-28" on="0"/>
        <pt x="1171" y="102" on="0"/>
        <pt x="1219" y="310" on="0"/>
        <pt x="1219" y="459" on="1"/>
        <pt x="1219" y="548" on="0"/>
        <pt x="1200" y="756" on="0"/>
        <pt x="1160" y="977" on="0"/>
        <pt x="1101" y="1199" on="0"/>
        <pt x="1020" y="1404" on="0"/>
        <pt x="918" y="1584" on="0"/>
        <pt x="856" y="1651" on="1"/>
        <pt x="883" y="1679" on="1"/>
        <pt x="949" y="1608" on="0"/>
        <pt x="1056" y="1426" on="0"/>
        <pt x="1139" y="1218" on="0"/>
        <pt x="1199" y="994" on="0"/>
        <pt x="1238" y="770" on="0"/>
        <pt x="1257" y="554" on="0"/>
        <pt x="1257" y="459" on="1"/>
        <pt x="1257" y="172" on="0"/>
        <pt x="1205" y="-276" on="0"/>
        <pt x="1084" y="-584" on="0"/>
        <pt x="886" y="-745" on="0"/>
        <pt x="739" y="-745" on="1"/>
        <pt x="675" y="-745" on="0"/>
        <pt x="571" y="-709" on="0"/>
        <pt x="485" y="-645" on="0"/>
        <pt x="415" y="-556" on="0"/>
        <pt x="385" y="-502" on="1"/>
        <pt x="414" y="-481" on="1"/>
        <pt x="449" y="-536" on="0"/>
        <pt x="524" y="-603" on="0"/>
        <pt x="604" y="-639" on="0"/>
        <pt x="688" y="-651" on="0"/>
        <pt x="733" y="-651" on="1"/>
        <pt x="780" y="-651" on="0"/>
        <pt x="877" y="-626" on="0"/>
        <pt x="971" y="-563" on="0"/>
        <pt x="1058" y="-456" on="0"/>
        <pt x="1131" y="-292" on="0"/>
        <pt x="1187" y="-64" on="0"/>
        <pt x="1202" y="88" on="1"/>
        <pt x="1181" y="29" on="0"/>
        <pt x="1124" y="-68" on="0"/>
        <pt x="1050" y="-137" on="0"/>
        <pt x="959" y="-176" on="0"/>
        <pt x="905" y="-176" on="1"/>
        <pt x="833" y="-176" on="0"/>
        <pt x="714" y="-105" on="0"/>
        <pt x="616" y="21" on="0"/>
        <pt x="539" y="194" on="0"/>
        <pt x="479" y="397" on="0"/>
        <pt x="433" y="622" on="0"/>
        <pt x="399" y="854" on="0"/>
        <pt x="374" y="1084" on="0"/>
        <pt x="365" y="1190" on="1"/>
        <pt x="360" y="1082" on="0"/>
        <pt x="339" y="801" on="0"/>
        <pt x="330" y="633" on="1"/>
        <pt x="320" y="461" on="0"/>
        <pt x="269" y="187" on="0"/>
        <pt x="186" y="-27" on="0"/>
        <pt x="74" y="-188" on="0"/>
        <pt x="2" y="-246" on="1"/>
      </contour>
    </TTGlyph>
    <TTGlyph name="Eogonek" xMin="82" yMin="-332" xMax="1260" yMax="1446">
      <contour>
        <pt x="999" y="-285" on="1"/>
        <pt x="975" y="-300" on="0"/>
        <pt x="905" y="-332" on="0"/>
        <pt x="864" y="-332" on="1"/>
        <pt x="845" y="-332" on="0"/>
        <pt x="806" y="-324" on="0"/>
        <pt x="775" y="-303" on="0"/>
        <pt x="756" y="-267" on="0"/>
        <pt x="756" y="-240" on="1"/>
        <pt x="756" y="-199" on="0"/>
        <pt x="814" y="-129" on="0"/>
        <pt x="860" y="-98" on="1"/>
        <pt x="829" y="-110" on="0"/>
        <pt x="769" y="-131" on="0"/>
        <pt x="702" y="-147" on="0"/>
        <pt x="624" y="-156" on="0"/>
        <pt x="575" y="-156" on="1"/>
        <pt x="477" y="-156" on="0"/>
        <pt x="298" y="-101" on="0"/>
        <pt x="162" y="7" on="0"/>
        <pt x="82" y="166" on="0"/>
        <pt x="82" y="270" on="1"/>
        <pt x="82" y="359" on="0"/>
        <pt x="140" y="524" on="0"/>
        <pt x="239" y="666" on="0"/>
        <pt x="373" y="779" on="0"/>
        <pt x="449" y="817" on="1"/>
        <pt x="401" y="860" on="0"/>
        <pt x="346" y="977" on="0"/>
        <pt x="346" y="1049" on="1"/>
        <pt x="346" y="1148" on="0"/>
        <pt x="422" y="1297" on="0"/>
        <pt x="546" y="1396" on="0"/>
        <pt x="707" y="1446" on="0"/>
        <pt x="793" y="1446" on="1"/>
        <pt x="887" y="1446" on="0"/>
        <pt x="1015" y="1387" on="0"/>
        <pt x="1093" y="1296" on="0"/>
        <pt x="1126" y="1186" on="0"/>
        <pt x="1126" y="1135" on="1"/>
        <pt x="1126" y="1107" on="0"/>
        <pt x="1120" y="1073" on="0"/>
        <pt x="1120" y="1071" on="1"/>
        <pt x="1081" y="1075" on="1"/>
        <pt x="1082" y="1083" on="0"/>
        <pt x="1083" y="1093" on="1"/>
        <pt x="1084" y="1101" on="0"/>
        <pt x="1085" y="1123" on="0"/>
        <pt x="1085" y="1137" on="1"/>
        <pt x="1085" y="1182" on="0"/>
        <pt x="1058" y="1278" on="0"/>
        <pt x="992" y="1356" on="0"/>
        <pt x="879" y="1407" on="0"/>
        <pt x="793" y="1407" on="1"/>
        <pt x="718" y="1407" on="0"/>
        <pt x="590" y="1356" on="0"/>
        <pt x="498" y="1267" on="0"/>
        <pt x="446" y="1148" on="0"/>
        <pt x="446" y="1079" on="1"/>
        <pt x="446" y="1010" on="0"/>
        <pt x="493" y="895" on="0"/>
        <pt x="535" y="852" on="1"/>
        <pt x="580" y="867" on="0"/>
        <pt x="670" y="885" on="0"/>
        <pt x="717" y="885" on="1"/>
        <pt x="751" y="885" on="0"/>
        <pt x="808" y="874" on="0"/>
        <pt x="850" y="852" on="0"/>
        <pt x="874" y="821" on="0"/>
        <pt x="874" y="801" on="1"/>
        <pt x="874" y="773" on="0"/>
        <pt x="837" y="741" on="0"/>
        <pt x="786" y="725" on="0"/>
        <pt x="731" y="721" on="0"/>
        <pt x="713" y="721" on="1"/>
        <pt x="648" y="721" on="0"/>
        <pt x="531" y="756" on="0"/>
        <pt x="483" y="788" on="1"/>
        <pt x="425" y="759" on="0"/>
        <pt x="322" y="671" on="0"/>
        <pt x="246" y="554" on="0"/>
        <pt x="201" y="410" on="0"/>
        <pt x="201" y="326" on="1"/>
        <pt x="201" y="244" on="0"/>
        <pt x="246" y="120" on="0"/>
        <pt x="319" y="31" on="0"/>
        <pt x="414" y="-29" on="0"/>
        <pt x="514" y="-64" on="0"/>
        <pt x="611" y="-78" on="0"/>
        <pt x="651" y="-78" on="1"/>
        <pt x="781" y="-78" on="0"/>
        <pt x="987" y="5" on="0"/>
        <pt x="1133" y="146" on="0"/>
        <pt x="1215" y="334" on="0"/>
        <pt x="1221" y="438" on="1"/>
        <pt x="1260" y="436" on="1"/>
        <pt x="1257" y="351" on="0"/>
        <pt x="1208" y="207" on="0"/>
        <pt x="1126" y="85" on="0"/>
        <pt x="1012" y="-20" on="0"/>
        <pt x="944" y="-66" on="1"/>
        <pt x="926" y="-77" on="0"/>
        <pt x="881" y="-114" on="0"/>
        <pt x="841" y="-158" on="0"/>
        <pt x="813" y="-204" on="0"/>
        <pt x="813" y="-225" on="1"/>
        <pt x="813" y="-243" on="0"/>
        <pt x="825" y="-267" on="0"/>
        <pt x="844" y="-282" on="0"/>
        <pt x="867" y="-289" on="0"/>
        <pt x="879" y="-289" on="1"/>
        <pt x="913" y="-289" on="0"/>
        <pt x="977" y="-268" on="0"/>
        <pt x="989" y="-260" on="1"/>
      </contour>
      <contour>
        <pt x="717" y="846" on="1"/>
        <pt x="644" y="846" on="0"/>
        <pt x="569" y="823" on="1"/>
        <pt x="606" y="795" on="0"/>
        <pt x="702" y="766" on="0"/>
        <pt x="758" y="766" on="1"/>
        <pt x="795" y="766" on="0"/>
        <pt x="836" y="787" on="0"/>
        <pt x="836" y="801" on="1"/>
        <pt x="836" y="816" on="0"/>
        <pt x="773" y="846" on="0"/>
      </contour>
    </TTGlyph>
    <TTGlyph name="Eth" xMin="61" yMin="-168" xMax="1384" yMax="1462">
      <contour>
        <pt x="152" y="690" on="1"/>
        <pt x="360" y="690" on="1"/>
        <pt x="371" y="808" on="0"/>
        <pt x="413" y="994" on="0"/>
        <pt x="460" y="1132" on="0"/>
        <pt x="505" y="1226" on="0"/>
        <pt x="520" y="1253" on="1"/>
        <pt x="549" y="1247" on="1"/>
        <pt x="542" y="1215" on="0"/>
        <pt x="522" y="1114" on="0"/>
        <pt x="502" y="976" on="0"/>
        <pt x="482" y="799" on="0"/>
        <pt x="475" y="690" on="1"/>
        <pt x="780" y="690" on="1"/>
        <pt x="780" y="651" on="1"/>
        <pt x="471" y="651" on="1"/>
        <pt x="465" y="522" on="0"/>
        <pt x="465" y="365" on="1"/>
        <pt x="465" y="262" on="0"/>
        <pt x="477" y="53" on="0"/>
        <pt x="489" y="-53" on="1"/>
        <pt x="610" y="-40" on="0"/>
        <pt x="820" y="56" on="0"/>
        <pt x="993" y="202" on="0"/>
        <pt x="1127" y="388" on="0"/>
        <pt x="1220" y="594" on="0"/>
        <pt x="1268" y="810" on="0"/>
        <pt x="1268" y="913" on="1"/>
        <pt x="1268" y="1049" on="0"/>
        <pt x="1184" y="1243" on="0"/>
        <pt x="1050" y="1366" on="0"/>
        <pt x="881" y="1423" on="0"/>
        <pt x="797" y="1423" on="1"/>
        <pt x="714" y="1423" on="0"/>
        <pt x="572" y="1401" on="0"/>
        <pt x="453" y="1365" on="0"/>
        <pt x="356" y="1320" on="0"/>
        <pt x="318" y="1296" on="1"/>
        <pt x="228" y="1240" on="0"/>
        <pt x="170" y="1169" on="1"/>
        <pt x="137" y="1192" on="1"/>
        <pt x="138" y="1194" on="0"/>
        <pt x="173" y="1236" on="0"/>
        <pt x="243" y="1296" on="0"/>
        <pt x="350" y="1364" on="0"/>
        <pt x="495" y="1423" on="0"/>
        <pt x="682" y="1462" on="0"/>
        <pt x="797" y="1462" on="1"/>
        <pt x="935" y="1462" on="0"/>
        <pt x="1153" y="1390" on="0"/>
        <pt x="1304" y="1249" on="0"/>
        <pt x="1384" y="1042" on="0"/>
        <pt x="1384" y="907" on="1"/>
        <pt x="1384" y="749" on="0"/>
        <pt x="1302" y="484" on="0"/>
        <pt x="1164" y="269" on="0"/>
        <pt x="984" y="105" on="0"/>
        <pt x="786" y="-12" on="0"/>
        <pt x="584" y="-81" on="0"/>
        <pt x="494" y="-92" on="1"/>
        <pt x="497" y="-111" on="0"/>
        <pt x="503" y="-145" on="0"/>
        <pt x="506" y="-164" on="1"/>
        <pt x="473" y="-168" on="1"/>
        <pt x="467" y="-152" on="0"/>
        <pt x="452" y="-116" on="0"/>
        <pt x="444" y="-96" on="1"/>
        <pt x="435" y="-98" on="0"/>
        <pt x="417" y="-98" on="0"/>
        <pt x="408" y="-98" on="1"/>
        <pt x="331" y="-98" on="0"/>
        <pt x="203" y="-60" on="0"/>
        <pt x="112" y="12" on="0"/>
        <pt x="61" y="116" on="0"/>
        <pt x="61" y="182" on="1"/>
        <pt x="61" y="250" on="0"/>
        <pt x="124" y="391" on="0"/>
        <pt x="184" y="451" on="1"/>
        <pt x="203" y="432" on="1"/>
        <pt x="172" y="392" on="0"/>
        <pt x="131" y="280" on="0"/>
        <pt x="131" y="217" on="1"/>
        <pt x="131" y="166" on="0"/>
        <pt x="162" y="67" on="0"/>
        <pt x="228" y="-11" on="0"/>
        <pt x="333" y="-59" on="0"/>
        <pt x="408" y="-59" on="1"/>
        <pt x="414" y="-59" on="0"/>
        <pt x="426" y="-57" on="0"/>
        <pt x="432" y="-57" on="1"/>
        <pt x="401" y="37" on="0"/>
        <pt x="352" y="309" on="0"/>
        <pt x="352" y="489" on="1"/>
        <pt x="352" y="533" on="0"/>
        <pt x="353" y="613" on="0"/>
        <pt x="356" y="651" on="1"/>
        <pt x="152" y="651" on="1"/>
      </contour>
    </TTGlyph>
    <TTGlyph name="Euro" xMin="43" yMin="-39" xMax="1108" yMax="1305">
      <contour>
        <pt x="43" y="688" on="1"/>
        <pt x="174" y="688" on="1"/>
        <pt x="195" y="835" on="0"/>
        <pt x="317" y="1064" on="0"/>
        <pt x="485" y="1222" on="0"/>
        <pt x="680" y="1305" on="0"/>
        <pt x="772" y="1305" on="1"/>
        <pt x="833" y="1305" on="0"/>
        <pt x="943" y="1272" on="0"/>
        <pt x="1026" y="1206" on="0"/>
        <pt x="1075" y="1106" on="0"/>
        <pt x="1075" y="1038" on="1"/>
        <pt x="1075" y="983" on="0"/>
        <pt x="1038" y="890" on="0"/>
        <pt x="975" y="822" on="0"/>
        <pt x="889" y="784" on="0"/>
        <pt x="840" y="784" on="1"/>
        <pt x="807" y="784" on="0"/>
        <pt x="740" y="806" on="0"/>
        <pt x="687" y="850" on="0"/>
        <pt x="653" y="916" on="0"/>
        <pt x="653" y="961" on="1"/>
        <pt x="653" y="984" on="0"/>
        <pt x="661" y="1045" on="0"/>
        <pt x="674" y="1079" on="1"/>
        <pt x="711" y="1069" on="1"/>
        <pt x="700" y="1038" on="0"/>
        <pt x="692" y="990" on="0"/>
        <pt x="692" y="961" on="1"/>
        <pt x="692" y="929" on="0"/>
        <pt x="715" y="878" on="0"/>
        <pt x="756" y="842" on="0"/>
        <pt x="812" y="823" on="0"/>
        <pt x="846" y="823" on="1"/>
        <pt x="895" y="823" on="0"/>
        <pt x="967" y="865" on="0"/>
        <pt x="1013" y="930" on="0"/>
        <pt x="1036" y="1006" on="0"/>
        <pt x="1036" y="1040" on="1"/>
        <pt x="1036" y="1095" on="0"/>
        <pt x="999" y="1179" on="0"/>
        <pt x="930" y="1236" on="0"/>
        <pt x="833" y="1266" on="0"/>
        <pt x="772" y="1266" on="1"/>
        <pt x="725" y="1266" on="0"/>
        <pt x="623" y="1235" on="0"/>
        <pt x="522" y="1171" on="0"/>
        <pt x="427" y="1076" on="0"/>
        <pt x="350" y="947" on="0"/>
        <pt x="297" y="786" on="0"/>
        <pt x="287" y="688" on="1"/>
        <pt x="733" y="688" on="1"/>
        <pt x="733" y="649" on="1"/>
        <pt x="285" y="649" on="1"/>
        <pt x="283" y="632" on="0"/>
        <pt x="283" y="601" on="0"/>
        <pt x="283" y="584" on="1"/>
        <pt x="283" y="526" on="1"/>
        <pt x="672" y="526" on="1"/>
        <pt x="672" y="487" on="1"/>
        <pt x="287" y="487" on="1"/>
        <pt x="299" y="375" on="0"/>
        <pt x="376" y="197" on="0"/>
        <pt x="495" y="74" on="0"/>
        <pt x="649" y="8" on="0"/>
        <pt x="739" y="8" on="1"/>
        <pt x="794" y="8" on="0"/>
        <pt x="887" y="28" on="0"/>
        <pt x="970" y="64" on="0"/>
        <pt x="1045" y="115" on="0"/>
        <pt x="1081" y="147" on="1"/>
        <pt x="1108" y="119" on="1"/>
        <pt x="1066" y="81" on="0"/>
        <pt x="975" y="22" on="0"/>
        <pt x="875" y="-18" on="0"/>
        <pt x="761" y="-39" on="0"/>
        <pt x="696" y="-39" on="1"/>
        <pt x="585" y="-39" on="0"/>
        <pt x="400" y="33" on="0"/>
        <pt x="262" y="168" on="0"/>
        <pt x="177" y="364" on="0"/>
        <pt x="168" y="487" on="1"/>
        <pt x="43" y="487" on="1"/>
        <pt x="43" y="526" on="1"/>
        <pt x="166" y="526" on="1"/>
        <pt x="166" y="555" on="1"/>
        <pt x="166" y="578" on="0"/>
        <pt x="167" y="626" on="0"/>
        <pt x="170" y="649" on="1"/>
        <pt x="43" y="649" on="1"/>
      </contour>
    </TTGlyph>
    <TTGlyph name="F" xMin="61" yMin="-125" xMax="1571" yMax="1495">
      <contour>
        <pt x="571" y="709" on="1"/>
        <pt x="574" y="710" on="0"/>
        <pt x="615" y="720" on="0"/>
        <pt x="683" y="735" on="0"/>
        <pt x="772" y="752" on="0"/>
        <pt x="823" y="758" on="1"/>
        <pt x="829" y="923" on="0"/>
        <pt x="912" y="1165" on="0"/>
        <pt x="975" y="1251" on="1"/>
        <pt x="909" y="1271" on="0"/>
        <pt x="770" y="1313" on="0"/>
        <pt x="632" y="1347" on="0"/>
        <pt x="497" y="1368" on="0"/>
        <pt x="436" y="1368" on="1"/>
        <pt x="363" y="1368" on="0"/>
        <pt x="258" y="1341" on="0"/>
        <pt x="186" y="1296" on="0"/>
        <pt x="141" y="1238" on="0"/>
        <pt x="117" y="1177" on="0"/>
        <pt x="109" y="1118" on="0"/>
        <pt x="109" y="1094" on="1"/>
        <pt x="109" y="1072" on="0"/>
        <pt x="113" y="1046" on="0"/>
        <pt x="113" y="1044" on="1"/>
        <pt x="74" y="1036" on="1"/>
        <pt x="73" y="1042" on="0"/>
        <pt x="72" y="1051" on="1"/>
        <pt x="71" y="1059" on="0"/>
        <pt x="70" y="1078" on="0"/>
        <pt x="70" y="1090" on="1"/>
        <pt x="70" y="1117" on="0"/>
        <pt x="79" y="1185" on="0"/>
        <pt x="106" y="1255" on="0"/>
        <pt x="155" y="1323" on="0"/>
        <pt x="236" y="1375" on="0"/>
        <pt x="353" y="1407" on="0"/>
        <pt x="434" y="1407" on="1"/>
        <pt x="509" y="1407" on="0"/>
        <pt x="658" y="1384" on="0"/>
        <pt x="801" y="1349" on="0"/>
        <pt x="939" y="1306" on="0"/>
        <pt x="1004" y="1286" on="1"/>
        <pt x="1050" y="1343" on="0"/>
        <pt x="1157" y="1423" on="0"/>
        <pt x="1265" y="1472" on="0"/>
        <pt x="1368" y="1495" on="0"/>
        <pt x="1411" y="1495" on="1"/>
        <pt x="1445" y="1495" on="0"/>
        <pt x="1503" y="1479" on="0"/>
        <pt x="1546" y="1447" on="0"/>
        <pt x="1571" y="1402" on="0"/>
        <pt x="1571" y="1374" on="1"/>
        <pt x="1571" y="1345" on="0"/>
        <pt x="1536" y="1279" on="0"/>
        <pt x="1466" y="1224" on="0"/>
        <pt x="1360" y="1188" on="0"/>
        <pt x="1288" y="1188" on="1"/>
        <pt x="1239" y="1188" on="0"/>
        <pt x="1121" y="1212" on="0"/>
        <pt x="1055" y="1229" on="1"/>
        <pt x="1005" y="1139" on="0"/>
        <pt x="950" y="906" on="0"/>
        <pt x="942" y="766" on="1"/>
        <pt x="953" y="766" on="0"/>
        <pt x="976" y="768" on="0"/>
        <pt x="987" y="768" on="1"/>
        <pt x="1055" y="768" on="0"/>
        <pt x="1156" y="759" on="0"/>
        <pt x="1234" y="746" on="0"/>
        <pt x="1293" y="729" on="0"/>
        <pt x="1319" y="721" on="1"/>
        <pt x="1313" y="688" on="1"/>
        <pt x="1256" y="697" on="0"/>
        <pt x="1117" y="705" on="0"/>
        <pt x="1044" y="705" on="1"/>
        <pt x="1018" y="705" on="0"/>
        <pt x="965" y="704" on="0"/>
        <pt x="940" y="702" on="1"/>
        <pt x="940" y="664" on="1"/>
        <pt x="940" y="608" on="0"/>
        <pt x="944" y="519" on="0"/>
        <pt x="948" y="441" on="0"/>
        <pt x="952" y="366" on="0"/>
        <pt x="952" y="324" on="1"/>
        <pt x="952" y="222" on="0"/>
        <pt x="887" y="57" on="0"/>
        <pt x="770" y="-61" on="0"/>
        <pt x="607" y="-125" on="0"/>
        <pt x="508" y="-125" on="1"/>
        <pt x="403" y="-125" on="0"/>
        <pt x="237" y="-70" on="0"/>
        <pt x="122" y="40" on="0"/>
        <pt x="61" y="204" on="0"/>
        <pt x="61" y="313" on="1"/>
        <pt x="61" y="391" on="0"/>
        <pt x="82" y="477" on="1"/>
        <pt x="121" y="467" on="1"/>
        <pt x="116" y="447" on="0"/>
        <pt x="112" y="424" on="1"/>
        <pt x="109" y="404" on="0"/>
        <pt x="104" y="354" on="0"/>
        <pt x="104" y="328" on="1"/>
        <pt x="104" y="129" on="0"/>
        <pt x="305" y="-86" on="0"/>
        <pt x="508" y="-86" on="1"/>
        <pt x="592" y="-86" on="0"/>
        <pt x="722" y="-40" on="0"/>
        <pt x="811" y="46" on="0"/>
        <pt x="858" y="170" on="0"/>
        <pt x="858" y="248" on="1"/>
        <pt x="858" y="295" on="0"/>
        <pt x="847" y="398" on="0"/>
        <pt x="834" y="511" on="0"/>
        <pt x="823" y="633" on="0"/>
        <pt x="823" y="698" on="1"/>
        <pt x="770" y="695" on="0"/>
        <pt x="681" y="688" on="0"/>
        <pt x="647" y="686" on="1"/>
        <pt x="607" y="682" on="0"/>
        <pt x="575" y="680" on="1"/>
      </contour>
      <contour>
        <pt x="1288" y="1229" on="1"/>
        <pt x="1343" y="1229" on="0"/>
        <pt x="1433" y="1254" on="0"/>
        <pt x="1497" y="1295" on="0"/>
        <pt x="1532" y="1346" on="0"/>
        <pt x="1532" y="1372" on="1"/>
        <pt x="1532" y="1409" on="0"/>
        <pt x="1464" y="1456" on="0"/>
        <pt x="1413" y="1456" on="1"/>
        <pt x="1302" y="1456" on="0"/>
        <pt x="1134" y="1357" on="0"/>
        <pt x="1075" y="1266" on="1"/>
        <pt x="1134" y="1249" on="0"/>
        <pt x="1240" y="1229" on="0"/>
      </contour>
    </TTGlyph>
    <TTGlyph name="G" xMin="90" yMin="-520" xMax="1253" yMax="1362">
      <contour>
        <pt x="477" y="-2" on="1"/>
        <pt x="289" y="-2" on="0"/>
        <pt x="90" y="195" on="0"/>
        <pt x="90" y="401" on="1"/>
        <pt x="90" y="480" on="0"/>
        <pt x="136" y="648" on="0"/>
        <pt x="218" y="813" on="0"/>
        <pt x="331" y="970" on="0"/>
        <pt x="466" y="1111" on="0"/>
        <pt x="617" y="1229" on="0"/>
        <pt x="776" y="1314" on="0"/>
        <pt x="937" y="1362" on="0"/>
        <pt x="1014" y="1362" on="1"/>
        <pt x="1068" y="1362" on="0"/>
        <pt x="1156" y="1334" on="0"/>
        <pt x="1219" y="1282" on="0"/>
        <pt x="1253" y="1205" on="0"/>
        <pt x="1253" y="1157" on="1"/>
        <pt x="1253" y="1109" on="0"/>
        <pt x="1219" y="1011" on="0"/>
        <pt x="1160" y="918" on="0"/>
        <pt x="1079" y="836" on="0"/>
        <pt x="985" y="775" on="0"/>
        <pt x="880" y="739" on="0"/>
        <pt x="827" y="739" on="1"/>
        <pt x="733" y="739" on="0"/>
        <pt x="627" y="835" on="0"/>
        <pt x="627" y="915" on="1"/>
        <pt x="627" y="954" on="0"/>
        <pt x="645" y="1011" on="0"/>
        <pt x="668" y="1051" on="0"/>
        <pt x="691" y="1075" on="0"/>
        <pt x="696" y="1083" on="1"/>
        <pt x="723" y="1055" on="1"/>
        <pt x="722" y="1054" on="0"/>
        <pt x="704" y="1038" on="0"/>
        <pt x="683" y="1004" on="0"/>
        <pt x="666" y="951" on="0"/>
        <pt x="666" y="915" on="1"/>
        <pt x="666" y="888" on="0"/>
        <pt x="685" y="839" on="0"/>
        <pt x="725" y="802" on="0"/>
        <pt x="786" y="780" on="0"/>
        <pt x="827" y="780" on="1"/>
        <pt x="900" y="780" on="0"/>
        <pt x="1039" y="849" on="0"/>
        <pt x="1148" y="959" on="0"/>
        <pt x="1214" y="1094" on="0"/>
        <pt x="1214" y="1159" on="1"/>
        <pt x="1214" y="1240" on="0"/>
        <pt x="1111" y="1321" on="0"/>
        <pt x="1012" y="1321" on="1"/>
        <pt x="901" y="1321" on="0"/>
        <pt x="697" y="1241" on="0"/>
        <pt x="520" y="1103" on="0"/>
        <pt x="375" y="921" on="0"/>
        <pt x="272" y="718" on="0"/>
        <pt x="215" y="505" on="0"/>
        <pt x="215" y="406" on="1"/>
        <pt x="215" y="310" on="0"/>
        <pt x="269" y="178" on="0"/>
        <pt x="360" y="97" on="0"/>
        <pt x="480" y="61" on="0"/>
        <pt x="547" y="61" on="1"/>
        <pt x="601" y="61" on="0"/>
        <pt x="717" y="95" on="0"/>
        <pt x="832" y="156" on="0"/>
        <pt x="940" y="240" on="0"/>
        <pt x="987" y="289" on="1"/>
        <pt x="989" y="404" on="0"/>
        <pt x="1024" y="569" on="0"/>
        <pt x="1074" y="674" on="0"/>
        <pt x="1131" y="723" on="0"/>
        <pt x="1155" y="723" on="1"/>
        <pt x="1162" y="723" on="0"/>
        <pt x="1180" y="718" on="0"/>
        <pt x="1197" y="704" on="0"/>
        <pt x="1208" y="679" on="0"/>
        <pt x="1208" y="659" on="1"/>
        <pt x="1208" y="621" on="0"/>
        <pt x="1184" y="534" on="0"/>
        <pt x="1140" y="441" on="0"/>
        <pt x="1077" y="345" on="0"/>
        <pt x="1038" y="299" on="1"/>
        <pt x="1042" y="240" on="0"/>
        <pt x="1058" y="140" on="0"/>
        <pt x="1073" y="50" on="0"/>
        <pt x="1085" y="-35" on="0"/>
        <pt x="1085" y="-78" on="1"/>
        <pt x="1085" y="-158" on="0"/>
        <pt x="1044" y="-316" on="0"/>
        <pt x="944" y="-442" on="0"/>
        <pt x="775" y="-520" on="0"/>
        <pt x="647" y="-520" on="1"/>
        <pt x="591" y="-520" on="0"/>
        <pt x="507" y="-485" on="0"/>
        <pt x="450" y="-429" on="0"/>
        <pt x="422" y="-358" on="0"/>
        <pt x="422" y="-322" on="1"/>
        <pt x="422" y="-287" on="0"/>
        <pt x="439" y="-220" on="0"/>
        <pt x="481" y="-166" on="0"/>
        <pt x="550" y="-130" on="0"/>
        <pt x="602" y="-127" on="1"/>
        <pt x="606" y="-166" on="1"/>
        <pt x="565" y="-168" on="0"/>
        <pt x="510" y="-194" on="0"/>
        <pt x="476" y="-237" on="0"/>
        <pt x="461" y="-292" on="0"/>
        <pt x="461" y="-322" on="1"/>
        <pt x="461" y="-342" on="0"/>
        <pt x="477" y="-397" on="0"/>
        <pt x="518" y="-446" on="0"/>
        <pt x="589" y="-481" on="0"/>
        <pt x="645" y="-481" on="1"/>
        <pt x="717" y="-481" on="0"/>
        <pt x="824" y="-434" on="0"/>
        <pt x="901" y="-352" on="0"/>
        <pt x="951" y="-241" on="0"/>
        <pt x="980" y="-113" on="0"/>
        <pt x="991" y="27" on="0"/>
        <pt x="991" y="96" on="1"/>
        <pt x="991" y="130" on="0"/>
        <pt x="987" y="201" on="0"/>
        <pt x="987" y="240" on="1"/>
        <pt x="936" y="189" on="0"/>
        <pt x="819" y="101" on="0"/>
        <pt x="689" y="35" on="0"/>
        <pt x="549" y="-2" on="0"/>
      </contour>
      <contour>
        <pt x="1036" y="346" on="1"/>
        <pt x="1096" y="420" on="0"/>
        <pt x="1169" y="582" on="0"/>
        <pt x="1169" y="659" on="1"/>
        <pt x="1169" y="682" on="0"/>
        <pt x="1155" y="682" on="1"/>
        <pt x="1140" y="682" on="0"/>
        <pt x="1099" y="629" on="0"/>
        <pt x="1062" y="543" on="0"/>
        <pt x="1036" y="434" on="0"/>
        <pt x="1036" y="379" on="1"/>
      </contour>
    </TTGlyph>
    <TTGlyph name="Gbreve" xMin="90" yMin="-520" xMax="1253" yMax="1618">
      <component glyphName="G" x="0" y="0" flags="0x204"/>
      <component glyphName="breve" x="711" y="608" flags="0x4"/>
    </TTGlyph>
    <TTGlyph name="Gcircumflex" xMin="90" yMin="-520" xMax="1253" yMax="1646">
      <component glyphName="G" x="0" y="0" flags="0x204"/>
      <component glyphName="circumflex" x="709" y="608" flags="0x4"/>
    </TTGlyph>
    <TTGlyph name="Gcommaaccent" xMin="90" yMin="-520" xMax="1253" yMax="1362">
      <contour>
        <pt x="559" y="-467" on="1"/>
        <pt x="576" y="-473" on="0"/>
        <pt x="619" y="-481" on="0"/>
        <pt x="645" y="-481" on="1"/>
        <pt x="717" y="-481" on="0"/>
        <pt x="824" y="-434" on="0"/>
        <pt x="901" y="-352" on="0"/>
        <pt x="951" y="-241" on="0"/>
        <pt x="980" y="-113" on="0"/>
        <pt x="991" y="27" on="0"/>
        <pt x="991" y="96" on="1"/>
        <pt x="991" y="133" on="0"/>
        <pt x="987" y="211" on="0"/>
        <pt x="987" y="254" on="1"/>
        <pt x="987" y="378" on="0"/>
        <pt x="1020" y="556" on="0"/>
        <pt x="1071" y="670" on="0"/>
        <pt x="1129" y="723" on="0"/>
        <pt x="1155" y="723" on="1"/>
        <pt x="1162" y="723" on="0"/>
        <pt x="1180" y="718" on="0"/>
        <pt x="1197" y="704" on="0"/>
        <pt x="1208" y="679" on="0"/>
        <pt x="1208" y="659" on="1"/>
        <pt x="1208" y="602" on="0"/>
        <pt x="1154" y="459" on="0"/>
        <pt x="1056" y="312" on="0"/>
        <pt x="921" y="173" on="0"/>
        <pt x="758" y="64" on="0"/>
        <pt x="574" y="-2" on="0"/>
        <pt x="477" y="-2" on="1"/>
        <pt x="289" y="-2" on="0"/>
        <pt x="90" y="195" on="0"/>
        <pt x="90" y="401" on="1"/>
        <pt x="90" y="480" on="0"/>
        <pt x="136" y="648" on="0"/>
        <pt x="218" y="813" on="0"/>
        <pt x="331" y="970" on="0"/>
        <pt x="466" y="1111" on="0"/>
        <pt x="617" y="1229" on="0"/>
        <pt x="776" y="1314" on="0"/>
        <pt x="937" y="1362" on="0"/>
        <pt x="1014" y="1362" on="1"/>
        <pt x="1068" y="1362" on="0"/>
        <pt x="1156" y="1334" on="0"/>
        <pt x="1219" y="1282" on="0"/>
        <pt x="1253" y="1205" on="0"/>
        <pt x="1253" y="1157" on="1"/>
        <pt x="1253" y="1109" on="0"/>
        <pt x="1219" y="1011" on="0"/>
        <pt x="1160" y="918" on="0"/>
        <pt x="1079" y="836" on="0"/>
        <pt x="985" y="775" on="0"/>
        <pt x="880" y="739" on="0"/>
        <pt x="827" y="739" on="1"/>
        <pt x="733" y="739" on="0"/>
        <pt x="627" y="835" on="0"/>
        <pt x="627" y="915" on="1"/>
        <pt x="627" y="954" on="0"/>
        <pt x="645" y="1011" on="0"/>
        <pt x="668" y="1051" on="0"/>
        <pt x="691" y="1075" on="0"/>
        <pt x="696" y="1083" on="1"/>
        <pt x="723" y="1055" on="1"/>
        <pt x="722" y="1054" on="0"/>
        <pt x="704" y="1038" on="0"/>
        <pt x="683" y="1004" on="0"/>
        <pt x="666" y="951" on="0"/>
        <pt x="666" y="915" on="1"/>
        <pt x="666" y="888" on="0"/>
        <pt x="685" y="839" on="0"/>
        <pt x="725" y="802" on="0"/>
        <pt x="786" y="780" on="0"/>
        <pt x="827" y="780" on="1"/>
        <pt x="900" y="780" on="0"/>
        <pt x="1039" y="849" on="0"/>
        <pt x="1148" y="959" on="0"/>
        <pt x="1214" y="1094" on="0"/>
        <pt x="1214" y="1159" on="1"/>
        <pt x="1214" y="1240" on="0"/>
        <pt x="1111" y="1321" on="0"/>
        <pt x="1012" y="1321" on="1"/>
        <pt x="901" y="1321" on="0"/>
        <pt x="697" y="1241" on="0"/>
        <pt x="520" y="1103" on="0"/>
        <pt x="375" y="921" on="0"/>
        <pt x="272" y="718" on="0"/>
        <pt x="215" y="505" on="0"/>
        <pt x="215" y="406" on="1"/>
        <pt x="215" y="310" on="0"/>
        <pt x="269" y="178" on="0"/>
        <pt x="360" y="97" on="0"/>
        <pt x="480" y="61" on="0"/>
        <pt x="547" y="61" on="1"/>
        <pt x="614" y="61" on="0"/>
        <pt x="759" y="113" on="0"/>
        <pt x="897" y="202" on="0"/>
        <pt x="1021" y="321" on="0"/>
        <pt x="1114" y="454" on="0"/>
        <pt x="1169" y="594" on="0"/>
        <pt x="1169" y="659" on="1"/>
        <pt x="1169" y="682" on="0"/>
        <pt x="1155" y="682" on="1"/>
        <pt x="1140" y="682" on="0"/>
        <pt x="1099" y="629" on="0"/>
        <pt x="1062" y="543" on="0"/>
        <pt x="1036" y="434" on="0"/>
        <pt x="1036" y="379" on="1"/>
        <pt x="1036" y="304" on="0"/>
        <pt x="1051" y="179" on="0"/>
        <pt x="1070" y="71" on="0"/>
        <pt x="1085" y="-28" on="0"/>
        <pt x="1085" y="-78" on="1"/>
        <pt x="1085" y="-158" on="0"/>
        <pt x="1044" y="-316" on="0"/>
        <pt x="944" y="-442" on="0"/>
        <pt x="775" y="-520" on="0"/>
        <pt x="647" y="-520" on="1"/>
        <pt x="619" y="-520" on="0"/>
        <pt x="571" y="-510" on="0"/>
        <pt x="549" y="-502" on="1"/>
      </contour>
      <contour>
        <pt x="510" y="-303" on="1"/>
        <pt x="530" y="-288" on="0"/>
        <pt x="549" y="-253" on="0"/>
        <pt x="549" y="-238" on="1"/>
        <pt x="526" y="-238" on="0"/>
        <pt x="494" y="-214" on="0"/>
        <pt x="494" y="-188" on="1"/>
        <pt x="494" y="-168" on="0"/>
        <pt x="523" y="-139" on="0"/>
        <pt x="543" y="-139" on="1"/>
        <pt x="569" y="-139" on="0"/>
        <pt x="598" y="-175" on="0"/>
        <pt x="598" y="-203" on="1"/>
        <pt x="598" y="-241" on="0"/>
        <pt x="555" y="-304" on="0"/>
        <pt x="530" y="-324" on="1"/>
      </contour>
    </TTGlyph>
    <TTGlyph name="Gdotaccent" xMin="90" yMin="-520" xMax="1253" yMax="1575">
      <component glyphName="G" x="0" y="0" flags="0x204"/>
      <component glyphName="dotaccent" x="709" y="608" flags="0x4"/>
    </TTGlyph>
    <TTGlyph name="H" xMin="-225" yMin="-483" xMax="1516" yMax="1589">
      <contour>
        <pt x="289" y="481" on="1"/>
        <pt x="290" y="482" on="0"/>
        <pt x="318" y="496" on="0"/>
        <pt x="368" y="517" on="0"/>
        <pt x="440" y="541" on="0"/>
        <pt x="487" y="553" on="1"/>
        <pt x="482" y="628" on="0"/>
        <pt x="479" y="779" on="0"/>
        <pt x="479" y="848" on="1"/>
        <pt x="479" y="991" on="0"/>
        <pt x="518" y="1208" on="0"/>
        <pt x="549" y="1288" on="1"/>
        <pt x="545" y="1288" on="1"/>
        <pt x="435" y="1273" on="0"/>
        <pt x="261" y="1241" on="0"/>
        <pt x="125" y="1190" on="0"/>
        <pt x="24" y="1114" on="0"/>
        <pt x="-12" y="1055" on="1"/>
        <pt x="-49" y="1069" on="1"/>
        <pt x="-5" y="1147" on="0"/>
        <pt x="125" y="1236" on="0"/>
        <pt x="281" y="1288" on="0"/>
        <pt x="457" y="1314" on="0"/>
        <pt x="547" y="1329" on="1"/>
        <pt x="552" y="1329" on="0"/>
        <pt x="562" y="1331" on="0"/>
        <pt x="567" y="1333" on="1"/>
        <pt x="603" y="1408" on="0"/>
        <pt x="686" y="1507" on="0"/>
        <pt x="765" y="1566" on="0"/>
        <pt x="830" y="1589" on="0"/>
        <pt x="848" y="1589" on="1"/>
        <pt x="886" y="1589" on="0"/>
        <pt x="926" y="1546" on="0"/>
        <pt x="926" y="1522" on="1"/>
        <pt x="926" y="1477" on="0"/>
        <pt x="871" y="1407" on="0"/>
        <pt x="787" y="1355" on="0"/>
        <pt x="688" y="1318" on="0"/>
        <pt x="643" y="1307" on="1"/>
        <pt x="618" y="1239" on="0"/>
        <pt x="590" y="1071" on="0"/>
        <pt x="590" y="975" on="1"/>
        <pt x="590" y="884" on="0"/>
        <pt x="602" y="683" on="0"/>
        <pt x="610" y="578" on="1"/>
        <pt x="651" y="583" on="0"/>
        <pt x="742" y="590" on="0"/>
        <pt x="793" y="590" on="1"/>
        <pt x="819" y="590" on="0"/>
        <pt x="904" y="587" on="0"/>
        <pt x="994" y="583" on="0"/>
        <pt x="1074" y="580" on="0"/>
        <pt x="1096" y="580" on="1"/>
        <pt x="1133" y="580" on="0"/>
        <pt x="1200" y="582" on="0"/>
        <pt x="1229" y="584" on="1"/>
        <pt x="1231" y="791" on="0"/>
        <pt x="1337" y="1172" on="0"/>
        <pt x="1430" y="1358" on="1"/>
        <pt x="1462" y="1343" on="1"/>
        <pt x="1461" y="1342" on="0"/>
        <pt x="1443" y="1284" on="0"/>
        <pt x="1416" y="1183" on="0"/>
        <pt x="1384" y="1044" on="0"/>
        <pt x="1357" y="880" on="0"/>
        <pt x="1339" y="696" on="0"/>
        <pt x="1339" y="600" on="1"/>
        <pt x="1339" y="592" on="1"/>
        <pt x="1383" y="597" on="0"/>
        <pt x="1445" y="609" on="0"/>
        <pt x="1484" y="620" on="0"/>
        <pt x="1502" y="627" on="0"/>
        <pt x="1503" y="627" on="1"/>
        <pt x="1516" y="590" on="1"/>
        <pt x="1511" y="587" on="0"/>
        <pt x="1426" y="562" on="0"/>
        <pt x="1339" y="551" on="1"/>
        <pt x="1340" y="505" on="0"/>
        <pt x="1346" y="393" on="0"/>
        <pt x="1355" y="275" on="0"/>
        <pt x="1369" y="156" on="0"/>
        <pt x="1387" y="49" on="0"/>
        <pt x="1411" y="-38" on="0"/>
        <pt x="1425" y="-66" on="1"/>
        <pt x="1395" y="-82" on="1"/>
        <pt x="1395" y="-83" on="0"/>
        <pt x="1372" y="-45" on="0"/>
        <pt x="1336" y="29" on="0"/>
        <pt x="1294" y="137" on="0"/>
        <pt x="1257" y="276" on="0"/>
        <pt x="1231" y="444" on="0"/>
        <pt x="1229" y="541" on="1"/>
        <pt x="1195" y="538" on="0"/>
        <pt x="1122" y="537" on="0"/>
        <pt x="1081" y="537" on="1"/>
        <pt x="1057" y="537" on="0"/>
        <pt x="993" y="540" on="0"/>
        <pt x="924" y="544" on="0"/>
        <pt x="855" y="547" on="0"/>
        <pt x="827" y="547" on="1"/>
        <pt x="767" y="547" on="0"/>
        <pt x="661" y="539" on="0"/>
        <pt x="614" y="532" on="1"/>
        <pt x="621" y="446" on="0"/>
        <pt x="629" y="279" on="0"/>
        <pt x="629" y="199" on="1"/>
        <pt x="629" y="104" on="0"/>
        <pt x="611" y="-70" on="0"/>
        <pt x="568" y="-222" on="0"/>
        <pt x="496" y="-346" on="0"/>
        <pt x="388" y="-435" on="0"/>
        <pt x="240" y="-483" on="0"/>
        <pt x="143" y="-483" on="1"/>
        <pt x="37" y="-483" on="0"/>
        <pt x="-156" y="-401" on="0"/>
        <pt x="-225" y="-324" on="1"/>
        <pt x="-197" y="-297" on="1"/>
        <pt x="-132" y="-368" on="0"/>
        <pt x="44" y="-444" on="0"/>
        <pt x="141" y="-444" on="1"/>
        <pt x="218" y="-444" on="0"/>
        <pt x="334" y="-401" on="0"/>
        <pt x="417" y="-326" on="0"/>
        <pt x="471" y="-224" on="0"/>
        <pt x="502" y="-103" on="0"/>
        <pt x="514" y="30" on="0"/>
        <pt x="514" y="98" on="1"/>
        <pt x="514" y="120" on="0"/>
        <pt x="509" y="202" on="0"/>
        <pt x="502" y="310" on="0"/>
        <pt x="493" y="439" on="0"/>
        <pt x="489" y="508" on="1"/>
        <pt x="443" y="497" on="0"/>
        <pt x="373" y="474" on="0"/>
        <pt x="350" y="464" on="1"/>
        <pt x="323" y="453" on="0"/>
        <pt x="303" y="442" on="1"/>
      </contour>
      <contour>
        <pt x="854" y="1550" on="1"/>
        <pt x="804" y="1550" on="0"/>
        <pt x="702" y="1446" on="0"/>
        <pt x="662" y="1352" on="1"/>
        <pt x="705" y="1364" on="0"/>
        <pt x="787" y="1396" on="0"/>
        <pt x="849" y="1436" on="0"/>
        <pt x="887" y="1486" on="0"/>
        <pt x="887" y="1516" on="1"/>
        <pt x="887" y="1528" on="0"/>
        <pt x="869" y="1550" on="0"/>
      </contour>
    </TTGlyph>
    <TTGlyph name="Hbar" xMin="-225" yMin="-483" xMax="1516" yMax="1589">
      <contour>
        <pt x="926" y="1522" on="1"/>
        <pt x="926" y="1477" on="0"/>
        <pt x="871" y="1407" on="0"/>
        <pt x="787" y="1355" on="0"/>
        <pt x="688" y="1318" on="0"/>
        <pt x="643" y="1307" on="1"/>
        <pt x="618" y="1239" on="0"/>
        <pt x="590" y="1071" on="0"/>
        <pt x="590" y="975" on="1"/>
        <pt x="590" y="952" on="0"/>
        <pt x="590" y="903" on="0"/>
        <pt x="592" y="879" on="1"/>
        <pt x="1260" y="879" on="1"/>
        <pt x="1284" y="1004" on="0"/>
        <pt x="1371" y="1240" on="0"/>
        <pt x="1430" y="1358" on="1"/>
        <pt x="1462" y="1343" on="1"/>
        <pt x="1461" y="1341" on="0"/>
        <pt x="1438" y="1269" on="0"/>
        <pt x="1405" y="1145" on="0"/>
        <pt x="1370" y="976" on="0"/>
        <pt x="1358" y="879" on="1"/>
        <pt x="1497" y="879" on="1"/>
        <pt x="1497" y="840" on="1"/>
        <pt x="1354" y="840" on="1"/>
        <pt x="1346" y="781" on="0"/>
        <pt x="1339" y="662" on="0"/>
        <pt x="1339" y="600" on="1"/>
        <pt x="1339" y="592" on="1"/>
        <pt x="1383" y="597" on="0"/>
        <pt x="1445" y="609" on="0"/>
        <pt x="1484" y="620" on="0"/>
        <pt x="1502" y="627" on="0"/>
        <pt x="1503" y="627" on="1"/>
        <pt x="1516" y="590" on="1"/>
        <pt x="1511" y="587" on="0"/>
        <pt x="1426" y="562" on="0"/>
        <pt x="1339" y="551" on="1"/>
        <pt x="1340" y="505" on="0"/>
        <pt x="1346" y="393" on="0"/>
        <pt x="1355" y="275" on="0"/>
        <pt x="1369" y="156" on="0"/>
        <pt x="1387" y="49" on="0"/>
        <pt x="1411" y="-38" on="0"/>
        <pt x="1425" y="-66" on="1"/>
        <pt x="1395" y="-82" on="1"/>
        <pt x="1395" y="-83" on="0"/>
        <pt x="1372" y="-45" on="0"/>
        <pt x="1336" y="29" on="0"/>
        <pt x="1294" y="137" on="0"/>
        <pt x="1257" y="276" on="0"/>
        <pt x="1231" y="444" on="0"/>
        <pt x="1229" y="541" on="1"/>
        <pt x="1195" y="538" on="0"/>
        <pt x="1122" y="537" on="0"/>
        <pt x="1081" y="537" on="1"/>
        <pt x="1057" y="537" on="0"/>
        <pt x="993" y="540" on="0"/>
        <pt x="924" y="544" on="0"/>
        <pt x="855" y="547" on="0"/>
        <pt x="827" y="547" on="1"/>
        <pt x="767" y="547" on="0"/>
        <pt x="661" y="539" on="0"/>
        <pt x="614" y="532" on="1"/>
        <pt x="621" y="446" on="0"/>
        <pt x="629" y="279" on="0"/>
        <pt x="629" y="199" on="1"/>
        <pt x="629" y="104" on="0"/>
        <pt x="611" y="-70" on="0"/>
        <pt x="568" y="-222" on="0"/>
        <pt x="496" y="-346" on="0"/>
        <pt x="388" y="-435" on="0"/>
        <pt x="240" y="-483" on="0"/>
        <pt x="143" y="-483" on="1"/>
        <pt x="37" y="-483" on="0"/>
        <pt x="-156" y="-401" on="0"/>
        <pt x="-225" y="-324" on="1"/>
        <pt x="-197" y="-297" on="1"/>
        <pt x="-132" y="-368" on="0"/>
        <pt x="44" y="-444" on="0"/>
        <pt x="141" y="-444" on="1"/>
        <pt x="218" y="-444" on="0"/>
        <pt x="334" y="-401" on="0"/>
        <pt x="417" y="-326" on="0"/>
        <pt x="471" y="-224" on="0"/>
        <pt x="502" y="-103" on="0"/>
        <pt x="514" y="30" on="0"/>
        <pt x="514" y="98" on="1"/>
        <pt x="514" y="120" on="0"/>
        <pt x="509" y="202" on="0"/>
        <pt x="502" y="310" on="0"/>
        <pt x="493" y="439" on="0"/>
        <pt x="489" y="508" on="1"/>
        <pt x="443" y="497" on="0"/>
        <pt x="373" y="474" on="0"/>
        <pt x="350" y="464" on="1"/>
        <pt x="323" y="453" on="0"/>
        <pt x="303" y="442" on="1"/>
        <pt x="289" y="481" on="1"/>
        <pt x="290" y="482" on="0"/>
        <pt x="318" y="496" on="0"/>
        <pt x="368" y="517" on="0"/>
        <pt x="440" y="541" on="0"/>
        <pt x="487" y="553" on="1"/>
        <pt x="482" y="627" on="0"/>
        <pt x="479" y="772" on="0"/>
        <pt x="479" y="840" on="1"/>
        <pt x="311" y="840" on="1"/>
        <pt x="311" y="879" on="1"/>
        <pt x="479" y="879" on="1"/>
        <pt x="482" y="1010" on="0"/>
        <pt x="520" y="1213" on="0"/>
        <pt x="549" y="1288" on="1"/>
        <pt x="545" y="1288" on="1"/>
        <pt x="435" y="1273" on="0"/>
        <pt x="261" y="1241" on="0"/>
        <pt x="125" y="1190" on="0"/>
        <pt x="24" y="1114" on="0"/>
        <pt x="-12" y="1055" on="1"/>
        <pt x="-49" y="1069" on="1"/>
        <pt x="-5" y="1147" on="0"/>
        <pt x="125" y="1236" on="0"/>
        <pt x="281" y="1288" on="0"/>
        <pt x="457" y="1314" on="0"/>
        <pt x="547" y="1329" on="1"/>
        <pt x="552" y="1329" on="0"/>
        <pt x="562" y="1331" on="0"/>
        <pt x="567" y="1333" on="1"/>
        <pt x="603" y="1408" on="0"/>
        <pt x="686" y="1507" on="0"/>
        <pt x="765" y="1566" on="0"/>
        <pt x="830" y="1589" on="0"/>
        <pt x="848" y="1589" on="1"/>
        <pt x="886" y="1589" on="0"/>
        <pt x="926" y="1546" on="0"/>
      </contour>
      <contour>
        <pt x="592" y="840" on="1"/>
        <pt x="595" y="777" on="0"/>
        <pt x="605" y="646" on="0"/>
        <pt x="610" y="578" on="1"/>
        <pt x="651" y="583" on="0"/>
        <pt x="742" y="590" on="0"/>
        <pt x="793" y="590" on="1"/>
        <pt x="819" y="590" on="0"/>
        <pt x="904" y="587" on="0"/>
        <pt x="994" y="583" on="0"/>
        <pt x="1074" y="580" on="0"/>
        <pt x="1096" y="580" on="1"/>
        <pt x="1133" y="580" on="0"/>
        <pt x="1200" y="582" on="0"/>
        <pt x="1229" y="584" on="1"/>
        <pt x="1229" y="649" on="0"/>
        <pt x="1240" y="777" on="0"/>
        <pt x="1251" y="840" on="1"/>
      </contour>
      <contour>
        <pt x="854" y="1550" on="1"/>
        <pt x="804" y="1550" on="0"/>
        <pt x="702" y="1446" on="0"/>
        <pt x="662" y="1352" on="1"/>
        <pt x="705" y="1364" on="0"/>
        <pt x="787" y="1396" on="0"/>
        <pt x="849" y="1436" on="0"/>
        <pt x="887" y="1486" on="0"/>
        <pt x="887" y="1516" on="1"/>
        <pt x="887" y="1528" on="0"/>
        <pt x="869" y="1550" on="0"/>
      </contour>
    </TTGlyph>
    <TTGlyph name="Hcircumflex" xMin="-225" yMin="-483" xMax="1516" yMax="1859">
      <component glyphName="H" x="0" y="0" flags="0x204"/>
      <component glyphName="circumflex" x="772" y="821" flags="0x4"/>
    </TTGlyph>
    <TTGlyph name="I" xMin="82" yMin="-104" xMax="1212" yMax="1415">
      <contour>
        <pt x="303" y="59" on="1"/>
        <pt x="338" y="78" on="1"/>
        <pt x="342" y="69" on="0"/>
        <pt x="369" y="23" on="0"/>
        <pt x="425" y="-25" on="0"/>
        <pt x="517" y="-61" on="0"/>
        <pt x="588" y="-61" on="1"/>
        <pt x="677" y="-61" on="0"/>
        <pt x="857" y="36" on="0"/>
        <pt x="1003" y="238" on="0"/>
        <pt x="1094" y="547" on="0"/>
        <pt x="1094" y="760" on="1"/>
        <pt x="1094" y="835" on="0"/>
        <pt x="1067" y="984" on="0"/>
        <pt x="1012" y="1120" on="0"/>
        <pt x="932" y="1237" on="0"/>
        <pt x="826" y="1323" on="0"/>
        <pt x="695" y="1372" on="0"/>
        <pt x="618" y="1372" on="1"/>
        <pt x="550" y="1372" on="0"/>
        <pt x="398" y="1319" on="0"/>
        <pt x="271" y="1208" on="0"/>
        <pt x="188" y="1035" on="0"/>
        <pt x="188" y="915" on="1"/>
        <pt x="188" y="820" on="0"/>
        <pt x="225" y="680" on="0"/>
        <pt x="286" y="579" on="0"/>
        <pt x="367" y="514" on="0"/>
        <pt x="455" y="476" on="0"/>
        <pt x="545" y="461" on="0"/>
        <pt x="584" y="461" on="1"/>
        <pt x="639" y="461" on="0"/>
        <pt x="734" y="493" on="0"/>
        <pt x="807" y="534" on="0"/>
        <pt x="855" y="573" on="0"/>
        <pt x="864" y="580" on="1"/>
        <pt x="891" y="551" on="1"/>
        <pt x="809" y="483" on="0"/>
        <pt x="639" y="416" on="0"/>
        <pt x="537" y="416" on="1"/>
        <pt x="450" y="416" on="0"/>
        <pt x="286" y="469" on="0"/>
        <pt x="159" y="584" on="0"/>
        <pt x="82" y="764" on="0"/>
        <pt x="82" y="891" on="1"/>
        <pt x="82" y="967" on="0"/>
        <pt x="125" y="1104" on="0"/>
        <pt x="200" y="1221" on="0"/>
        <pt x="302" y="1314" on="0"/>
        <pt x="420" y="1380" on="0"/>
        <pt x="548" y="1415" on="0"/>
        <pt x="612" y="1415" on="1"/>
        <pt x="665" y="1415" on="0"/>
        <pt x="796" y="1394" on="0"/>
        <pt x="929" y="1337" on="0"/>
        <pt x="1055" y="1236" on="0"/>
        <pt x="1153" y="1079" on="0"/>
        <pt x="1212" y="856" on="0"/>
        <pt x="1212" y="705" on="1"/>
        <pt x="1212" y="581" on="0"/>
        <pt x="1161" y="365" on="0"/>
        <pt x="1074" y="185" on="0"/>
        <pt x="955" y="44" on="0"/>
        <pt x="819" y="-53" on="0"/>
        <pt x="672" y="-104" on="0"/>
        <pt x="600" y="-104" on="1"/>
        <pt x="561" y="-104" on="0"/>
        <pt x="475" y="-90" on="0"/>
        <pt x="394" y="-54" on="0"/>
        <pt x="325" y="9" on="0"/>
      </contour>
    </TTGlyph>
    <TTGlyph name="IJ" xMin="82" yMin="-807" xMax="2527" yMax="1604">
      <component glyphName="I" x="0" y="0" flags="0x4"/>
      <component glyphName="J" x="1294" y="0" flags="0x4"/>
    </TTGlyph>
    <TTGlyph name="Iacute" xMin="82" yMin="-104" xMax="1212" yMax="1704">
      <component glyphName="I" x="0" y="0" flags="0x204"/>
      <component glyphName="acute" x="307" y="662" flags="0x4"/>
    </TTGlyph>
    <TTGlyph name="Ibreve" xMin="82" yMin="-104" xMax="1212" yMax="1672">
      <component glyphName="I" x="0" y="0" flags="0x204"/>
      <component glyphName="breve" x="309" y="662" flags="0x4"/>
    </TTGlyph>
    <TTGlyph name="Icircumflex" xMin="82" yMin="-104" xMax="1212" yMax="1700">
      <component glyphName="I" x="0" y="0" flags="0x204"/>
      <component glyphName="circumflex" x="307" y="662" flags="0x4"/>
    </TTGlyph>
    <TTGlyph name="Idieresis" xMin="82" yMin="-104" xMax="1212" yMax="1623">
      <component glyphName="I" x="0" y="0" flags="0x204"/>
      <component glyphName="dieresis" x="307" y="662" flags="0x4"/>
    </TTGlyph>
    <TTGlyph name="Idotaccent" xMin="82" yMin="-104" xMax="1212" yMax="1629">
      <component glyphName="I" x="0" y="0" flags="0x204"/>
      <component glyphName="dotaccent" x="307" y="662" flags="0x4"/>
    </TTGlyph>
    <TTGlyph name="Igrave" xMin="82" yMin="-104" xMax="1212" yMax="1704">
      <component glyphName="I" x="0" y="0" flags="0x204"/>
      <component glyphName="grave" x="307" y="662" flags="0x4"/>
    </TTGlyph>
    <TTGlyph name="Imacron" xMin="82" yMin="-104" xMax="1212" yMax="1594">
      <component glyphName="I" x="0" y="0" flags="0x204"/>
      <component glyphName="macron" x="307" y="662" flags="0x4"/>
    </TTGlyph>
    <TTGlyph name="Iogonek" xMin="82" yMin="-352" xMax="1212" yMax="1415">
      <contour>
        <pt x="756" y="-305" on="1"/>
        <pt x="731" y="-321" on="0"/>
        <pt x="661" y="-352" on="0"/>
        <pt x="621" y="-352" on="1"/>
        <pt x="601" y="-352" on="0"/>
        <pt x="563" y="-344" on="0"/>
        <pt x="531" y="-323" on="0"/>
        <pt x="512" y="-288" on="0"/>
        <pt x="512" y="-260" on="1"/>
        <pt x="512" y="-236" on="0"/>
        <pt x="533" y="-191" on="0"/>
        <pt x="565" y="-151" on="0"/>
        <pt x="604" y="-117" on="0"/>
        <pt x="621" y="-102" on="1"/>
        <pt x="616" y="-102" on="0"/>
        <pt x="605" y="-104" on="0"/>
        <pt x="600" y="-104" on="1"/>
        <pt x="561" y="-104" on="0"/>
        <pt x="475" y="-90" on="0"/>
        <pt x="394" y="-54" on="0"/>
        <pt x="325" y="9" on="0"/>
        <pt x="303" y="59" on="1"/>
        <pt x="338" y="78" on="1"/>
        <pt x="342" y="69" on="0"/>
        <pt x="369" y="23" on="0"/>
        <pt x="425" y="-25" on="0"/>
        <pt x="517" y="-61" on="0"/>
        <pt x="588" y="-61" on="1"/>
        <pt x="677" y="-61" on="0"/>
        <pt x="857" y="36" on="0"/>
        <pt x="1003" y="238" on="0"/>
        <pt x="1094" y="547" on="0"/>
        <pt x="1094" y="760" on="1"/>
        <pt x="1094" y="835" on="0"/>
        <pt x="1067" y="984" on="0"/>
        <pt x="1012" y="1120" on="0"/>
        <pt x="932" y="1237" on="0"/>
        <pt x="826" y="1323" on="0"/>
        <pt x="695" y="1372" on="0"/>
        <pt x="618" y="1372" on="1"/>
        <pt x="550" y="1372" on="0"/>
        <pt x="398" y="1319" on="0"/>
        <pt x="271" y="1208" on="0"/>
        <pt x="188" y="1035" on="0"/>
        <pt x="188" y="915" on="1"/>
        <pt x="188" y="820" on="0"/>
        <pt x="225" y="680" on="0"/>
        <pt x="286" y="579" on="0"/>
        <pt x="367" y="514" on="0"/>
        <pt x="455" y="476" on="0"/>
        <pt x="545" y="461" on="0"/>
        <pt x="584" y="461" on="1"/>
        <pt x="639" y="461" on="0"/>
        <pt x="734" y="493" on="0"/>
        <pt x="807" y="534" on="0"/>
        <pt x="855" y="573" on="0"/>
        <pt x="864" y="580" on="1"/>
        <pt x="891" y="551" on="1"/>
        <pt x="809" y="483" on="0"/>
        <pt x="639" y="416" on="0"/>
        <pt x="537" y="416" on="1"/>
        <pt x="450" y="416" on="0"/>
        <pt x="286" y="469" on="0"/>
        <pt x="159" y="584" on="0"/>
        <pt x="82" y="764" on="0"/>
        <pt x="82" y="891" on="1"/>
        <pt x="82" y="967" on="0"/>
        <pt x="125" y="1104" on="0"/>
        <pt x="200" y="1221" on="0"/>
        <pt x="302" y="1314" on="0"/>
        <pt x="420" y="1380" on="0"/>
        <pt x="548" y="1415" on="0"/>
        <pt x="612" y="1415" on="1"/>
        <pt x="665" y="1415" on="0"/>
        <pt x="796" y="1394" on="0"/>
        <pt x="929" y="1337" on="0"/>
        <pt x="1055" y="1236" on="0"/>
        <pt x="1153" y="1079" on="0"/>
        <pt x="1212" y="856" on="0"/>
        <pt x="1212" y="705" on="1"/>
        <pt x="1212" y="590" on="0"/>
        <pt x="1168" y="388" on="0"/>
        <pt x="1092" y="216" on="0"/>
        <pt x="987" y="77" on="0"/>
        <pt x="865" y="-25" on="0"/>
        <pt x="731" y="-88" on="0"/>
        <pt x="664" y="-98" on="1"/>
        <pt x="649" y="-113" on="0"/>
        <pt x="616" y="-149" on="0"/>
        <pt x="588" y="-186" on="0"/>
        <pt x="569" y="-226" on="0"/>
        <pt x="569" y="-246" on="1"/>
        <pt x="569" y="-264" on="0"/>
        <pt x="581" y="-288" on="0"/>
        <pt x="600" y="-303" on="0"/>
        <pt x="623" y="-309" on="0"/>
        <pt x="635" y="-309" on="1"/>
        <pt x="669" y="-309" on="0"/>
        <pt x="733" y="-289" on="0"/>
        <pt x="745" y="-281" on="1"/>
      </contour>
    </TTGlyph>
    <TTGlyph name="Itilde" xMin="82" yMin="-104" xMax="1212" yMax="1651">
      <component glyphName="I" x="0" y="0" flags="0x204"/>
      <component glyphName="tilde" x="307" y="662" flags="0x4"/>
    </TTGlyph>
    <TTGlyph name="J" xMin="0" yMin="-807" xMax="1233" yMax="1604">
      <contour>
        <pt x="1180" y="1604" on="1"/>
        <pt x="1208" y="1604" on="0"/>
        <pt x="1233" y="1568" on="0"/>
        <pt x="1233" y="1546" on="1"/>
        <pt x="1233" y="1515" on="0"/>
        <pt x="1188" y="1440" on="0"/>
        <pt x="1112" y="1366" on="0"/>
        <pt x="1010" y="1299" on="0"/>
        <pt x="952" y="1276" on="1"/>
        <pt x="918" y="1179" on="0"/>
        <pt x="877" y="912" on="0"/>
        <pt x="877" y="735" on="1"/>
        <pt x="877" y="628" on="0"/>
        <pt x="893" y="417" on="0"/>
        <pt x="912" y="215" on="0"/>
        <pt x="928" y="21" on="0"/>
        <pt x="928" y="-70" on="1"/>
        <pt x="928" y="-153" on="0"/>
        <pt x="905" y="-327" on="0"/>
        <pt x="855" y="-491" on="0"/>
        <pt x="775" y="-636" on="0"/>
        <pt x="661" y="-744" on="0"/>
        <pt x="511" y="-807" on="0"/>
        <pt x="416" y="-807" on="1"/>
        <pt x="331" y="-807" on="0"/>
        <pt x="185" y="-751" on="0"/>
        <pt x="75" y="-653" on="0"/>
        <pt x="7" y="-520" on="0"/>
        <pt x="0" y="-444" on="1"/>
        <pt x="66" y="-424" on="1"/>
        <pt x="72" y="-492" on="0"/>
        <pt x="125" y="-617" on="0"/>
        <pt x="215" y="-712" on="0"/>
        <pt x="339" y="-768" on="0"/>
        <pt x="416" y="-768" on="1"/>
        <pt x="491" y="-768" on="0"/>
        <pt x="610" y="-727" on="0"/>
        <pt x="702" y="-657" on="0"/>
        <pt x="767" y="-562" on="0"/>
        <pt x="809" y="-455" on="0"/>
        <pt x="829" y="-340" on="0"/>
        <pt x="829" y="-285" on="1"/>
        <pt x="829" y="-163" on="0"/>
        <pt x="803" y="75" on="0"/>
        <pt x="771" y="309" on="0"/>
        <pt x="745" y="540" on="0"/>
        <pt x="745" y="657" on="1"/>
        <pt x="745" y="832" on="0"/>
        <pt x="819" y="1133" on="0"/>
        <pt x="874" y="1251" on="1"/>
        <pt x="721" y="1208" on="0"/>
        <pt x="484" y="1120" on="0"/>
        <pt x="322" y="996" on="0"/>
        <pt x="238" y="822" on="0"/>
        <pt x="238" y="694" on="1"/>
        <pt x="238" y="616" on="0"/>
        <pt x="274" y="498" on="0"/>
        <pt x="333" y="411" on="0"/>
        <pt x="408" y="352" on="0"/>
        <pt x="484" y="314" on="0"/>
        <pt x="556" y="294" on="0"/>
        <pt x="582" y="289" on="1"/>
        <pt x="575" y="264" on="1"/>
        <pt x="491" y="268" on="0"/>
        <pt x="325" y="329" on="0"/>
        <pt x="194" y="441" on="0"/>
        <pt x="113" y="604" on="0"/>
        <pt x="113" y="711" on="1"/>
        <pt x="113" y="828" on="0"/>
        <pt x="206" y="1006" on="0"/>
        <pt x="389" y="1142" on="0"/>
        <pt x="661" y="1243" on="0"/>
        <pt x="840" y="1284" on="1"/>
        <pt x="855" y="1287" on="0"/>
        <pt x="884" y="1295" on="0"/>
        <pt x="899" y="1300" on="1"/>
        <pt x="935" y="1371" on="0"/>
        <pt x="1014" y="1484" on="0"/>
        <pt x="1089" y="1562" on="0"/>
        <pt x="1156" y="1604" on="0"/>
      </contour>
      <contour>
        <pt x="1180" y="1565" on="1"/>
        <pt x="1160" y="1565" on="0"/>
        <pt x="1110" y="1538" on="0"/>
        <pt x="1054" y="1481" on="0"/>
        <pt x="998" y="1391" on="0"/>
        <pt x="973" y="1329" on="1"/>
        <pt x="1026" y="1354" on="0"/>
        <pt x="1108" y="1413" on="0"/>
        <pt x="1163" y="1472" on="0"/>
        <pt x="1192" y="1526" on="0"/>
        <pt x="1192" y="1546" on="1"/>
        <pt x="1192" y="1552" on="0"/>
        <pt x="1189" y="1565" on="0"/>
      </contour>
    </TTGlyph>
    <TTGlyph name="Jcircumflex" xMin="0" yMin="-807" xMax="1233" yMax="1677">
      <component glyphName="J" x="0" y="0" flags="0x204"/>
      <component glyphName="circumflex" x="346" y="639" flags="0x4"/>
    </TTGlyph>
    <TTGlyph name="K" xMin="-82" yMin="-379" xMax="1800" yMax="1518">
      <contour>
        <pt x="944" y="1511" on="1"/>
        <pt x="972" y="1511" on="0"/>
        <pt x="1008" y="1480" on="0"/>
        <pt x="1008" y="1452" on="1"/>
        <pt x="1008" y="1413" on="0"/>
        <pt x="951" y="1349" on="0"/>
        <pt x="866" y="1299" on="0"/>
        <pt x="766" y="1263" on="0"/>
        <pt x="723" y="1253" on="1"/>
        <pt x="698" y="1190" on="0"/>
        <pt x="668" y="1020" on="0"/>
        <pt x="668" y="905" on="1"/>
        <pt x="668" y="831" on="0"/>
        <pt x="672" y="669" on="0"/>
        <pt x="674" y="584" on="1"/>
        <pt x="730" y="562" on="0"/>
        <pt x="824" y="497" on="0"/>
        <pt x="866" y="455" on="1"/>
        <pt x="967" y="478" on="0"/>
        <pt x="1128" y="572" on="0"/>
        <pt x="1249" y="704" on="0"/>
        <pt x="1331" y="866" on="0"/>
        <pt x="1354" y="956" on="1"/>
        <pt x="1383" y="1074" on="0"/>
        <pt x="1459" y="1246" on="0"/>
        <pt x="1542" y="1368" on="0"/>
        <pt x="1628" y="1446" on="0"/>
        <pt x="1705" y="1493" on="0"/>
        <pt x="1769" y="1514" on="0"/>
        <pt x="1788" y="1518" on="1"/>
        <pt x="1800" y="1491" on="1"/>
        <pt x="1726" y="1473" on="0"/>
        <pt x="1619" y="1369" on="0"/>
        <pt x="1542" y="1225" on="0"/>
        <pt x="1491" y="1056" on="0"/>
        <pt x="1473" y="975" on="1"/>
        <pt x="1440" y="831" on="0"/>
        <pt x="1325" y="630" on="0"/>
        <pt x="1177" y="497" on="0"/>
        <pt x="1003" y="423" on="0"/>
        <pt x="909" y="408" on="1"/>
        <pt x="968" y="339" on="0"/>
        <pt x="1070" y="178" on="0"/>
        <pt x="1164" y="17" on="0"/>
        <pt x="1258" y="-133" on="0"/>
        <pt x="1362" y="-248" on="0"/>
        <pt x="1481" y="-317" on="0"/>
        <pt x="1554" y="-317" on="1"/>
        <pt x="1577" y="-317" on="0"/>
        <pt x="1627" y="-310" on="0"/>
        <pt x="1655" y="-301" on="1"/>
        <pt x="1667" y="-330" on="1"/>
        <pt x="1666" y="-331" on="0"/>
        <pt x="1636" y="-346" on="0"/>
        <pt x="1585" y="-364" on="0"/>
        <pt x="1517" y="-379" on="0"/>
        <pt x="1477" y="-379" on="1"/>
        <pt x="1375" y="-379" on="0"/>
        <pt x="1227" y="-296" on="0"/>
        <pt x="1117" y="-159" on="0"/>
        <pt x="1032" y="18" on="0"/>
        <pt x="993" y="113" on="1"/>
        <pt x="955" y="202" on="0"/>
        <pt x="880" y="344" on="0"/>
        <pt x="838" y="399" on="1"/>
        <pt x="810" y="396" on="0"/>
        <pt x="755" y="395" on="0"/>
        <pt x="727" y="395" on="1"/>
        <pt x="678" y="395" on="1"/>
        <pt x="678" y="383" on="1"/>
        <pt x="678" y="293" on="0"/>
        <pt x="662" y="124" on="0"/>
        <pt x="623" y="-24" on="0"/>
        <pt x="555" y="-148" on="0"/>
        <pt x="452" y="-236" on="0"/>
        <pt x="309" y="-285" on="0"/>
        <pt x="213" y="-285" on="1"/>
        <pt x="132" y="-285" on="0"/>
        <pt x="-19" y="-236" on="0"/>
        <pt x="-82" y="-186" on="1"/>
        <pt x="-57" y="-156" on="1"/>
        <pt x="-2" y="-201" on="0"/>
        <pt x="137" y="-246" on="0"/>
        <pt x="209" y="-246" on="1"/>
        <pt x="291" y="-246" on="0"/>
        <pt x="407" y="-192" on="0"/>
        <pt x="484" y="-101" on="0"/>
        <pt x="530" y="19" on="0"/>
        <pt x="553" y="152" on="0"/>
        <pt x="559" y="290" on="0"/>
        <pt x="559" y="352" on="1"/>
        <pt x="559" y="406" on="1"/>
        <pt x="494" y="416" on="0"/>
        <pt x="417" y="450" on="0"/>
        <pt x="377" y="486" on="0"/>
        <pt x="365" y="519" on="0"/>
        <pt x="365" y="530" on="1"/>
        <pt x="365" y="553" on="0"/>
        <pt x="386" y="587" on="0"/>
        <pt x="421" y="608" on="0"/>
        <pt x="469" y="618" on="0"/>
        <pt x="496" y="618" on="1"/>
        <pt x="511" y="618" on="0"/>
        <pt x="542" y="616" on="0"/>
        <pt x="557" y="614" on="1"/>
        <pt x="557" y="668" on="1"/>
        <pt x="557" y="864" on="0"/>
        <pt x="615" y="1146" on="0"/>
        <pt x="659" y="1241" on="1"/>
        <pt x="588" y="1233" on="0"/>
        <pt x="450" y="1230" on="0"/>
        <pt x="316" y="1208" on="0"/>
        <pt x="188" y="1153" on="0"/>
        <pt x="129" y="1094" on="1"/>
        <pt x="98" y="1118" on="1"/>
        <pt x="156" y="1178" on="0"/>
        <pt x="277" y="1240" on="0"/>
        <pt x="405" y="1267" on="0"/>
        <pt x="542" y="1273" on="0"/>
        <pt x="618" y="1278" on="1"/>
        <pt x="632" y="1278" on="0"/>
        <pt x="663" y="1282" on="0"/>
        <pt x="680" y="1284" on="1"/>
        <pt x="716" y="1351" on="0"/>
        <pt x="795" y="1439" on="0"/>
        <pt x="868" y="1491" on="0"/>
        <pt x="928" y="1511" on="0"/>
      </contour>
      <contour>
        <pt x="944" y="1473" on="1"/>
        <pt x="933" y="1473" on="0"/>
        <pt x="888" y="1458" on="0"/>
        <pt x="831" y="1419" on="0"/>
        <pt x="770" y="1350" on="0"/>
        <pt x="743" y="1296" on="1"/>
        <pt x="785" y="1307" on="0"/>
        <pt x="866" y="1337" on="0"/>
        <pt x="930" y="1376" on="0"/>
        <pt x="969" y="1423" on="0"/>
        <pt x="969" y="1450" on="1"/>
        <pt x="969" y="1458" on="0"/>
        <pt x="958" y="1473" on="0"/>
      </contour>
      <contour>
        <pt x="494" y="580" on="1"/>
        <pt x="443" y="580" on="0"/>
        <pt x="406" y="549" on="0"/>
        <pt x="406" y="532" on="1"/>
        <pt x="406" y="506" on="0"/>
        <pt x="487" y="457" on="0"/>
        <pt x="559" y="444" on="1"/>
        <pt x="559" y="478" on="0"/>
        <pt x="557" y="543" on="0"/>
        <pt x="557" y="575" on="1"/>
        <pt x="542" y="577" on="0"/>
        <pt x="509" y="580" on="0"/>
      </contour>
      <contour>
        <pt x="801" y="442" on="1"/>
        <pt x="772" y="473" on="0"/>
        <pt x="710" y="522" on="0"/>
        <pt x="676" y="539" on="1"/>
        <pt x="676" y="513" on="0"/>
        <pt x="678" y="460" on="0"/>
        <pt x="678" y="434" on="1"/>
        <pt x="680" y="434" on="1"/>
        <pt x="712" y="434" on="0"/>
        <pt x="772" y="437" on="0"/>
      </contour>
    </TTGlyph>
    <TTGlyph name="Kcommaaccent" xMin="-82" yMin="-511" xMax="1800" yMax="1518">
      <component glyphName="K" x="0" y="0" flags="0x204"/>
      <component glyphName="commaaccent" x="487" y="-224" flags="0x4"/>
    </TTGlyph>
    <TTGlyph name="L" xMin="0" yMin="-135" xMax="1501" yMax="1509">
      <contour>
        <pt x="213" y="-92" on="1"/>
        <pt x="165" y="-92" on="0"/>
        <pt x="87" y="-65" on="0"/>
        <pt x="31" y="-17" on="0"/>
        <pt x="0" y="48" on="0"/>
        <pt x="0" y="86" on="1"/>
        <pt x="0" y="173" on="0"/>
        <pt x="121" y="272" on="0"/>
        <pt x="227" y="272" on="1"/>
        <pt x="303" y="272" on="0"/>
        <pt x="429" y="231" on="0"/>
        <pt x="483" y="199" on="1"/>
        <pt x="496" y="252" on="0"/>
        <pt x="496" y="319" on="1"/>
        <pt x="496" y="388" on="0"/>
        <pt x="484" y="521" on="0"/>
        <pt x="469" y="652" on="0"/>
        <pt x="457" y="780" on="0"/>
        <pt x="457" y="844" on="1"/>
        <pt x="457" y="988" on="0"/>
        <pt x="513" y="1199" on="0"/>
        <pt x="604" y="1347" on="0"/>
        <pt x="721" y="1439" on="0"/>
        <pt x="843" y="1491" on="0"/>
        <pt x="960" y="1509" on="0"/>
        <pt x="1006" y="1509" on="1"/>
        <pt x="1075" y="1509" on="0"/>
        <pt x="1186" y="1463" on="0"/>
        <pt x="1265" y="1387" on="0"/>
        <pt x="1307" y="1290" on="0"/>
        <pt x="1307" y="1239" on="1"/>
        <pt x="1307" y="1193" on="0"/>
        <pt x="1285" y="1111" on="0"/>
        <pt x="1258" y="1048" on="0"/>
        <pt x="1234" y="1010" on="0"/>
        <pt x="1233" y="1008" on="1"/>
        <pt x="1202" y="1030" on="1"/>
        <pt x="1220" y="1057" on="0"/>
        <pt x="1235" y="1090" on="1"/>
        <pt x="1247" y="1118" on="0"/>
        <pt x="1268" y="1190" on="0"/>
        <pt x="1268" y="1231" on="1"/>
        <pt x="1268" y="1281" on="0"/>
        <pt x="1231" y="1368" on="0"/>
        <pt x="1164" y="1433" on="0"/>
        <pt x="1068" y="1470" on="0"/>
        <pt x="1008" y="1470" on="1"/>
        <pt x="903" y="1470" on="0"/>
        <pt x="739" y="1383" on="0"/>
        <pt x="627" y="1244" on="0"/>
        <pt x="569" y="1071" on="0"/>
        <pt x="569" y="985" on="1"/>
        <pt x="569" y="928" on="0"/>
        <pt x="579" y="804" on="0"/>
        <pt x="590" y="673" on="0"/>
        <pt x="600" y="537" on="0"/>
        <pt x="600" y="469" on="1"/>
        <pt x="600" y="378" on="0"/>
        <pt x="575" y="221" on="0"/>
        <pt x="549" y="156" on="1"/>
        <pt x="604" y="115" on="0"/>
        <pt x="708" y="27" on="0"/>
        <pt x="817" y="-47" on="0"/>
        <pt x="938" y="-94" on="0"/>
        <pt x="1010" y="-94" on="1"/>
        <pt x="1103" y="-94" on="0"/>
        <pt x="1258" y="-15" on="0"/>
        <pt x="1370" y="111" on="0"/>
        <pt x="1432" y="267" on="0"/>
        <pt x="1432" y="344" on="1"/>
        <pt x="1432" y="372" on="0"/>
        <pt x="1416" y="448" on="0"/>
        <pt x="1395" y="479" on="1"/>
        <pt x="1419" y="498" on="1"/>
        <pt x="1420" y="496" on="0"/>
        <pt x="1446" y="463" on="0"/>
        <pt x="1476" y="404" on="0"/>
        <pt x="1501" y="322" on="0"/>
        <pt x="1501" y="270" on="1"/>
        <pt x="1501" y="196" on="0"/>
        <pt x="1447" y="51" on="0"/>
        <pt x="1335" y="-64" on="0"/>
        <pt x="1162" y="-135" on="0"/>
        <pt x="1044" y="-135" on="1"/>
        <pt x="951" y="-135" on="0"/>
        <pt x="809" y="-86" on="0"/>
        <pt x="692" y="-10" on="0"/>
        <pt x="589" y="80" on="0"/>
        <pt x="535" y="121" on="1"/>
        <pt x="487" y="21" on="0"/>
        <pt x="328" y="-92" on="0"/>
      </contour>
      <contour>
        <pt x="225" y="-53" on="1"/>
        <pt x="322" y="-53" on="0"/>
        <pt x="447" y="63" on="0"/>
        <pt x="475" y="162" on="1"/>
        <pt x="424" y="193" on="0"/>
        <pt x="306" y="233" on="0"/>
        <pt x="231" y="233" on="1"/>
        <pt x="216" y="233" on="0"/>
        <pt x="165" y="223" on="0"/>
        <pt x="116" y="193" on="0"/>
        <pt x="80" y="136" on="0"/>
        <pt x="80" y="88" on="1"/>
        <pt x="80" y="56" on="0"/>
        <pt x="103" y="5" on="0"/>
        <pt x="142" y="-33" on="0"/>
        <pt x="195" y="-53" on="0"/>
      </contour>
    </TTGlyph>
    <TTGlyph name="Lacute" xMin="0" yMin="-135" xMax="1501" yMax="1796">
      <component glyphName="L" x="0" y="0" flags="0x204"/>
      <component glyphName="acute" x="672" y="754" flags="0x4"/>
    </TTGlyph>
    <TTGlyph name="Lcaron" xMin="0" yMin="-135" xMax="1544" yMax="1509">
      <component glyphName="L" x="0" y="0" flags="0x204"/>
      <component glyphName="commaaccent" x="1182" y="1489" flags="0x4"/>
    </TTGlyph>
    <TTGlyph name="Lcommaaccent" xMin="0" yMin="-409" xMax="1501" yMax="1509">
      <component glyphName="L" x="0" y="0" flags="0x204"/>
      <component glyphName="commaaccent" x="500" y="-122" flags="0x4"/>
    </TTGlyph>
    <TTGlyph name="Ldot" xMin="0" yMin="-135" xMax="1665" yMax="1509">
      <component glyphName="L" x="0" y="0" flags="0x4"/>
      <component glyphName="periodcentered" x="1434" y="20" flags="0x4"/>
    </TTGlyph>
    <TTGlyph name="Lslash" xMin="0" yMin="-135" xMax="1501" yMax="1509">
      <contour>
        <pt x="238" y="461" on="1"/>
        <pt x="481" y="539" on="1"/>
        <pt x="472" y="616" on="0"/>
        <pt x="457" y="768" on="0"/>
        <pt x="457" y="844" on="1"/>
        <pt x="457" y="988" on="0"/>
        <pt x="513" y="1199" on="0"/>
        <pt x="604" y="1347" on="0"/>
        <pt x="721" y="1439" on="0"/>
        <pt x="843" y="1491" on="0"/>
        <pt x="960" y="1509" on="0"/>
        <pt x="1006" y="1509" on="1"/>
        <pt x="1075" y="1509" on="0"/>
        <pt x="1186" y="1463" on="0"/>
        <pt x="1265" y="1387" on="0"/>
        <pt x="1307" y="1290" on="0"/>
        <pt x="1307" y="1239" on="1"/>
        <pt x="1307" y="1193" on="0"/>
        <pt x="1285" y="1111" on="0"/>
        <pt x="1258" y="1048" on="0"/>
        <pt x="1234" y="1010" on="0"/>
        <pt x="1233" y="1008" on="1"/>
        <pt x="1202" y="1030" on="1"/>
        <pt x="1220" y="1057" on="0"/>
        <pt x="1235" y="1090" on="1"/>
        <pt x="1247" y="1118" on="0"/>
        <pt x="1268" y="1190" on="0"/>
        <pt x="1268" y="1231" on="1"/>
        <pt x="1268" y="1281" on="0"/>
        <pt x="1231" y="1368" on="0"/>
        <pt x="1164" y="1433" on="0"/>
        <pt x="1068" y="1470" on="0"/>
        <pt x="1008" y="1470" on="1"/>
        <pt x="903" y="1470" on="0"/>
        <pt x="739" y="1383" on="0"/>
        <pt x="627" y="1244" on="0"/>
        <pt x="569" y="1071" on="0"/>
        <pt x="569" y="985" on="1"/>
        <pt x="569" y="892" on="0"/>
        <pt x="590" y="685" on="0"/>
        <pt x="596" y="575" on="1"/>
        <pt x="971" y="694" on="1"/>
        <pt x="983" y="657" on="1"/>
        <pt x="598" y="537" on="1"/>
        <pt x="600" y="520" on="0"/>
        <pt x="600" y="486" on="0"/>
        <pt x="600" y="469" on="1"/>
        <pt x="600" y="378" on="0"/>
        <pt x="575" y="221" on="0"/>
        <pt x="549" y="156" on="1"/>
        <pt x="604" y="115" on="0"/>
        <pt x="708" y="27" on="0"/>
        <pt x="817" y="-47" on="0"/>
        <pt x="938" y="-94" on="0"/>
        <pt x="1010" y="-94" on="1"/>
        <pt x="1103" y="-94" on="0"/>
        <pt x="1258" y="-15" on="0"/>
        <pt x="1370" y="111" on="0"/>
        <pt x="1432" y="267" on="0"/>
        <pt x="1432" y="344" on="1"/>
        <pt x="1432" y="372" on="0"/>
        <pt x="1416" y="448" on="0"/>
        <pt x="1395" y="479" on="1"/>
        <pt x="1419" y="498" on="1"/>
        <pt x="1420" y="496" on="0"/>
        <pt x="1446" y="463" on="0"/>
        <pt x="1476" y="404" on="0"/>
        <pt x="1501" y="322" on="0"/>
        <pt x="1501" y="270" on="1"/>
        <pt x="1501" y="196" on="0"/>
        <pt x="1447" y="51" on="0"/>
        <pt x="1335" y="-64" on="0"/>
        <pt x="1162" y="-135" on="0"/>
        <pt x="1044" y="-135" on="1"/>
        <pt x="951" y="-135" on="0"/>
        <pt x="809" y="-86" on="0"/>
        <pt x="692" y="-10" on="0"/>
        <pt x="589" y="80" on="0"/>
        <pt x="535" y="121" on="1"/>
        <pt x="487" y="21" on="0"/>
        <pt x="328" y="-92" on="0"/>
        <pt x="213" y="-92" on="1"/>
        <pt x="165" y="-92" on="0"/>
        <pt x="87" y="-65" on="0"/>
        <pt x="31" y="-17" on="0"/>
        <pt x="0" y="48" on="0"/>
        <pt x="0" y="86" on="1"/>
        <pt x="0" y="173" on="0"/>
        <pt x="121" y="272" on="0"/>
        <pt x="227" y="272" on="1"/>
        <pt x="303" y="272" on="0"/>
        <pt x="429" y="231" on="0"/>
        <pt x="483" y="199" on="1"/>
        <pt x="496" y="252" on="0"/>
        <pt x="496" y="319" on="1"/>
        <pt x="496" y="366" on="0"/>
        <pt x="490" y="455" on="0"/>
        <pt x="485" y="500" on="1"/>
        <pt x="250" y="426" on="1"/>
      </contour>
      <contour>
        <pt x="225" y="-53" on="1"/>
        <pt x="322" y="-53" on="0"/>
        <pt x="447" y="63" on="0"/>
        <pt x="475" y="162" on="1"/>
        <pt x="424" y="193" on="0"/>
        <pt x="306" y="233" on="0"/>
        <pt x="231" y="233" on="1"/>
        <pt x="216" y="233" on="0"/>
        <pt x="165" y="223" on="0"/>
        <pt x="116" y="193" on="0"/>
        <pt x="80" y="136" on="0"/>
        <pt x="80" y="88" on="1"/>
        <pt x="80" y="56" on="0"/>
        <pt x="103" y="5" on="0"/>
        <pt x="142" y="-33" on="0"/>
        <pt x="195" y="-53" on="0"/>
      </contour>
    </TTGlyph>
    <TTGlyph name="M" xMin="0" yMin="-264" xMax="1423" yMax="1522">
      <contour>
        <pt x="1407" y="-264" on="1"/>
        <pt x="1406" y="-264" on="0"/>
        <pt x="1345" y="-255" on="0"/>
        <pt x="1254" y="-216" on="0"/>
        <pt x="1149" y="-139" on="0"/>
        <pt x="1059" y="-3" on="0"/>
        <pt x="999" y="202" on="0"/>
        <pt x="999" y="348" on="1"/>
        <pt x="999" y="403" on="0"/>
        <pt x="1011" y="556" on="0"/>
        <pt x="1032" y="730" on="0"/>
        <pt x="1057" y="916" on="0"/>
        <pt x="1084" y="1092" on="0"/>
        <pt x="1109" y="1250" on="0"/>
        <pt x="1118" y="1309" on="1"/>
        <pt x="1106" y="1261" on="0"/>
        <pt x="1077" y="1148" on="0"/>
        <pt x="1045" y="1023" on="0"/>
        <pt x="1012" y="891" on="0"/>
        <pt x="995" y="825" on="1"/>
        <pt x="978" y="757" on="0"/>
        <pt x="936" y="610" on="0"/>
        <pt x="884" y="467" on="0"/>
        <pt x="822" y="338" on="0"/>
        <pt x="746" y="240" on="0"/>
        <pt x="658" y="182" on="0"/>
        <pt x="606" y="182" on="1"/>
        <pt x="577" y="182" on="0"/>
        <pt x="525" y="204" on="0"/>
        <pt x="486" y="257" on="0"/>
        <pt x="463" y="346" on="0"/>
        <pt x="463" y="414" on="1"/>
        <pt x="463" y="454" on="0"/>
        <pt x="470" y="569" on="0"/>
        <pt x="481" y="706" on="0"/>
        <pt x="496" y="860" on="0"/>
        <pt x="512" y="1017" on="0"/>
        <pt x="528" y="1171" on="0"/>
        <pt x="535" y="1241" on="1"/>
        <pt x="509" y="1135" on="0"/>
        <pt x="437" y="819" on="0"/>
        <pt x="393" y="623" on="1"/>
        <pt x="356" y="458" on="0"/>
        <pt x="275" y="203" on="0"/>
        <pt x="196" y="12" on="0"/>
        <pt x="124" y="-119" on="0"/>
        <pt x="69" y="-200" on="0"/>
        <pt x="35" y="-237" on="0"/>
        <pt x="35" y="-238" on="1"/>
        <pt x="0" y="-219" on="1"/>
        <pt x="0" y="-218" on="0"/>
        <pt x="35" y="-157" on="0"/>
        <pt x="91" y="-47" on="0"/>
        <pt x="163" y="108" on="0"/>
        <pt x="239" y="296" on="0"/>
        <pt x="315" y="514" on="0"/>
        <pt x="346" y="633" on="1"/>
        <pt x="391" y="801" on="0"/>
        <pt x="462" y="1087" on="0"/>
        <pt x="512" y="1296" on="0"/>
        <pt x="539" y="1414" on="0"/>
        <pt x="539" y="1415" on="1"/>
        <pt x="578" y="1411" on="1"/>
        <pt x="578" y="1409" on="0"/>
        <pt x="577" y="1319" on="0"/>
        <pt x="576" y="1175" on="0"/>
        <pt x="575" y="994" on="0"/>
        <pt x="574" y="810" on="0"/>
        <pt x="573" y="641" on="0"/>
        <pt x="573" y="580" on="1"/>
        <pt x="573" y="510" on="0"/>
        <pt x="584" y="395" on="0"/>
        <pt x="609" y="314" on="0"/>
        <pt x="647" y="270" on="0"/>
        <pt x="674" y="270" on="1"/>
        <pt x="696" y="270" on="0"/>
        <pt x="757" y="329" on="0"/>
        <pt x="830" y="462" on="0"/>
        <pt x="911" y="678" on="0"/>
        <pt x="954" y="836" on="1"/>
        <pt x="969" y="890" on="0"/>
        <pt x="1006" y="1022" on="0"/>
        <pt x="1050" y="1189" on="0"/>
        <pt x="1101" y="1395" on="0"/>
        <pt x="1130" y="1522" on="1"/>
        <pt x="1169" y="1516" on="1"/>
        <pt x="1149" y="1276" on="0"/>
        <pt x="1114" y="801" on="0"/>
        <pt x="1114" y="561" on="1"/>
        <pt x="1114" y="380" on="0"/>
        <pt x="1154" y="112" on="0"/>
        <pt x="1232" y="-77" on="0"/>
        <pt x="1347" y="-196" on="0"/>
        <pt x="1423" y="-227" on="1"/>
      </contour>
    </TTGlyph>
    <TTGlyph name="N" xMin="-20" yMin="-246" xMax="1257" yMax="1679">
      <contour>
        <pt x="-20" y="-219" on="1"/>
        <pt x="-13" y="-210" on="0"/>
        <pt x="34" y="-148" on="0"/>
        <pt x="97" y="-44" on="0"/>
        <pt x="169" y="101" on="0"/>
        <pt x="233" y="285" on="0"/>
        <pt x="282" y="507" on="0"/>
        <pt x="291" y="635" on="1"/>
        <pt x="305" y="823" on="0"/>
        <pt x="322" y="1131" on="0"/>
        <pt x="331" y="1351" on="0"/>
        <pt x="334" y="1472" on="0"/>
        <pt x="334" y="1473" on="1"/>
        <pt x="373" y="1477" on="1"/>
        <pt x="399" y="1349" on="0"/>
        <pt x="449" y="1079" on="0"/>
        <pt x="502" y="811" on="0"/>
        <pt x="558" y="554" on="0"/>
        <pt x="624" y="325" on="0"/>
        <pt x="700" y="132" on="0"/>
        <pt x="791" y="-8" on="0"/>
        <pt x="900" y="-86" on="0"/>
        <pt x="965" y="-86" on="1"/>
        <pt x="1007" y="-86" on="0"/>
        <pt x="1097" y="-28" on="0"/>
        <pt x="1171" y="102" on="0"/>
        <pt x="1219" y="310" on="0"/>
        <pt x="1219" y="459" on="1"/>
        <pt x="1219" y="548" on="0"/>
        <pt x="1200" y="756" on="0"/>
        <pt x="1160" y="977" on="0"/>
        <pt x="1101" y="1199" on="0"/>
        <pt x="1020" y="1404" on="0"/>
        <pt x="918" y="1584" on="0"/>
        <pt x="856" y="1651" on="1"/>
        <pt x="883" y="1679" on="1"/>
        <pt x="949" y="1608" on="0"/>
        <pt x="1056" y="1426" on="0"/>
        <pt x="1139" y="1218" on="0"/>
        <pt x="1199" y="994" on="0"/>
        <pt x="1238" y="770" on="0"/>
        <pt x="1257" y="554" on="0"/>
        <pt x="1257" y="459" on="1"/>
        <pt x="1257" y="334" on="0"/>
        <pt x="1215" y="104" on="0"/>
        <pt x="1128" y="-72" on="0"/>
        <pt x="996" y="-176" on="0"/>
        <pt x="905" y="-176" on="1"/>
        <pt x="833" y="-176" on="0"/>
        <pt x="714" y="-105" on="0"/>
        <pt x="616" y="21" on="0"/>
        <pt x="539" y="194" on="0"/>
        <pt x="479" y="397" on="0"/>
        <pt x="433" y="622" on="0"/>
        <pt x="399" y="854" on="0"/>
        <pt x="374" y="1084" on="0"/>
        <pt x="365" y="1190" on="1"/>
        <pt x="360" y="1082" on="0"/>
        <pt x="339" y="801" on="0"/>
        <pt x="330" y="633" on="1"/>
        <pt x="320" y="461" on="0"/>
        <pt x="269" y="187" on="0"/>
        <pt x="186" y="-27" on="0"/>
        <pt x="74" y="-188" on="0"/>
        <pt x="2" y="-246" on="1"/>
      </contour>
    </TTGlyph>
    <TTGlyph name="Nacute" xMin="-20" yMin="-246" xMax="1257" yMax="1859">
      <component glyphName="N" x="0" y="0" flags="0x204"/>
      <component glyphName="acute" x="236" y="817" flags="0x4"/>
    </TTGlyph>
    <TTGlyph name="Ncaron" xMin="-20" yMin="-246" xMax="1257" yMax="1855">
      <component glyphName="N" x="0" y="0" flags="0x204"/>
      <component glyphName="caron" x="238" y="817" flags="0x4"/>
    </TTGlyph>
    <TTGlyph name="Ncommaaccent" xMin="-20" yMin="-497" xMax="1257" yMax="1679">
      <component glyphName="N" x="0" y="0" flags="0x204"/>
      <component glyphName="commaaccent" x="381" y="-210" flags="0x4"/>
    </TTGlyph>
    <TTGlyph name="Ntilde" xMin="-20" yMin="-246" xMax="1257" yMax="1806">
      <component glyphName="N" x="0" y="0" flags="0x204"/>
      <component glyphName="tilde" x="236" y="817" flags="0x4"/>
    </TTGlyph>
    <TTGlyph name="O" xMin="84" yMin="-158" xMax="1567" yMax="1518">
      <contour>
        <pt x="1395" y="639" on="1"/>
        <pt x="1394" y="451" on="0"/>
        <pt x="1298" y="156" on="0"/>
        <pt x="1123" y="-50" on="0"/>
        <pt x="876" y="-158" on="0"/>
        <pt x="725" y="-158" on="1"/>
        <pt x="583" y="-158" on="0"/>
        <pt x="347" y="-48" on="0"/>
        <pt x="178" y="144" on="0"/>
        <pt x="84" y="406" on="0"/>
        <pt x="84" y="559" on="1"/>
        <pt x="84" y="689" on="0"/>
        <pt x="136" y="907" on="0"/>
        <pt x="221" y="1087" on="0"/>
        <pt x="333" y="1231" on="0"/>
        <pt x="452" y="1342" on="0"/>
        <pt x="572" y="1424" on="0"/>
        <pt x="673" y="1480" on="0"/>
        <pt x="748" y="1512" on="0"/>
        <pt x="764" y="1518" on="1"/>
        <pt x="776" y="1485" on="1"/>
        <pt x="745" y="1472" on="0"/>
        <pt x="637" y="1414" on="0"/>
        <pt x="511" y="1319" on="0"/>
        <pt x="381" y="1182" on="0"/>
        <pt x="276" y="1001" on="0"/>
        <pt x="209" y="771" on="0"/>
        <pt x="209" y="629" on="1"/>
        <pt x="209" y="480" on="0"/>
        <pt x="280" y="212" on="0"/>
        <pt x="422" y="10" on="0"/>
        <pt x="635" y="-109" on="0"/>
        <pt x="778" y="-109" on="1"/>
        <pt x="819" y="-109" on="0"/>
        <pt x="936" y="-84" on="0"/>
        <pt x="1064" y="-20" on="0"/>
        <pt x="1191" y="88" on="0"/>
        <pt x="1291" y="254" on="0"/>
        <pt x="1354" y="485" on="0"/>
        <pt x="1354" y="639" on="1"/>
        <pt x="1354" y="682" on="0"/>
        <pt x="1347" y="775" on="0"/>
        <pt x="1339" y="821" on="1"/>
        <pt x="1250" y="746" on="0"/>
        <pt x="1041" y="657" on="0"/>
        <pt x="924" y="657" on="1"/>
        <pt x="847" y="657" on="0"/>
        <pt x="713" y="700" on="0"/>
        <pt x="614" y="779" on="0"/>
        <pt x="557" y="888" on="0"/>
        <pt x="557" y="954" on="1"/>
        <pt x="557" y="1038" on="0"/>
        <pt x="622" y="1169" on="0"/>
        <pt x="728" y="1258" on="0"/>
        <pt x="863" y="1305" on="0"/>
        <pt x="934" y="1305" on="1"/>
        <pt x="1031" y="1305" on="0"/>
        <pt x="1177" y="1238" on="0"/>
        <pt x="1281" y="1126" on="0"/>
        <pt x="1348" y="980" on="0"/>
        <pt x="1366" y="901" on="1"/>
        <pt x="1414" y="948" on="0"/>
        <pt x="1496" y="1064" on="0"/>
        <pt x="1530" y="1139" on="1"/>
        <pt x="1567" y="1124" on="1"/>
        <pt x="1493" y="970" on="0"/>
        <pt x="1374" y="854" on="1"/>
        <pt x="1385" y="798" on="0"/>
        <pt x="1395" y="690" on="0"/>
      </contour>
      <contour>
        <pt x="954" y="733" on="1"/>
        <pt x="1053" y="733" on="0"/>
        <pt x="1246" y="797" on="0"/>
        <pt x="1331" y="868" on="1"/>
        <pt x="1314" y="946" on="0"/>
        <pt x="1253" y="1089" on="0"/>
        <pt x="1158" y="1200" on="0"/>
        <pt x="1025" y="1266" on="0"/>
        <pt x="936" y="1266" on="1"/>
        <pt x="864" y="1266" on="0"/>
        <pt x="757" y="1222" on="0"/>
        <pt x="685" y="1148" on="0"/>
        <pt x="649" y="1051" on="0"/>
        <pt x="649" y="999" on="1"/>
        <pt x="649" y="955" on="0"/>
        <pt x="680" y="861" on="0"/>
        <pt x="752" y="783" on="0"/>
        <pt x="869" y="733" on="0"/>
      </contour>
    </TTGlyph>
    <TTGlyph name="OE" xMin="84" yMin="-158" xMax="2492" yMax="1518">
      <contour>
        <pt x="1579" y="1049" on="1"/>
        <pt x="1579" y="1148" on="0"/>
        <pt x="1655" y="1297" on="0"/>
        <pt x="1779" y="1396" on="0"/>
        <pt x="1940" y="1446" on="0"/>
        <pt x="2025" y="1446" on="1"/>
        <pt x="2119" y="1446" on="0"/>
        <pt x="2247" y="1387" on="0"/>
        <pt x="2325" y="1296" on="0"/>
        <pt x="2359" y="1186" on="0"/>
        <pt x="2359" y="1135" on="1"/>
        <pt x="2359" y="1107" on="0"/>
        <pt x="2353" y="1073" on="0"/>
        <pt x="2353" y="1071" on="1"/>
        <pt x="2314" y="1075" on="1"/>
        <pt x="2315" y="1083" on="0"/>
        <pt x="2316" y="1093" on="1"/>
        <pt x="2317" y="1101" on="0"/>
        <pt x="2318" y="1123" on="0"/>
        <pt x="2318" y="1137" on="1"/>
        <pt x="2318" y="1182" on="0"/>
        <pt x="2291" y="1278" on="0"/>
        <pt x="2224" y="1356" on="0"/>
        <pt x="2111" y="1407" on="0"/>
        <pt x="2025" y="1407" on="1"/>
        <pt x="1950" y="1407" on="0"/>
        <pt x="1823" y="1356" on="0"/>
        <pt x="1731" y="1267" on="0"/>
        <pt x="1679" y="1148" on="0"/>
        <pt x="1679" y="1079" on="1"/>
        <pt x="1679" y="1010" on="0"/>
        <pt x="1725" y="895" on="0"/>
        <pt x="1767" y="852" on="1"/>
        <pt x="1812" y="867" on="0"/>
        <pt x="1903" y="885" on="0"/>
        <pt x="1950" y="885" on="1"/>
        <pt x="1984" y="885" on="0"/>
        <pt x="2041" y="874" on="0"/>
        <pt x="2083" y="852" on="0"/>
        <pt x="2107" y="821" on="0"/>
        <pt x="2107" y="801" on="1"/>
        <pt x="2107" y="773" on="0"/>
        <pt x="2070" y="741" on="0"/>
        <pt x="2019" y="725" on="0"/>
        <pt x="1964" y="721" on="0"/>
        <pt x="1946" y="721" on="1"/>
        <pt x="1881" y="721" on="0"/>
        <pt x="1764" y="756" on="0"/>
        <pt x="1716" y="788" on="1"/>
        <pt x="1658" y="759" on="0"/>
        <pt x="1555" y="671" on="0"/>
        <pt x="1479" y="554" on="0"/>
        <pt x="1434" y="410" on="0"/>
        <pt x="1434" y="326" on="1"/>
        <pt x="1434" y="244" on="0"/>
        <pt x="1478" y="120" on="0"/>
        <pt x="1552" y="31" on="0"/>
        <pt x="1646" y="-29" on="0"/>
        <pt x="1746" y="-64" on="0"/>
        <pt x="1844" y="-78" on="0"/>
        <pt x="1884" y="-78" on="1"/>
        <pt x="2014" y="-78" on="0"/>
        <pt x="2220" y="5" on="0"/>
        <pt x="2366" y="146" on="0"/>
        <pt x="2448" y="334" on="0"/>
        <pt x="2454" y="438" on="1"/>
        <pt x="2492" y="436" on="1"/>
        <pt x="2489" y="349" on="0"/>
        <pt x="2433" y="194" on="0"/>
        <pt x="2337" y="62" on="0"/>
        <pt x="2209" y="-43" on="0"/>
        <pt x="2059" y="-117" on="0"/>
        <pt x="1893" y="-156" on="0"/>
        <pt x="1808" y="-156" on="1"/>
        <pt x="1715" y="-156" on="0"/>
        <pt x="1544" y="-106" on="0"/>
        <pt x="1411" y="-8" on="0"/>
        <pt x="1325" y="134" on="0"/>
        <pt x="1317" y="227" on="1"/>
        <pt x="1277" y="135" on="0"/>
        <pt x="1159" y="-8" on="0"/>
        <pt x="1008" y="-107" on="0"/>
        <pt x="828" y="-158" on="0"/>
        <pt x="725" y="-158" on="1"/>
        <pt x="583" y="-158" on="0"/>
        <pt x="347" y="-48" on="0"/>
        <pt x="178" y="144" on="0"/>
        <pt x="84" y="406" on="0"/>
        <pt x="84" y="559" on="1"/>
        <pt x="84" y="689" on="0"/>
        <pt x="136" y="907" on="0"/>
        <pt x="221" y="1087" on="0"/>
        <pt x="333" y="1231" on="0"/>
        <pt x="452" y="1342" on="0"/>
        <pt x="572" y="1424" on="0"/>
        <pt x="673" y="1480" on="0"/>
        <pt x="748" y="1512" on="0"/>
        <pt x="764" y="1518" on="1"/>
        <pt x="776" y="1485" on="1"/>
        <pt x="745" y="1472" on="0"/>
        <pt x="637" y="1414" on="0"/>
        <pt x="511" y="1319" on="0"/>
        <pt x="381" y="1182" on="0"/>
        <pt x="276" y="1001" on="0"/>
        <pt x="209" y="771" on="0"/>
        <pt x="209" y="629" on="1"/>
        <pt x="209" y="480" on="0"/>
        <pt x="280" y="212" on="0"/>
        <pt x="422" y="10" on="0"/>
        <pt x="635" y="-109" on="0"/>
        <pt x="778" y="-109" on="1"/>
        <pt x="819" y="-109" on="0"/>
        <pt x="936" y="-84" on="0"/>
        <pt x="1064" y="-20" on="0"/>
        <pt x="1191" y="88" on="0"/>
        <pt x="1291" y="254" on="0"/>
        <pt x="1354" y="485" on="0"/>
        <pt x="1354" y="639" on="1"/>
        <pt x="1354" y="682" on="0"/>
        <pt x="1347" y="775" on="0"/>
        <pt x="1339" y="821" on="1"/>
        <pt x="1250" y="746" on="0"/>
        <pt x="1041" y="657" on="0"/>
        <pt x="924" y="657" on="1"/>
        <pt x="847" y="657" on="0"/>
        <pt x="713" y="700" on="0"/>
        <pt x="614" y="779" on="0"/>
        <pt x="557" y="888" on="0"/>
        <pt x="557" y="954" on="1"/>
        <pt x="557" y="1038" on="0"/>
        <pt x="622" y="1169" on="0"/>
        <pt x="728" y="1258" on="0"/>
        <pt x="863" y="1305" on="0"/>
        <pt x="934" y="1305" on="1"/>
        <pt x="1031" y="1305" on="0"/>
        <pt x="1177" y="1238" on="0"/>
        <pt x="1281" y="1126" on="0"/>
        <pt x="1348" y="980" on="0"/>
        <pt x="1366" y="901" on="1"/>
        <pt x="1414" y="948" on="0"/>
        <pt x="1496" y="1064" on="0"/>
        <pt x="1530" y="1139" on="1"/>
        <pt x="1567" y="1124" on="1"/>
        <pt x="1493" y="970" on="0"/>
        <pt x="1374" y="854" on="1"/>
        <pt x="1385" y="798" on="0"/>
        <pt x="1395" y="690" on="0"/>
        <pt x="1395" y="639" on="1"/>
        <pt x="1395" y="614" on="0"/>
        <pt x="1393" y="568" on="0"/>
        <pt x="1391" y="545" on="1"/>
        <pt x="1440" y="633" on="0"/>
        <pt x="1592" y="772" on="0"/>
        <pt x="1681" y="817" on="1"/>
        <pt x="1633" y="860" on="0"/>
        <pt x="1579" y="977" on="0"/>
      </contour>
      <contour>
        <pt x="936" y="1266" on="1"/>
        <pt x="864" y="1266" on="0"/>
        <pt x="757" y="1222" on="0"/>
        <pt x="685" y="1148" on="0"/>
        <pt x="649" y="1051" on="0"/>
        <pt x="649" y="999" on="1"/>
        <pt x="649" y="955" on="0"/>
        <pt x="680" y="861" on="0"/>
        <pt x="752" y="783" on="0"/>
        <pt x="869" y="733" on="0"/>
        <pt x="954" y="733" on="1"/>
        <pt x="1053" y="733" on="0"/>
        <pt x="1246" y="797" on="0"/>
        <pt x="1331" y="868" on="1"/>
        <pt x="1314" y="946" on="0"/>
        <pt x="1253" y="1089" on="0"/>
        <pt x="1158" y="1200" on="0"/>
        <pt x="1025" y="1266" on="0"/>
      </contour>
      <contour>
        <pt x="1991" y="766" on="1"/>
        <pt x="2028" y="766" on="0"/>
        <pt x="2068" y="787" on="0"/>
        <pt x="2068" y="801" on="1"/>
        <pt x="2068" y="816" on="0"/>
        <pt x="2005" y="846" on="0"/>
        <pt x="1950" y="846" on="1"/>
        <pt x="1877" y="846" on="0"/>
        <pt x="1802" y="823" on="1"/>
        <pt x="1839" y="795" on="0"/>
        <pt x="1935" y="766" on="0"/>
      </contour>
    </TTGlyph>
    <TTGlyph name="Oacute" xMin="84" yMin="-158" xMax="1567" yMax="1777">
      <component glyphName="O" x="0" y="0" flags="0x204"/>
      <component glyphName="acute" x="692" y="735" flags="0x4"/>
    </TTGlyph>
    <TTGlyph name="Obreve" xMin="84" yMin="-158" xMax="1567" yMax="1745">
      <component glyphName="O" x="0" y="0" flags="0x204"/>
      <component glyphName="breve" x="545" y="735" flags="0x4"/>
    </TTGlyph>
    <TTGlyph name="Ocircumflex" xMin="84" yMin="-158" xMax="1567" yMax="1773">
      <component glyphName="O" x="0" y="0" flags="0x204"/>
      <component glyphName="circumflex" x="543" y="735" flags="0x4"/>
    </TTGlyph>
    <TTGlyph name="Odieresis" xMin="84" yMin="-158" xMax="1567" yMax="1696">
      <component glyphName="O" x="0" y="0" flags="0x204"/>
      <component glyphName="dieresis" x="543" y="735" flags="0x4"/>
    </TTGlyph>
    <TTGlyph name="Ograve" xMin="84" yMin="-158" xMax="1567" yMax="1777">
      <component glyphName="O" x="0" y="0" flags="0x204"/>
      <component glyphName="grave" x="543" y="735" flags="0x4"/>
    </TTGlyph>
    <TTGlyph name="Ohungarumlaut" xMin="84" yMin="-158" xMax="1567" yMax="1777">
      <component glyphName="O" x="0" y="0" flags="0x204"/>
      <component glyphName="hungarumlaut" x="594" y="735" flags="0x4"/>
    </TTGlyph>
    <TTGlyph name="Omacron" xMin="84" yMin="-158" xMax="1567" yMax="1667">
      <component glyphName="O" x="0" y="0" flags="0x204"/>
      <component glyphName="macron" x="543" y="735" flags="0x4"/>
    </TTGlyph>
    <TTGlyph name="Oslash" xMin="84" yMin="-221" xMax="1567" yMax="1518">
      <contour>
        <pt x="242" y="-201" on="1"/>
        <pt x="266" y="-163" on="0"/>
        <pt x="320" y="-78" on="0"/>
        <pt x="348" y="-33" on="1"/>
        <pt x="223" y="63" on="0"/>
        <pt x="84" y="369" on="0"/>
        <pt x="84" y="559" on="1"/>
        <pt x="84" y="689" on="0"/>
        <pt x="136" y="907" on="0"/>
        <pt x="221" y="1087" on="0"/>
        <pt x="333" y="1231" on="0"/>
        <pt x="452" y="1342" on="0"/>
        <pt x="572" y="1424" on="0"/>
        <pt x="673" y="1480" on="0"/>
        <pt x="748" y="1512" on="0"/>
        <pt x="764" y="1518" on="1"/>
        <pt x="776" y="1485" on="1"/>
        <pt x="745" y="1472" on="0"/>
        <pt x="637" y="1414" on="0"/>
        <pt x="511" y="1319" on="0"/>
        <pt x="381" y="1182" on="0"/>
        <pt x="276" y="1001" on="0"/>
        <pt x="209" y="771" on="0"/>
        <pt x="209" y="629" on="1"/>
        <pt x="209" y="542" on="0"/>
        <pt x="233" y="377" on="0"/>
        <pt x="281" y="228" on="0"/>
        <pt x="353" y="100" on="0"/>
        <pt x="401" y="49" on="1"/>
        <pt x="492" y="193" on="0"/>
        <pt x="696" y="510" on="0"/>
        <pt x="801" y="672" on="1"/>
        <pt x="747" y="687" on="0"/>
        <pt x="657" y="739" on="0"/>
        <pt x="593" y="812" on="0"/>
        <pt x="557" y="902" on="0"/>
        <pt x="557" y="954" on="1"/>
        <pt x="557" y="1038" on="0"/>
        <pt x="622" y="1169" on="0"/>
        <pt x="728" y="1258" on="0"/>
        <pt x="863" y="1305" on="0"/>
        <pt x="934" y="1305" on="1"/>
        <pt x="1005" y="1305" on="0"/>
        <pt x="1119" y="1268" on="0"/>
        <pt x="1165" y="1237" on="1"/>
        <pt x="1199" y="1290" on="0"/>
        <pt x="1263" y="1387" on="0"/>
        <pt x="1292" y="1434" on="1"/>
        <pt x="1327" y="1413" on="1"/>
        <pt x="1296" y="1365" on="0"/>
        <pt x="1232" y="1265" on="0"/>
        <pt x="1198" y="1212" on="1"/>
        <pt x="1264" y="1155" on="0"/>
        <pt x="1344" y="992" on="0"/>
        <pt x="1366" y="901" on="1"/>
        <pt x="1414" y="948" on="0"/>
        <pt x="1496" y="1064" on="0"/>
        <pt x="1530" y="1139" on="1"/>
        <pt x="1567" y="1124" on="1"/>
        <pt x="1493" y="970" on="0"/>
        <pt x="1374" y="854" on="1"/>
        <pt x="1385" y="798" on="0"/>
        <pt x="1395" y="690" on="0"/>
        <pt x="1395" y="639" on="1"/>
        <pt x="1394" y="451" on="0"/>
        <pt x="1298" y="156" on="0"/>
        <pt x="1123" y="-50" on="0"/>
        <pt x="876" y="-158" on="0"/>
        <pt x="725" y="-158" on="1"/>
        <pt x="628" y="-158" on="0"/>
        <pt x="455" y="-105" on="0"/>
        <pt x="383" y="-57" on="1"/>
        <pt x="354" y="-102" on="0"/>
        <pt x="299" y="-184" on="0"/>
        <pt x="276" y="-221" on="1"/>
      </contour>
      <contour>
        <pt x="924" y="657" on="1"/>
        <pt x="904" y="657" on="0"/>
        <pt x="864" y="658" on="0"/>
        <pt x="846" y="662" on="1"/>
        <pt x="736" y="490" on="0"/>
        <pt x="525" y="162" on="0"/>
        <pt x="432" y="18" on="1"/>
        <pt x="498" y="-40" on="0"/>
        <pt x="670" y="-109" on="0"/>
        <pt x="778" y="-109" on="1"/>
        <pt x="819" y="-109" on="0"/>
        <pt x="936" y="-84" on="0"/>
        <pt x="1064" y="-20" on="0"/>
        <pt x="1191" y="88" on="0"/>
        <pt x="1291" y="254" on="0"/>
        <pt x="1354" y="485" on="0"/>
        <pt x="1354" y="639" on="1"/>
        <pt x="1354" y="682" on="0"/>
        <pt x="1347" y="775" on="0"/>
        <pt x="1339" y="821" on="1"/>
        <pt x="1250" y="746" on="0"/>
        <pt x="1041" y="657" on="0"/>
      </contour>
      <contour>
        <pt x="649" y="999" on="1"/>
        <pt x="649" y="963" on="0"/>
        <pt x="670" y="886" on="0"/>
        <pt x="716" y="816" on="0"/>
        <pt x="792" y="760" on="0"/>
        <pt x="848" y="745" on="1"/>
        <pt x="925" y="866" on="0"/>
        <pt x="1074" y="1096" on="0"/>
        <pt x="1143" y="1202" on="1"/>
        <pt x="1101" y="1231" on="0"/>
        <pt x="999" y="1266" on="0"/>
        <pt x="936" y="1266" on="1"/>
        <pt x="864" y="1266" on="0"/>
        <pt x="757" y="1222" on="0"/>
        <pt x="685" y="1148" on="0"/>
        <pt x="649" y="1051" on="0"/>
      </contour>
      <contour>
        <pt x="954" y="733" on="1"/>
        <pt x="1053" y="733" on="0"/>
        <pt x="1246" y="797" on="0"/>
        <pt x="1331" y="868" on="1"/>
        <pt x="1313" y="959" on="0"/>
        <pt x="1237" y="1120" on="0"/>
        <pt x="1176" y="1176" on="1"/>
        <pt x="1107" y="1070" on="0"/>
        <pt x="967" y="851" on="0"/>
        <pt x="893" y="735" on="1"/>
        <pt x="907" y="733" on="0"/>
        <pt x="937" y="733" on="0"/>
      </contour>
    </TTGlyph>
    <TTGlyph name="Oslashacute" xMin="84" yMin="-221" xMax="1567" yMax="1695">
      <component glyphName="Oslash" x="0" y="0" flags="0x204"/>
      <component glyphName="acute" x="764" y="653" flags="0x4"/>
    </TTGlyph>
    <TTGlyph name="Otilde" xMin="84" yMin="-158" xMax="1567" yMax="1724">
      <component glyphName="O" x="0" y="0" flags="0x204"/>
      <component glyphName="tilde" x="543" y="735" flags="0x4"/>
    </TTGlyph>
    <TTGlyph name="P" xMin="0" yMin="-96" xMax="1403" yMax="1528">
      <contour>
        <pt x="537" y="-96" on="1"/>
        <pt x="514" y="-62" on="0"/>
        <pt x="467" y="58" on="0"/>
        <pt x="426" y="202" on="0"/>
        <pt x="395" y="356" on="0"/>
        <pt x="387" y="424" on="1"/>
        <pt x="347" y="432" on="0"/>
        <pt x="298" y="456" on="0"/>
        <pt x="271" y="483" on="0"/>
        <pt x="262" y="511" on="0"/>
        <pt x="262" y="522" on="1"/>
        <pt x="262" y="556" on="0"/>
        <pt x="328" y="622" on="0"/>
        <pt x="385" y="645" on="1"/>
        <pt x="393" y="743" on="0"/>
        <pt x="431" y="912" on="0"/>
        <pt x="478" y="1051" on="0"/>
        <pt x="528" y="1158" on="0"/>
        <pt x="570" y="1232" on="0"/>
        <pt x="598" y="1271" on="0"/>
        <pt x="598" y="1272" on="1"/>
        <pt x="633" y="1255" on="1"/>
        <pt x="624" y="1235" on="0"/>
        <pt x="586" y="1141" on="0"/>
        <pt x="545" y="995" on="0"/>
        <pt x="508" y="799" on="0"/>
        <pt x="500" y="678" on="1"/>
        <pt x="517" y="681" on="0"/>
        <pt x="551" y="686" on="0"/>
        <pt x="569" y="688" on="1"/>
        <pt x="573" y="649" on="1"/>
        <pt x="552" y="647" on="0"/>
        <pt x="514" y="642" on="0"/>
        <pt x="496" y="639" on="1"/>
        <pt x="494" y="610" on="0"/>
        <pt x="494" y="548" on="0"/>
        <pt x="494" y="516" on="1"/>
        <pt x="494" y="451" on="1"/>
        <pt x="559" y="451" on="1"/>
        <pt x="639" y="451" on="0"/>
        <pt x="808" y="481" on="0"/>
        <pt x="968" y="544" on="0"/>
        <pt x="1109" y="643" on="0"/>
        <pt x="1215" y="781" on="0"/>
        <pt x="1276" y="961" on="0"/>
        <pt x="1276" y="1073" on="1"/>
        <pt x="1276" y="1164" on="0"/>
        <pt x="1219" y="1295" on="0"/>
        <pt x="1127" y="1387" on="0"/>
        <pt x="1009" y="1443" on="0"/>
        <pt x="888" y="1474" on="0"/>
        <pt x="774" y="1485" on="0"/>
        <pt x="731" y="1485" on="1"/>
        <pt x="644" y="1485" on="0"/>
        <pt x="450" y="1440" on="0"/>
        <pt x="261" y="1369" on="0"/>
        <pt x="88" y="1281" on="0"/>
        <pt x="23" y="1239" on="1"/>
        <pt x="0" y="1272" on="1"/>
        <pt x="4" y="1274" on="0"/>
        <pt x="67" y="1314" on="0"/>
        <pt x="173" y="1371" on="0"/>
        <pt x="318" y="1436" on="0"/>
        <pt x="491" y="1491" on="0"/>
        <pt x="687" y="1528" on="0"/>
        <pt x="791" y="1528" on="1"/>
        <pt x="913" y="1528" on="0"/>
        <pt x="1135" y="1467" on="0"/>
        <pt x="1303" y="1344" on="0"/>
        <pt x="1403" y="1157" on="0"/>
        <pt x="1403" y="1030" on="1"/>
        <pt x="1403" y="926" on="0"/>
        <pt x="1334" y="754" on="0"/>
        <pt x="1213" y="617" on="0"/>
        <pt x="1049" y="514" on="0"/>
        <pt x="859" y="446" on="0"/>
        <pt x="653" y="412" on="0"/>
        <pt x="551" y="412" on="1"/>
        <pt x="496" y="412" on="1"/>
        <pt x="501" y="299" on="0"/>
        <pt x="538" y="49" on="0"/>
        <pt x="573" y="-88" on="1"/>
      </contour>
      <contour>
        <pt x="303" y="522" on="1"/>
        <pt x="303" y="507" on="0"/>
        <pt x="338" y="478" on="0"/>
        <pt x="383" y="467" on="1"/>
        <pt x="381" y="481" on="0"/>
        <pt x="381" y="508" on="0"/>
        <pt x="381" y="522" on="1"/>
        <pt x="381" y="542" on="0"/>
        <pt x="381" y="581" on="0"/>
        <pt x="383" y="600" on="1"/>
        <pt x="303" y="559" on="0"/>
      </contour>
    </TTGlyph>
    <TTGlyph name="Q" xMin="61" yMin="-621" xMax="1884" yMax="1489">
      <contour>
        <pt x="481" y="-240" on="1"/>
        <pt x="400" y="-240" on="0"/>
        <pt x="248" y="-209" on="0"/>
        <pt x="131" y="-149" on="0"/>
        <pt x="61" y="-59" on="0"/>
        <pt x="61" y="0" on="1"/>
        <pt x="61" y="55" on="0"/>
        <pt x="114" y="135" on="0"/>
        <pt x="200" y="189" on="0"/>
        <pt x="306" y="217" on="0"/>
        <pt x="360" y="221" on="1"/>
        <pt x="261" y="330" on="0"/>
        <pt x="156" y="594" on="0"/>
        <pt x="156" y="756" on="1"/>
        <pt x="156" y="864" on="0"/>
        <pt x="208" y="1057" on="0"/>
        <pt x="303" y="1219" on="0"/>
        <pt x="436" y="1350" on="0"/>
        <pt x="598" y="1440" on="0"/>
        <pt x="785" y="1489" on="0"/>
        <pt x="885" y="1489" on="1"/>
        <pt x="1040" y="1489" on="0"/>
        <pt x="1295" y="1388" on="0"/>
        <pt x="1478" y="1204" on="0"/>
        <pt x="1579" y="945" on="0"/>
        <pt x="1579" y="788" on="1"/>
        <pt x="1579" y="641" on="0"/>
        <pt x="1496" y="369" on="0"/>
        <pt x="1345" y="136" on="0"/>
        <pt x="1134" y="-53" on="0"/>
        <pt x="1006" y="-117" on="1"/>
        <pt x="1078" y="-192" on="0"/>
        <pt x="1220" y="-340" on="0"/>
        <pt x="1371" y="-459" on="0"/>
        <pt x="1538" y="-532" on="0"/>
        <pt x="1636" y="-532" on="1"/>
        <pt x="1698" y="-532" on="0"/>
        <pt x="1811" y="-493" on="0"/>
        <pt x="1862" y="-451" on="1"/>
        <pt x="1884" y="-475" on="1"/>
        <pt x="1883" y="-476" on="0"/>
        <pt x="1864" y="-498" on="0"/>
        <pt x="1826" y="-531" on="0"/>
        <pt x="1771" y="-568" on="0"/>
        <pt x="1699" y="-600" on="0"/>
        <pt x="1611" y="-621" on="0"/>
        <pt x="1559" y="-621" on="1"/>
        <pt x="1487" y="-621" on="0"/>
        <pt x="1366" y="-581" on="0"/>
        <pt x="1260" y="-511" on="0"/>
        <pt x="1166" y="-417" on="0"/>
        <pt x="1078" y="-311" on="0"/>
        <pt x="992" y="-198" on="0"/>
        <pt x="948" y="-143" on="1"/>
        <pt x="842" y="-190" on="0"/>
        <pt x="608" y="-240" on="0"/>
      </contour>
      <contour>
        <pt x="256" y="756" on="1"/>
        <pt x="256" y="579" on="0"/>
        <pt x="341" y="322" on="0"/>
        <pt x="426" y="221" on="1"/>
        <pt x="510" y="218" on="0"/>
        <pt x="658" y="166" on="0"/>
        <pt x="792" y="84" on="0"/>
        <pt x="913" y="-24" on="0"/>
        <pt x="971" y="-82" on="1"/>
        <pt x="1085" y="-20" on="0"/>
        <pt x="1263" y="163" on="0"/>
        <pt x="1387" y="390" on="0"/>
        <pt x="1452" y="653" on="0"/>
        <pt x="1452" y="795" on="1"/>
        <pt x="1452" y="951" on="0"/>
        <pt x="1366" y="1195" on="0"/>
        <pt x="1214" y="1363" on="0"/>
        <pt x="1007" y="1450" on="0"/>
        <pt x="887" y="1450" on="1"/>
        <pt x="746" y="1450" on="0"/>
        <pt x="513" y="1351" on="0"/>
        <pt x="347" y="1169" on="0"/>
        <pt x="256" y="913" on="0"/>
      </contour>
      <contour>
        <pt x="618" y="10" on="1"/>
        <pt x="506" y="80" on="0"/>
        <pt x="416" y="164" on="1"/>
        <pt x="351" y="163" on="0"/>
        <pt x="261" y="132" on="0"/>
        <pt x="204" y="84" on="0"/>
        <pt x="178" y="25" on="0"/>
        <pt x="178" y="-4" on="1"/>
        <pt x="178" y="-42" on="0"/>
        <pt x="225" y="-112" on="0"/>
        <pt x="311" y="-165" on="0"/>
        <pt x="434" y="-197" on="0"/>
        <pt x="510" y="-197" on="1"/>
        <pt x="625" y="-197" on="0"/>
        <pt x="829" y="-152" on="0"/>
        <pt x="920" y="-109" on="1"/>
        <pt x="877" y="-59" on="0"/>
        <pt x="784" y="31" on="0"/>
        <pt x="678" y="103" on="0"/>
        <pt x="557" y="151" on="0"/>
        <pt x="485" y="160" on="1"/>
        <pt x="519" y="128" on="0"/>
        <pt x="596" y="68" on="0"/>
        <pt x="639" y="39" on="1"/>
      </contour>
    </TTGlyph>
    <TTGlyph name="R" xMin="0" yMin="-453" xMax="1780" yMax="1501">
      <contour>
        <pt x="799" y="436" on="1"/>
        <pt x="761" y="436" on="0"/>
        <pt x="661" y="443" on="0"/>
        <pt x="610" y="451" on="1"/>
        <pt x="612" y="425" on="0"/>
        <pt x="614" y="373" on="0"/>
        <pt x="614" y="348" on="1"/>
        <pt x="614" y="235" on="0"/>
        <pt x="574" y="49" on="0"/>
        <pt x="494" y="-83" on="0"/>
        <pt x="375" y="-156" on="0"/>
        <pt x="297" y="-156" on="1"/>
        <pt x="238" y="-156" on="0"/>
        <pt x="91" y="-112" on="0"/>
        <pt x="0" y="-55" on="1"/>
        <pt x="20" y="-23" on="1"/>
        <pt x="98" y="-71" on="0"/>
        <pt x="237" y="-117" on="0"/>
        <pt x="297" y="-117" on="1"/>
        <pt x="362" y="-117" on="0"/>
        <pt x="446" y="-70" on="0"/>
        <pt x="495" y="7" on="0"/>
        <pt x="514" y="105" on="0"/>
        <pt x="514" y="156" on="1"/>
        <pt x="514" y="227" on="0"/>
        <pt x="495" y="389" on="0"/>
        <pt x="487" y="479" on="1"/>
        <pt x="441" y="495" on="0"/>
        <pt x="383" y="538" on="0"/>
        <pt x="383" y="567" on="1"/>
        <pt x="383" y="595" on="0"/>
        <pt x="436" y="636" on="0"/>
        <pt x="479" y="647" on="1"/>
        <pt x="479" y="733" on="0"/>
        <pt x="505" y="898" on="0"/>
        <pt x="544" y="1044" on="0"/>
        <pt x="589" y="1168" on="0"/>
        <pt x="629" y="1257" on="0"/>
        <pt x="656" y="1307" on="0"/>
        <pt x="657" y="1307" on="1"/>
        <pt x="692" y="1290" on="1"/>
        <pt x="692" y="1289" on="0"/>
        <pt x="660" y="1212" on="0"/>
        <pt x="622" y="1072" on="0"/>
        <pt x="590" y="876" on="0"/>
        <pt x="590" y="756" on="1"/>
        <pt x="590" y="733" on="0"/>
        <pt x="590" y="682" on="0"/>
        <pt x="592" y="657" on="1"/>
        <pt x="703" y="652" on="0"/>
        <pt x="858" y="562" on="0"/>
        <pt x="915" y="483" on="1"/>
        <pt x="1001" y="501" on="0"/>
        <pt x="1160" y="588" on="0"/>
        <pt x="1281" y="722" on="0"/>
        <pt x="1354" y="900" on="0"/>
        <pt x="1354" y="1008" on="1"/>
        <pt x="1354" y="1094" on="0"/>
        <pt x="1303" y="1229" on="0"/>
        <pt x="1218" y="1330" on="0"/>
        <pt x="1107" y="1400" on="0"/>
        <pt x="989" y="1443" on="0"/>
        <pt x="872" y="1462" on="0"/>
        <pt x="823" y="1462" on="1"/>
        <pt x="685" y="1462" on="0"/>
        <pt x="464" y="1420" on="0"/>
        <pt x="294" y="1356" on="0"/>
        <pt x="171" y="1282" on="0"/>
        <pt x="91" y="1218" on="0"/>
        <pt x="53" y="1174" on="0"/>
        <pt x="53" y="1174" on="1"/>
        <pt x="20" y="1196" on="1"/>
        <pt x="23" y="1199" on="0"/>
        <pt x="65" y="1247" on="0"/>
        <pt x="148" y="1314" on="0"/>
        <pt x="275" y="1392" on="0"/>
        <pt x="452" y="1457" on="0"/>
        <pt x="680" y="1501" on="0"/>
        <pt x="823" y="1501" on="1"/>
        <pt x="905" y="1501" on="0"/>
        <pt x="1067" y="1476" on="0"/>
        <pt x="1213" y="1425" on="0"/>
        <pt x="1338" y="1345" on="0"/>
        <pt x="1429" y="1236" on="0"/>
        <pt x="1481" y="1095" on="0"/>
        <pt x="1481" y="1008" on="1"/>
        <pt x="1481" y="883" on="0"/>
        <pt x="1390" y="690" on="0"/>
        <pt x="1239" y="551" on="0"/>
        <pt x="1044" y="464" on="0"/>
        <pt x="940" y="446" on="1"/>
        <pt x="975" y="392" on="0"/>
        <pt x="1001" y="326" on="1"/>
        <pt x="1032" y="252" on="0"/>
        <pt x="1083" y="93" on="0"/>
        <pt x="1139" y="-59" on="0"/>
        <pt x="1206" y="-195" on="0"/>
        <pt x="1297" y="-298" on="0"/>
        <pt x="1420" y="-358" on="0"/>
        <pt x="1505" y="-358" on="1"/>
        <pt x="1565" y="-358" on="0"/>
        <pt x="1690" y="-305" on="0"/>
        <pt x="1755" y="-246" on="1"/>
        <pt x="1780" y="-274" on="1"/>
        <pt x="1743" y="-310" on="0"/>
        <pt x="1665" y="-375" on="0"/>
        <pt x="1580" y="-424" on="0"/>
        <pt x="1486" y="-453" on="0"/>
        <pt x="1432" y="-453" on="1"/>
        <pt x="1351" y="-453" on="0"/>
        <pt x="1232" y="-408" on="0"/>
        <pt x="1144" y="-327" on="0"/>
        <pt x="1084" y="-217" on="0"/>
        <pt x="1040" y="-88" on="0"/>
        <pt x="1007" y="57" on="0"/>
        <pt x="991" y="131" on="1"/>
        <pt x="971" y="222" on="0"/>
        <pt x="922" y="378" on="0"/>
        <pt x="885" y="440" on="1"/>
        <pt x="863" y="437" on="0"/>
        <pt x="820" y="436" on="0"/>
      </contour>
      <contour>
        <pt x="596" y="618" on="1"/>
        <pt x="598" y="586" on="0"/>
        <pt x="605" y="519" on="0"/>
        <pt x="608" y="487" on="1"/>
        <pt x="646" y="479" on="0"/>
        <pt x="744" y="473" on="0"/>
        <pt x="803" y="473" on="1"/>
        <pt x="817" y="473" on="0"/>
        <pt x="847" y="473" on="0"/>
        <pt x="862" y="475" on="1"/>
        <pt x="816" y="538" on="0"/>
        <pt x="689" y="613" on="0"/>
      </contour>
      <contour>
        <pt x="483" y="522" on="1"/>
        <pt x="481" y="542" on="0"/>
        <pt x="479" y="585" on="0"/>
        <pt x="479" y="606" on="1"/>
        <pt x="453" y="600" on="0"/>
        <pt x="422" y="580" on="0"/>
        <pt x="422" y="569" on="1"/>
        <pt x="422" y="561" on="0"/>
        <pt x="451" y="536" on="0"/>
      </contour>
    </TTGlyph>
    <TTGlyph name="Racute" xMin="0" yMin="-453" xMax="1780" yMax="1787">
      <component glyphName="R" x="0" y="0" flags="0x204"/>
      <component glyphName="acute" x="539" y="745" flags="0x4"/>
    </TTGlyph>
    <TTGlyph name="Rcaron" xMin="0" yMin="-453" xMax="1780" yMax="1783">
      <component glyphName="R" x="0" y="0" flags="0x204"/>
      <component glyphName="caron" x="541" y="745" flags="0x4"/>
    </TTGlyph>
    <TTGlyph name="Rcommaaccent" xMin="0" yMin="-453" xMax="1780" yMax="1501">
      <component glyphName="R" x="0" y="0" flags="0x204"/>
      <component glyphName="commaaccent" x="440" y="-81" flags="0x4"/>
    </TTGlyph>
    <TTGlyph name="S" xMin="72" yMin="-221" xMax="1114" yMax="1434">
      <contour>
        <pt x="295" y="1038" on="1"/>
        <pt x="295" y="982" on="0"/>
        <pt x="341" y="893" on="0"/>
        <pt x="419" y="820" on="0"/>
        <pt x="524" y="759" on="0"/>
        <pt x="642" y="702" on="0"/>
        <pt x="767" y="647" on="0"/>
        <pt x="885" y="586" on="0"/>
        <pt x="990" y="515" on="0"/>
        <pt x="1068" y="428" on="0"/>
        <pt x="1114" y="321" on="0"/>
        <pt x="1114" y="254" on="1"/>
        <pt x="1114" y="132" on="0"/>
        <pt x="1022" y="-47" on="0"/>
        <pt x="868" y="-164" on="0"/>
        <pt x="664" y="-221" on="0"/>
        <pt x="553" y="-221" on="1"/>
        <pt x="455" y="-221" on="0"/>
        <pt x="281" y="-170" on="0"/>
        <pt x="149" y="-79" on="0"/>
        <pt x="72" y="48" on="0"/>
        <pt x="72" y="123" on="1"/>
        <pt x="72" y="189" on="0"/>
        <pt x="113" y="282" on="0"/>
        <pt x="162" y="342" on="0"/>
        <pt x="206" y="370" on="0"/>
        <pt x="209" y="371" on="1"/>
        <pt x="231" y="324" on="1"/>
        <pt x="229" y="323" on="0"/>
        <pt x="195" y="300" on="0"/>
        <pt x="156" y="252" on="0"/>
        <pt x="123" y="177" on="0"/>
        <pt x="123" y="123" on="1"/>
        <pt x="123" y="69" on="0"/>
        <pt x="164" y="-16" on="0"/>
        <pt x="233" y="-80" on="0"/>
        <pt x="322" y="-126" on="0"/>
        <pt x="418" y="-155" on="0"/>
        <pt x="514" y="-168" on="0"/>
        <pt x="555" y="-168" on="1"/>
        <pt x="661" y="-168" on="0"/>
        <pt x="833" y="-115" on="0"/>
        <pt x="954" y="-22" on="0"/>
        <pt x="1020" y="101" on="0"/>
        <pt x="1020" y="172" on="1"/>
        <pt x="1020" y="252" on="0"/>
        <pt x="952" y="368" on="0"/>
        <pt x="840" y="457" on="0"/>
        <pt x="697" y="528" on="0"/>
        <pt x="548" y="596" on="0"/>
        <pt x="405" y="671" on="0"/>
        <pt x="293" y="769" on="0"/>
        <pt x="225" y="898" on="0"/>
        <pt x="225" y="987" on="1"/>
        <pt x="225" y="1086" on="0"/>
        <pt x="292" y="1250" on="0"/>
        <pt x="409" y="1369" on="0"/>
        <pt x="567" y="1434" on="0"/>
        <pt x="659" y="1434" on="1"/>
        <pt x="752" y="1434" on="0"/>
        <pt x="892" y="1391" on="0"/>
        <pt x="987" y="1314" on="0"/>
        <pt x="1034" y="1206" on="0"/>
        <pt x="1034" y="1141" on="1"/>
        <pt x="1034" y="1088" on="0"/>
        <pt x="1009" y="987" on="0"/>
        <pt x="979" y="907" on="0"/>
        <pt x="953" y="857" on="0"/>
        <pt x="952" y="854" on="1"/>
        <pt x="907" y="879" on="1"/>
        <pt x="907" y="880" on="0"/>
        <pt x="930" y="926" on="0"/>
        <pt x="958" y="1000" on="0"/>
        <pt x="981" y="1093" on="0"/>
        <pt x="981" y="1141" on="1"/>
        <pt x="981" y="1195" on="0"/>
        <pt x="942" y="1284" on="0"/>
        <pt x="862" y="1346" on="0"/>
        <pt x="740" y="1380" on="0"/>
        <pt x="657" y="1380" on="1"/>
        <pt x="580" y="1380" on="0"/>
        <pt x="448" y="1329" on="0"/>
        <pt x="351" y="1237" on="0"/>
        <pt x="295" y="1112" on="0"/>
      </contour>
    </TTGlyph>
    <TTGlyph name="Sacute" xMin="72" yMin="-221" xMax="1114" yMax="1720">
      <component glyphName="S" x="0" y="0" flags="0x204"/>
      <component glyphName="acute" x="358" y="678" flags="0x4"/>
    </TTGlyph>
    <TTGlyph name="Scaron" xMin="72" yMin="-221" xMax="1114" yMax="1716">
      <component glyphName="S" x="0" y="0" flags="0x204"/>
      <component glyphName="caron" x="360" y="678" flags="0x4"/>
    </TTGlyph>
    <TTGlyph name="Scedilla" xMin="72" yMin="-467" xMax="1114" yMax="1434">
      <contour>
        <pt x="295" y="1038" on="1"/>
        <pt x="295" y="982" on="0"/>
        <pt x="341" y="893" on="0"/>
        <pt x="419" y="820" on="0"/>
        <pt x="524" y="759" on="0"/>
        <pt x="642" y="702" on="0"/>
        <pt x="767" y="647" on="0"/>
        <pt x="885" y="586" on="0"/>
        <pt x="990" y="515" on="0"/>
        <pt x="1068" y="428" on="0"/>
        <pt x="1114" y="321" on="0"/>
        <pt x="1114" y="254" on="1"/>
        <pt x="1114" y="140" on="0"/>
        <pt x="1033" y="-32" on="0"/>
        <pt x="894" y="-149" on="0"/>
        <pt x="710" y="-213" on="0"/>
        <pt x="608" y="-219" on="1"/>
        <pt x="584" y="-297" on="1"/>
        <pt x="606" y="-297" on="0"/>
        <pt x="648" y="-308" on="0"/>
        <pt x="680" y="-329" on="0"/>
        <pt x="700" y="-359" on="0"/>
        <pt x="700" y="-379" on="1"/>
        <pt x="700" y="-425" on="0"/>
        <pt x="635" y="-467" on="0"/>
        <pt x="584" y="-467" on="1"/>
        <pt x="547" y="-467" on="0"/>
        <pt x="488" y="-447" on="0"/>
        <pt x="465" y="-434" on="1"/>
        <pt x="479" y="-401" on="1"/>
        <pt x="496" y="-412" on="0"/>
        <pt x="554" y="-432" on="0"/>
        <pt x="580" y="-432" on="1"/>
        <pt x="611" y="-432" on="0"/>
        <pt x="649" y="-404" on="0"/>
        <pt x="649" y="-379" on="1"/>
        <pt x="649" y="-363" on="0"/>
        <pt x="633" y="-342" on="0"/>
        <pt x="609" y="-330" on="0"/>
        <pt x="582" y="-326" on="0"/>
        <pt x="571" y="-326" on="1"/>
        <pt x="562" y="-326" on="0"/>
        <pt x="546" y="-327" on="0"/>
        <pt x="537" y="-330" on="1"/>
        <pt x="571" y="-221" on="1"/>
        <pt x="553" y="-221" on="1"/>
        <pt x="455" y="-221" on="0"/>
        <pt x="281" y="-170" on="0"/>
        <pt x="149" y="-79" on="0"/>
        <pt x="72" y="48" on="0"/>
        <pt x="72" y="123" on="1"/>
        <pt x="72" y="189" on="0"/>
        <pt x="113" y="282" on="0"/>
        <pt x="162" y="342" on="0"/>
        <pt x="206" y="370" on="0"/>
        <pt x="209" y="371" on="1"/>
        <pt x="231" y="324" on="1"/>
        <pt x="229" y="323" on="0"/>
        <pt x="195" y="300" on="0"/>
        <pt x="156" y="252" on="0"/>
        <pt x="123" y="177" on="0"/>
        <pt x="123" y="123" on="1"/>
        <pt x="123" y="69" on="0"/>
        <pt x="164" y="-16" on="0"/>
        <pt x="233" y="-80" on="0"/>
        <pt x="322" y="-126" on="0"/>
        <pt x="418" y="-155" on="0"/>
        <pt x="514" y="-168" on="0"/>
        <pt x="555" y="-168" on="1"/>
        <pt x="661" y="-168" on="0"/>
        <pt x="833" y="-115" on="0"/>
        <pt x="954" y="-22" on="0"/>
        <pt x="1020" y="101" on="0"/>
        <pt x="1020" y="172" on="1"/>
        <pt x="1020" y="252" on="0"/>
        <pt x="952" y="368" on="0"/>
        <pt x="840" y="457" on="0"/>
        <pt x="697" y="528" on="0"/>
        <pt x="548" y="596" on="0"/>
        <pt x="405" y="671" on="0"/>
        <pt x="293" y="769" on="0"/>
        <pt x="225" y="898" on="0"/>
        <pt x="225" y="987" on="1"/>
        <pt x="225" y="1086" on="0"/>
        <pt x="292" y="1250" on="0"/>
        <pt x="409" y="1369" on="0"/>
        <pt x="567" y="1434" on="0"/>
        <pt x="659" y="1434" on="1"/>
        <pt x="752" y="1434" on="0"/>
        <pt x="892" y="1391" on="0"/>
        <pt x="987" y="1314" on="0"/>
        <pt x="1034" y="1206" on="0"/>
        <pt x="1034" y="1141" on="1"/>
        <pt x="1034" y="1088" on="0"/>
        <pt x="1009" y="987" on="0"/>
        <pt x="979" y="907" on="0"/>
        <pt x="953" y="857" on="0"/>
        <pt x="952" y="854" on="1"/>
        <pt x="907" y="879" on="1"/>
        <pt x="907" y="880" on="0"/>
        <pt x="930" y="926" on="0"/>
        <pt x="958" y="1000" on="0"/>
        <pt x="981" y="1093" on="0"/>
        <pt x="981" y="1141" on="1"/>
        <pt x="981" y="1195" on="0"/>
        <pt x="942" y="1284" on="0"/>
        <pt x="862" y="1346" on="0"/>
        <pt x="740" y="1380" on="0"/>
        <pt x="657" y="1380" on="1"/>
        <pt x="580" y="1380" on="0"/>
        <pt x="448" y="1329" on="0"/>
        <pt x="351" y="1237" on="0"/>
        <pt x="295" y="1112" on="0"/>
      </contour>
    </TTGlyph>
    <TTGlyph name="Scircumflex" xMin="72" yMin="-221" xMax="1114" yMax="1716">
      <component glyphName="S" x="0" y="0" flags="0x204"/>
      <component glyphName="circumflex" x="358" y="678" flags="0x4"/>
    </TTGlyph>
    <TTGlyph name="T" xMin="61" yMin="-166" xMax="1753" yMax="1470">
      <contour>
        <pt x="641" y="-166" on="1"/>
        <pt x="533" y="-166" on="0"/>
        <pt x="359" y="-111" on="0"/>
        <pt x="235" y="-14" on="0"/>
        <pt x="168" y="118" on="0"/>
        <pt x="168" y="195" on="1"/>
        <pt x="168" y="204" on="0"/>
        <pt x="168" y="224" on="0"/>
        <pt x="170" y="233" on="1"/>
        <pt x="209" y="229" on="1"/>
        <pt x="207" y="220" on="0"/>
        <pt x="207" y="205" on="0"/>
        <pt x="207" y="197" on="1"/>
        <pt x="207" y="128" on="0"/>
        <pt x="269" y="10" on="0"/>
        <pt x="380" y="-77" on="0"/>
        <pt x="535" y="-127" on="0"/>
        <pt x="629" y="-127" on="1"/>
        <pt x="715" y="-127" on="0"/>
        <pt x="844" y="-77" on="0"/>
        <pt x="936" y="9" on="0"/>
        <pt x="997" y="127" on="0"/>
        <pt x="1034" y="261" on="0"/>
        <pt x="1052" y="407" on="0"/>
        <pt x="1058" y="551" on="0"/>
        <pt x="1058" y="687" on="0"/>
        <pt x="1059" y="745" on="1"/>
        <pt x="1061" y="888" on="0"/>
        <pt x="1130" y="1108" on="0"/>
        <pt x="1180" y="1192" on="1"/>
        <pt x="1110" y="1215" on="0"/>
        <pt x="968" y="1288" on="0"/>
        <pt x="826" y="1358" on="0"/>
        <pt x="681" y="1409" on="0"/>
        <pt x="608" y="1409" on="1"/>
        <pt x="489" y="1409" on="0"/>
        <pt x="323" y="1345" on="0"/>
        <pt x="219" y="1244" on="0"/>
        <pt x="172" y="1120" on="0"/>
        <pt x="172" y="1059" on="1"/>
        <pt x="172" y="988" on="0"/>
        <pt x="219" y="868" on="0"/>
        <pt x="304" y="780" on="0"/>
        <pt x="420" y="731" on="0"/>
        <pt x="489" y="731" on="1"/>
        <pt x="555" y="731" on="0"/>
        <pt x="662" y="780" on="0"/>
        <pt x="737" y="840" on="0"/>
        <pt x="777" y="890" on="0"/>
        <pt x="778" y="891" on="1"/>
        <pt x="809" y="868" on="1"/>
        <pt x="809" y="867" on="0"/>
        <pt x="787" y="838" on="0"/>
        <pt x="744" y="796" on="0"/>
        <pt x="680" y="747" on="0"/>
        <pt x="595" y="706" on="0"/>
        <pt x="492" y="678" on="0"/>
        <pt x="430" y="678" on="1"/>
        <pt x="367" y="678" on="0"/>
        <pt x="236" y="721" on="0"/>
        <pt x="129" y="808" on="0"/>
        <pt x="61" y="940" on="0"/>
        <pt x="61" y="1028" on="1"/>
        <pt x="61" y="1114" on="0"/>
        <pt x="129" y="1267" on="0"/>
        <pt x="259" y="1381" on="0"/>
        <pt x="451" y="1448" on="0"/>
        <pt x="575" y="1448" on="1"/>
        <pt x="638" y="1448" on="0"/>
        <pt x="755" y="1423" on="0"/>
        <pt x="863" y="1383" on="0"/>
        <pt x="964" y="1333" on="0"/>
        <pt x="1061" y="1283" on="0"/>
        <pt x="1154" y="1239" on="0"/>
        <pt x="1200" y="1225" on="1"/>
        <pt x="1237" y="1280" on="0"/>
        <pt x="1311" y="1362" on="0"/>
        <pt x="1372" y="1416" on="0"/>
        <pt x="1410" y="1444" on="0"/>
        <pt x="1411" y="1446" on="1"/>
        <pt x="1434" y="1413" on="1"/>
        <pt x="1427" y="1409" on="0"/>
        <pt x="1390" y="1381" on="0"/>
        <pt x="1341" y="1330" on="0"/>
        <pt x="1286" y="1258" on="0"/>
        <pt x="1260" y="1210" on="1"/>
        <pt x="1275" y="1208" on="0"/>
        <pt x="1303" y="1206" on="0"/>
        <pt x="1319" y="1206" on="1"/>
        <pt x="1392" y="1206" on="0"/>
        <pt x="1507" y="1243" on="0"/>
        <pt x="1594" y="1300" on="0"/>
        <pt x="1656" y="1367" on="0"/>
        <pt x="1695" y="1426" on="0"/>
        <pt x="1714" y="1467" on="0"/>
        <pt x="1716" y="1470" on="1"/>
        <pt x="1753" y="1458" on="1"/>
        <pt x="1752" y="1457" on="0"/>
        <pt x="1732" y="1413" on="0"/>
        <pt x="1689" y="1348" on="0"/>
        <pt x="1621" y="1274" on="0"/>
        <pt x="1525" y="1210" on="0"/>
        <pt x="1398" y="1167" on="0"/>
        <pt x="1317" y="1167" on="1"/>
        <pt x="1298" y="1167" on="0"/>
        <pt x="1260" y="1171" on="0"/>
        <pt x="1241" y="1176" on="1"/>
        <pt x="1210" y="1111" on="0"/>
        <pt x="1169" y="944" on="0"/>
        <pt x="1169" y="842" on="1"/>
        <pt x="1169" y="758" on="0"/>
        <pt x="1184" y="577" on="0"/>
        <pt x="1184" y="487" on="1"/>
        <pt x="1184" y="348" on="0"/>
        <pt x="1123" y="109" on="0"/>
        <pt x="991" y="-66" on="0"/>
        <pt x="785" y="-166" on="0"/>
      </contour>
    </TTGlyph>
    <TTGlyph name="Tbar" xMin="61" yMin="-166" xMax="1753" yMax="1470">
      <contour>
        <pt x="575" y="1448" on="1"/>
        <pt x="638" y="1448" on="0"/>
        <pt x="755" y="1423" on="0"/>
        <pt x="863" y="1383" on="0"/>
        <pt x="964" y="1333" on="0"/>
        <pt x="1061" y="1283" on="0"/>
        <pt x="1154" y="1239" on="0"/>
        <pt x="1200" y="1225" on="1"/>
        <pt x="1237" y="1280" on="0"/>
        <pt x="1311" y="1362" on="0"/>
        <pt x="1372" y="1416" on="0"/>
        <pt x="1410" y="1444" on="0"/>
        <pt x="1411" y="1446" on="1"/>
        <pt x="1434" y="1413" on="1"/>
        <pt x="1427" y="1409" on="0"/>
        <pt x="1390" y="1381" on="0"/>
        <pt x="1341" y="1330" on="0"/>
        <pt x="1286" y="1258" on="0"/>
        <pt x="1260" y="1210" on="1"/>
        <pt x="1275" y="1208" on="0"/>
        <pt x="1303" y="1206" on="0"/>
        <pt x="1319" y="1206" on="1"/>
        <pt x="1392" y="1206" on="0"/>
        <pt x="1507" y="1243" on="0"/>
        <pt x="1594" y="1300" on="0"/>
        <pt x="1656" y="1367" on="0"/>
        <pt x="1695" y="1426" on="0"/>
        <pt x="1714" y="1467" on="0"/>
        <pt x="1716" y="1470" on="1"/>
        <pt x="1753" y="1458" on="1"/>
        <pt x="1752" y="1457" on="0"/>
        <pt x="1732" y="1413" on="0"/>
        <pt x="1689" y="1348" on="0"/>
        <pt x="1621" y="1274" on="0"/>
        <pt x="1525" y="1210" on="0"/>
        <pt x="1398" y="1167" on="0"/>
        <pt x="1317" y="1167" on="1"/>
        <pt x="1298" y="1167" on="0"/>
        <pt x="1260" y="1171" on="0"/>
        <pt x="1241" y="1176" on="1"/>
        <pt x="1210" y="1111" on="0"/>
        <pt x="1169" y="944" on="0"/>
        <pt x="1169" y="842" on="1"/>
        <pt x="1169" y="758" on="0"/>
        <pt x="1184" y="577" on="0"/>
        <pt x="1184" y="487" on="1"/>
        <pt x="1184" y="455" on="1"/>
        <pt x="1507" y="455" on="1"/>
        <pt x="1507" y="416" on="1"/>
        <pt x="1182" y="416" on="1"/>
        <pt x="1174" y="290" on="0"/>
        <pt x="1104" y="77" on="0"/>
        <pt x="972" y="-79" on="0"/>
        <pt x="775" y="-166" on="0"/>
        <pt x="641" y="-166" on="1"/>
        <pt x="533" y="-166" on="0"/>
        <pt x="359" y="-111" on="0"/>
        <pt x="235" y="-14" on="0"/>
        <pt x="168" y="118" on="0"/>
        <pt x="168" y="195" on="1"/>
        <pt x="168" y="204" on="0"/>
        <pt x="168" y="224" on="0"/>
        <pt x="170" y="233" on="1"/>
        <pt x="209" y="229" on="1"/>
        <pt x="207" y="220" on="0"/>
        <pt x="207" y="205" on="0"/>
        <pt x="207" y="197" on="1"/>
        <pt x="207" y="128" on="0"/>
        <pt x="269" y="10" on="0"/>
        <pt x="380" y="-77" on="0"/>
        <pt x="535" y="-127" on="0"/>
        <pt x="629" y="-127" on="1"/>
        <pt x="709" y="-127" on="0"/>
        <pt x="830" y="-84" on="0"/>
        <pt x="921" y="-9" on="0"/>
        <pt x="983" y="94" on="0"/>
        <pt x="1023" y="215" on="0"/>
        <pt x="1046" y="348" on="0"/>
        <pt x="1051" y="416" on="1"/>
        <pt x="653" y="416" on="1"/>
        <pt x="653" y="455" on="1"/>
        <pt x="1053" y="455" on="1"/>
        <pt x="1058" y="533" on="0"/>
        <pt x="1057" y="682" on="0"/>
        <pt x="1059" y="745" on="1"/>
        <pt x="1061" y="888" on="0"/>
        <pt x="1130" y="1108" on="0"/>
        <pt x="1180" y="1192" on="1"/>
        <pt x="1110" y="1215" on="0"/>
        <pt x="968" y="1288" on="0"/>
        <pt x="826" y="1358" on="0"/>
        <pt x="681" y="1409" on="0"/>
        <pt x="608" y="1409" on="1"/>
        <pt x="489" y="1409" on="0"/>
        <pt x="323" y="1345" on="0"/>
        <pt x="219" y="1244" on="0"/>
        <pt x="172" y="1120" on="0"/>
        <pt x="172" y="1059" on="1"/>
        <pt x="172" y="988" on="0"/>
        <pt x="219" y="868" on="0"/>
        <pt x="304" y="780" on="0"/>
        <pt x="420" y="731" on="0"/>
        <pt x="489" y="731" on="1"/>
        <pt x="555" y="731" on="0"/>
        <pt x="662" y="780" on="0"/>
        <pt x="737" y="840" on="0"/>
        <pt x="777" y="890" on="0"/>
        <pt x="778" y="891" on="1"/>
        <pt x="809" y="868" on="1"/>
        <pt x="809" y="867" on="0"/>
        <pt x="787" y="838" on="0"/>
        <pt x="744" y="796" on="0"/>
        <pt x="680" y="747" on="0"/>
        <pt x="595" y="706" on="0"/>
        <pt x="492" y="678" on="0"/>
        <pt x="430" y="678" on="1"/>
        <pt x="367" y="678" on="0"/>
        <pt x="236" y="721" on="0"/>
        <pt x="129" y="808" on="0"/>
        <pt x="61" y="940" on="0"/>
        <pt x="61" y="1028" on="1"/>
        <pt x="61" y="1114" on="0"/>
        <pt x="129" y="1267" on="0"/>
        <pt x="259" y="1381" on="0"/>
        <pt x="451" y="1448" on="0"/>
      </contour>
    </TTGlyph>
    <TTGlyph name="Tcaron" xMin="61" yMin="-166" xMax="1753" yMax="1720">
      <component glyphName="T" x="0" y="0" flags="0x204"/>
      <component glyphName="caron" x="727" y="682" flags="0x4"/>
    </TTGlyph>
    <TTGlyph name="Tcommaaccent" xMin="61" yMin="-464" xMax="1753" yMax="1470">
      <component glyphName="T" x="0" y="0" flags="0x204"/>
      <component glyphName="commaaccent" x="324" y="-177" flags="0x4"/>
    </TTGlyph>
    <TTGlyph name="Thorn" xMin="0" yMin="-199" xMax="1403" yMax="1579">
      <contour>
        <pt x="555" y="-199" on="1"/>
        <pt x="538" y="-173" on="0"/>
        <pt x="500" y="-93" on="0"/>
        <pt x="463" y="9" on="0"/>
        <pt x="428" y="129" on="0"/>
        <pt x="414" y="195" on="1"/>
        <pt x="366" y="202" on="0"/>
        <pt x="306" y="226" on="0"/>
        <pt x="273" y="254" on="0"/>
        <pt x="262" y="284" on="0"/>
        <pt x="262" y="297" on="1"/>
        <pt x="262" y="331" on="0"/>
        <pt x="325" y="393" on="0"/>
        <pt x="381" y="418" on="1"/>
        <pt x="378" y="444" on="0"/>
        <pt x="377" y="496" on="0"/>
        <pt x="377" y="522" on="1"/>
        <pt x="377" y="628" on="0"/>
        <pt x="396" y="823" on="0"/>
        <pt x="428" y="1000" on="0"/>
        <pt x="471" y="1156" on="0"/>
        <pt x="494" y="1223" on="1"/>
        <pt x="428" y="1205" on="0"/>
        <pt x="297" y="1157" on="0"/>
        <pt x="176" y="1102" on="0"/>
        <pt x="67" y="1042" on="0"/>
        <pt x="23" y="1014" on="1"/>
        <pt x="0" y="1047" on="1"/>
        <pt x="4" y="1050" on="0"/>
        <pt x="84" y="1100" on="0"/>
        <pt x="219" y="1168" on="0"/>
        <pt x="401" y="1242" on="0"/>
        <pt x="508" y="1268" on="1"/>
        <pt x="536" y="1341" on="0"/>
        <pt x="589" y="1456" on="0"/>
        <pt x="632" y="1536" on="0"/>
        <pt x="658" y="1578" on="0"/>
        <pt x="659" y="1579" on="1"/>
        <pt x="696" y="1563" on="1"/>
        <pt x="687" y="1543" on="0"/>
        <pt x="625" y="1404" on="0"/>
        <pt x="590" y="1284" on="1"/>
        <pt x="638" y="1292" on="0"/>
        <pt x="738" y="1303" on="0"/>
        <pt x="791" y="1303" on="1"/>
        <pt x="913" y="1303" on="0"/>
        <pt x="1135" y="1242" on="0"/>
        <pt x="1303" y="1119" on="0"/>
        <pt x="1403" y="932" on="0"/>
        <pt x="1403" y="805" on="1"/>
        <pt x="1403" y="701" on="0"/>
        <pt x="1334" y="529" on="0"/>
        <pt x="1213" y="392" on="0"/>
        <pt x="1049" y="289" on="0"/>
        <pt x="859" y="220" on="0"/>
        <pt x="653" y="186" on="0"/>
        <pt x="551" y="186" on="1"/>
        <pt x="512" y="186" on="1"/>
        <pt x="527" y="69" on="0"/>
        <pt x="571" y="-125" on="0"/>
        <pt x="594" y="-190" on="1"/>
      </contour>
      <contour>
        <pt x="573" y="424" on="1"/>
        <pt x="528" y="421" on="0"/>
        <pt x="492" y="412" on="1"/>
        <pt x="494" y="364" on="0"/>
        <pt x="501" y="272" on="0"/>
        <pt x="506" y="225" on="1"/>
        <pt x="559" y="225" on="1"/>
        <pt x="639" y="225" on="0"/>
        <pt x="808" y="255" on="0"/>
        <pt x="968" y="318" on="0"/>
        <pt x="1109" y="417" on="0"/>
        <pt x="1215" y="555" on="0"/>
        <pt x="1276" y="735" on="0"/>
        <pt x="1276" y="848" on="1"/>
        <pt x="1276" y="938" on="0"/>
        <pt x="1219" y="1070" on="0"/>
        <pt x="1127" y="1161" on="0"/>
        <pt x="1009" y="1218" on="0"/>
        <pt x="888" y="1249" on="0"/>
        <pt x="774" y="1260" on="0"/>
        <pt x="731" y="1260" on="1"/>
        <pt x="694" y="1260" on="0"/>
        <pt x="618" y="1251" on="0"/>
        <pt x="578" y="1243" on="1"/>
        <pt x="542" y="1113" on="0"/>
        <pt x="489" y="752" on="0"/>
        <pt x="489" y="516" on="1"/>
        <pt x="489" y="451" on="1"/>
        <pt x="509" y="456" on="0"/>
        <pt x="548" y="461" on="0"/>
        <pt x="569" y="463" on="1"/>
      </contour>
      <contour>
        <pt x="403" y="236" on="1"/>
        <pt x="397" y="270" on="0"/>
        <pt x="388" y="342" on="0"/>
        <pt x="385" y="377" on="1"/>
        <pt x="343" y="357" on="0"/>
        <pt x="303" y="314" on="0"/>
        <pt x="303" y="297" on="1"/>
        <pt x="303" y="280" on="0"/>
        <pt x="348" y="247" on="0"/>
      </contour>
    </TTGlyph>
    <TTGlyph name="U" xMin="113" yMin="-213" xMax="1290" yMax="1606">
      <contour>
        <pt x="709" y="-213" on="1"/>
        <pt x="595" y="-213" on="0"/>
        <pt x="381" y="-155" on="0"/>
        <pt x="214" y="-16" on="0"/>
        <pt x="113" y="214" on="0"/>
        <pt x="113" y="385" on="1"/>
        <pt x="113" y="509" on="0"/>
        <pt x="156" y="734" on="0"/>
        <pt x="224" y="929" on="0"/>
        <pt x="306" y="1093" on="0"/>
        <pt x="384" y="1222" on="0"/>
        <pt x="449" y="1314" on="0"/>
        <pt x="465" y="1339" on="1"/>
        <pt x="498" y="1319" on="1"/>
        <pt x="492" y="1308" on="0"/>
        <pt x="450" y="1235" on="0"/>
        <pt x="394" y="1116" on="0"/>
        <pt x="331" y="958" on="0"/>
        <pt x="278" y="765" on="0"/>
        <pt x="244" y="544" on="0"/>
        <pt x="244" y="422" on="1"/>
        <pt x="244" y="275" on="0"/>
        <pt x="308" y="53" on="0"/>
        <pt x="426" y="-96" on="0"/>
        <pt x="595" y="-172" on="0"/>
        <pt x="700" y="-172" on="1"/>
        <pt x="783" y="-172" on="0"/>
        <pt x="916" y="-111" on="0"/>
        <pt x="1021" y="-5" on="0"/>
        <pt x="1099" y="137" on="0"/>
        <pt x="1156" y="299" on="0"/>
        <pt x="1193" y="474" on="0"/>
        <pt x="1214" y="644" on="0"/>
        <pt x="1223" y="801" on="0"/>
        <pt x="1223" y="866" on="1"/>
        <pt x="1223" y="1011" on="0"/>
        <pt x="1194" y="1255" on="0"/>
        <pt x="1158" y="1441" on="0"/>
        <pt x="1124" y="1566" on="0"/>
        <pt x="1118" y="1593" on="1"/>
        <pt x="1155" y="1606" on="1"/>
        <pt x="1190" y="1483" on="0"/>
        <pt x="1241" y="1257" on="0"/>
        <pt x="1274" y="1025" on="0"/>
        <pt x="1290" y="776" on="0"/>
        <pt x="1290" y="629" on="1"/>
        <pt x="1290" y="519" on="0"/>
        <pt x="1263" y="308" on="0"/>
        <pt x="1205" y="121" on="0"/>
        <pt x="1114" y="-36" on="0"/>
        <pt x="984" y="-150" on="0"/>
        <pt x="815" y="-213" on="0"/>
      </contour>
    </TTGlyph>
    <TTGlyph name="Uacute" xMin="113" yMin="-213" xMax="1290" yMax="1720">
      <component glyphName="U" x="0" y="0" flags="0x204"/>
      <component glyphName="acute" x="481" y="678" flags="0x4"/>
    </TTGlyph>
    <TTGlyph name="Ubreve" xMin="113" yMin="-213" xMax="1290" yMax="1688">
      <component glyphName="U" x="0" y="0" flags="0x204"/>
      <component glyphName="breve" x="483" y="678" flags="0x4"/>
    </TTGlyph>
    <TTGlyph name="Ucircumflex" xMin="113" yMin="-213" xMax="1290" yMax="1716">
      <component glyphName="U" x="0" y="0" flags="0x204"/>
      <component glyphName="circumflex" x="481" y="678" flags="0x4"/>
    </TTGlyph>
    <TTGlyph name="Udieresis" xMin="113" yMin="-213" xMax="1290" yMax="1639">
      <component glyphName="U" x="0" y="0" flags="0x204"/>
      <component glyphName="dieresis" x="481" y="678" flags="0x4"/>
    </TTGlyph>
    <TTGlyph name="Ugrave" xMin="113" yMin="-213" xMax="1290" yMax="1720">
      <component glyphName="U" x="0" y="0" flags="0x204"/>
      <component glyphName="grave" x="481" y="678" flags="0x4"/>
    </TTGlyph>
    <TTGlyph name="Uhungarumlaut" xMin="113" yMin="-213" xMax="1290" yMax="1720">
      <component glyphName="U" x="0" y="0" flags="0x204"/>
      <component glyphName="hungarumlaut" x="532" y="678" flags="0x4"/>
    </TTGlyph>
    <TTGlyph name="Umacron" xMin="113" yMin="-213" xMax="1290" yMax="1610">
      <component glyphName="U" x="0" y="0" flags="0x204"/>
      <component glyphName="macron" x="481" y="678" flags="0x4"/>
    </TTGlyph>
    <TTGlyph name="Uogonek" xMin="113" yMin="-459" xMax="1290" yMax="1606">
      <contour>
        <pt x="827" y="-412" on="1"/>
        <pt x="803" y="-427" on="0"/>
        <pt x="732" y="-459" on="0"/>
        <pt x="692" y="-459" on="1"/>
        <pt x="673" y="-459" on="0"/>
        <pt x="634" y="-451" on="0"/>
        <pt x="603" y="-430" on="0"/>
        <pt x="584" y="-394" on="0"/>
        <pt x="584" y="-367" on="1"/>
        <pt x="584" y="-343" on="0"/>
        <pt x="604" y="-299" on="0"/>
        <pt x="634" y="-260" on="0"/>
        <pt x="671" y="-227" on="0"/>
        <pt x="688" y="-213" on="1"/>
        <pt x="614" y="-212" on="0"/>
        <pt x="472" y="-184" on="0"/>
        <pt x="344" y="-125" on="0"/>
        <pt x="236" y="-33" on="0"/>
        <pt x="157" y="99" on="0"/>
        <pt x="113" y="274" on="0"/>
        <pt x="113" y="385" on="1"/>
        <pt x="113" y="509" on="0"/>
        <pt x="156" y="734" on="0"/>
        <pt x="224" y="929" on="0"/>
        <pt x="306" y="1093" on="0"/>
        <pt x="384" y="1222" on="0"/>
        <pt x="449" y="1314" on="0"/>
        <pt x="465" y="1339" on="1"/>
        <pt x="498" y="1319" on="1"/>
        <pt x="492" y="1308" on="0"/>
        <pt x="450" y="1235" on="0"/>
        <pt x="394" y="1116" on="0"/>
        <pt x="331" y="958" on="0"/>
        <pt x="278" y="765" on="0"/>
        <pt x="244" y="544" on="0"/>
        <pt x="244" y="422" on="1"/>
        <pt x="244" y="275" on="0"/>
        <pt x="308" y="53" on="0"/>
        <pt x="426" y="-96" on="0"/>
        <pt x="595" y="-172" on="0"/>
        <pt x="700" y="-172" on="1"/>
        <pt x="783" y="-172" on="0"/>
        <pt x="916" y="-111" on="0"/>
        <pt x="1021" y="-5" on="0"/>
        <pt x="1099" y="137" on="0"/>
        <pt x="1156" y="299" on="0"/>
        <pt x="1193" y="474" on="0"/>
        <pt x="1214" y="644" on="0"/>
        <pt x="1223" y="801" on="0"/>
        <pt x="1223" y="866" on="1"/>
        <pt x="1223" y="1011" on="0"/>
        <pt x="1194" y="1255" on="0"/>
        <pt x="1158" y="1441" on="0"/>
        <pt x="1124" y="1566" on="0"/>
        <pt x="1118" y="1593" on="1"/>
        <pt x="1155" y="1606" on="1"/>
        <pt x="1190" y="1483" on="0"/>
        <pt x="1241" y="1257" on="0"/>
        <pt x="1274" y="1025" on="0"/>
        <pt x="1290" y="776" on="0"/>
        <pt x="1290" y="629" on="1"/>
        <pt x="1290" y="520" on="0"/>
        <pt x="1264" y="313" on="0"/>
        <pt x="1207" y="129" on="0"/>
        <pt x="1119" y="-27" on="0"/>
        <pt x="994" y="-141" on="0"/>
        <pt x="831" y="-208" on="0"/>
        <pt x="729" y="-211" on="1"/>
        <pt x="714" y="-226" on="0"/>
        <pt x="683" y="-261" on="0"/>
        <pt x="658" y="-297" on="0"/>
        <pt x="641" y="-334" on="0"/>
        <pt x="641" y="-352" on="1"/>
        <pt x="641" y="-370" on="0"/>
        <pt x="653" y="-394" on="0"/>
        <pt x="672" y="-409" on="0"/>
        <pt x="695" y="-416" on="0"/>
        <pt x="707" y="-416" on="1"/>
        <pt x="741" y="-416" on="0"/>
        <pt x="805" y="-395" on="0"/>
        <pt x="817" y="-387" on="1"/>
      </contour>
    </TTGlyph>
    <TTGlyph name="Uring" xMin="113" yMin="-213" xMax="1290" yMax="1682">
      <component glyphName="U" x="0" y="0" flags="0x204"/>
      <component glyphName="ring" x="481" y="678" flags="0x4"/>
    </TTGlyph>
    <TTGlyph name="Utilde" xMin="113" yMin="-213" xMax="1290" yMax="1667">
      <component glyphName="U" x="0" y="0" flags="0x204"/>
      <component glyphName="tilde" x="481" y="678" flags="0x4"/>
    </TTGlyph>
    <TTGlyph name="V" xMin="0" yMin="-152" xMax="1440" yMax="1792">
      <contour>
        <pt x="594" y="-152" on="1"/>
        <pt x="564" y="-152" on="0"/>
        <pt x="530" y="-108" on="0"/>
        <pt x="509" y="-18" on="0"/>
        <pt x="493" y="117" on="0"/>
        <pt x="469" y="300" on="0"/>
        <pt x="431" y="530" on="0"/>
        <pt x="397" y="670" on="1"/>
        <pt x="373" y="768" on="0"/>
        <pt x="297" y="949" on="0"/>
        <pt x="209" y="1107" on="0"/>
        <pt x="119" y="1237" on="0"/>
        <pt x="47" y="1330" on="0"/>
        <pt x="0" y="1381" on="0"/>
        <pt x="0" y="1382" on="1"/>
        <pt x="82" y="1464" on="1"/>
        <pt x="83" y="1462" on="0"/>
        <pt x="121" y="1419" on="0"/>
        <pt x="180" y="1335" on="0"/>
        <pt x="254" y="1207" on="0"/>
        <pt x="332" y="1034" on="0"/>
        <pt x="408" y="813" on="0"/>
        <pt x="438" y="678" on="1"/>
        <pt x="480" y="490" on="0"/>
        <pt x="522" y="196" on="0"/>
        <pt x="547" y="-6" on="0"/>
        <pt x="571" y="-111" on="0"/>
        <pt x="596" y="-111" on="1"/>
        <pt x="633" y="-71" on="0"/>
        <pt x="689" y="54" on="0"/>
        <pt x="734" y="210" on="0"/>
        <pt x="769" y="389" on="0"/>
        <pt x="797" y="577" on="0"/>
        <pt x="822" y="767" on="0"/>
        <pt x="847" y="943" on="0"/>
        <pt x="874" y="1098" on="0"/>
        <pt x="891" y="1157" on="1"/>
        <pt x="924" y="1274" on="0"/>
        <pt x="1021" y="1456" on="0"/>
        <pt x="1130" y="1594" on="0"/>
        <pt x="1242" y="1692" on="0"/>
        <pt x="1337" y="1755" on="0"/>
        <pt x="1408" y="1787" on="0"/>
        <pt x="1421" y="1792" on="1"/>
        <pt x="1440" y="1757" on="1"/>
        <pt x="1439" y="1756" on="0"/>
        <pt x="1385" y="1725" on="0"/>
        <pt x="1301" y="1653" on="0"/>
        <pt x="1196" y="1535" on="0"/>
        <pt x="1093" y="1359" on="0"/>
        <pt x="1001" y="1122" on="0"/>
        <pt x="971" y="967" on="1"/>
        <pt x="964" y="932" on="0"/>
        <pt x="937" y="798" on="0"/>
        <pt x="899" y="627" on="0"/>
        <pt x="853" y="433" on="0"/>
        <pt x="800" y="241" on="0"/>
        <pt x="742" y="64" on="0"/>
        <pt x="683" y="-71" on="0"/>
        <pt x="623" y="-152" on="0"/>
      </contour>
    </TTGlyph>
    <TTGlyph name="W" xMin="41" yMin="-190" xMax="1982" yMax="1898">
      <contour>
        <pt x="922" y="-188" on="1"/>
        <pt x="922" y="-190" on="1"/>
        <pt x="921" y="-190" on="0"/>
        <pt x="898" y="-151" on="0"/>
        <pt x="863" y="-77" on="0"/>
        <pt x="823" y="28" on="0"/>
        <pt x="789" y="161" on="0"/>
        <pt x="766" y="318" on="0"/>
        <pt x="766" y="406" on="1"/>
        <pt x="766" y="458" on="0"/>
        <pt x="773" y="564" on="0"/>
        <pt x="781" y="662" on="0"/>
        <pt x="788" y="749" on="0"/>
        <pt x="788" y="782" on="1"/>
        <pt x="788" y="816" on="0"/>
        <pt x="776" y="854" on="0"/>
        <pt x="756" y="854" on="1"/>
        <pt x="735" y="854" on="0"/>
        <pt x="663" y="760" on="0"/>
        <pt x="574" y="603" on="0"/>
        <pt x="473" y="397" on="0"/>
        <pt x="374" y="171" on="0"/>
        <pt x="281" y="-60" on="0"/>
        <pt x="244" y="-162" on="1"/>
        <pt x="211" y="-141" on="1"/>
        <pt x="212" y="-138" on="0"/>
        <pt x="220" y="-114" on="0"/>
        <pt x="232" y="-55" on="0"/>
        <pt x="244" y="47" on="0"/>
        <pt x="255" y="212" on="0"/>
        <pt x="262" y="449" on="0"/>
        <pt x="262" y="612" on="1"/>
        <pt x="262" y="771" on="0"/>
        <pt x="230" y="1019" on="0"/>
        <pt x="181" y="1205" on="0"/>
        <pt x="124" y="1335" on="0"/>
        <pt x="75" y="1417" on="0"/>
        <pt x="41" y="1453" on="0"/>
        <pt x="41" y="1454" on="1"/>
        <pt x="61" y="1479" on="1"/>
        <pt x="67" y="1476" on="0"/>
        <pt x="116" y="1445" on="0"/>
        <pt x="182" y="1382" on="0"/>
        <pt x="256" y="1282" on="0"/>
        <pt x="319" y="1139" on="0"/>
        <pt x="360" y="949" on="0"/>
        <pt x="360" y="827" on="1"/>
        <pt x="360" y="730" on="0"/>
        <pt x="346" y="512" on="0"/>
        <pt x="323" y="302" on="0"/>
        <pt x="297" y="120" on="0"/>
        <pt x="285" y="59" on="1"/>
        <pt x="317" y="140" on="0"/>
        <pt x="400" y="338" on="0"/>
        <pt x="496" y="542" on="0"/>
        <pt x="601" y="733" on="0"/>
        <pt x="707" y="883" on="0"/>
        <pt x="811" y="973" on="0"/>
        <pt x="858" y="973" on="1"/>
        <pt x="878" y="973" on="0"/>
        <pt x="909" y="910" on="0"/>
        <pt x="909" y="850" on="1"/>
        <pt x="909" y="809" on="0"/>
        <pt x="899" y="696" on="0"/>
        <pt x="887" y="556" on="0"/>
        <pt x="877" y="391" on="0"/>
        <pt x="877" y="297" on="1"/>
        <pt x="877" y="210" on="0"/>
        <pt x="897" y="22" on="0"/>
        <pt x="928" y="-78" on="1"/>
        <pt x="940" y="-17" on="0"/>
        <pt x="980" y="165" on="0"/>
        <pt x="1036" y="387" on="0"/>
        <pt x="1107" y="638" on="0"/>
        <pt x="1194" y="899" on="0"/>
        <pt x="1297" y="1160" on="0"/>
        <pt x="1416" y="1402" on="0"/>
        <pt x="1552" y="1614" on="0"/>
        <pt x="1704" y="1779" on="0"/>
        <pt x="1873" y="1884" on="0"/>
        <pt x="1966" y="1898" on="1"/>
        <pt x="1982" y="1815" on="1"/>
        <pt x="1874" y="1798" on="0"/>
        <pt x="1683" y="1666" on="0"/>
        <pt x="1515" y="1465" on="0"/>
        <pt x="1370" y="1208" on="0"/>
        <pt x="1247" y="926" on="0"/>
        <pt x="1146" y="632" on="0"/>
        <pt x="1066" y="355" on="0"/>
        <pt x="1007" y="110" on="0"/>
        <pt x="968" y="-74" on="0"/>
        <pt x="948" y="-183" on="0"/>
        <pt x="948" y="-186" on="1"/>
      </contour>
    </TTGlyph>
    <TTGlyph name="Wacute" xMin="41" yMin="-190" xMax="1982" yMax="1898">
      <component glyphName="W" x="0" y="0" flags="0x204"/>
      <component glyphName="acute" x="512" y="356" flags="0x4"/>
    </TTGlyph>
    <TTGlyph name="Wcircumflex" xMin="41" yMin="-190" xMax="1982" yMax="1898">
      <component glyphName="W" x="0" y="0" flags="0x204"/>
      <component glyphName="circumflex" x="512" y="356" flags="0x4"/>
    </TTGlyph>
    <TTGlyph name="Wdieresis" xMin="41" yMin="-190" xMax="1982" yMax="1898">
      <component glyphName="W" x="0" y="0" flags="0x204"/>
      <component glyphName="dieresis" x="512" y="356" flags="0x4"/>
    </TTGlyph>
    <TTGlyph name="Wgrave" xMin="41" yMin="-190" xMax="1982" yMax="1898">
      <component glyphName="W" x="0" y="0" flags="0x204"/>
      <component glyphName="grave" x="512" y="356" flags="0x4"/>
    </TTGlyph>
    <TTGlyph name="X" xMin="-61" yMin="-471" xMax="1583" yMax="1847">
      <contour>
        <pt x="1106" y="-471" on="1"/>
        <pt x="1002" y="-405" on="0"/>
        <pt x="833" y="-215" on="0"/>
        <pt x="698" y="46" on="0"/>
        <pt x="594" y="385" on="0"/>
        <pt x="555" y="600" on="1"/>
        <pt x="455" y="431" on="0"/>
        <pt x="288" y="181" on="0"/>
        <pt x="153" y="-2" on="0"/>
        <pt x="49" y="-127" on="0"/>
        <pt x="12" y="-172" on="1"/>
        <pt x="-61" y="-92" on="1"/>
        <pt x="-30" y="-59" on="0"/>
        <pt x="43" y="15" on="0"/>
        <pt x="128" y="107" on="0"/>
        <pt x="227" y="223" on="0"/>
        <pt x="340" y="372" on="0"/>
        <pt x="468" y="561" on="0"/>
        <pt x="541" y="680" on="1"/>
        <pt x="541" y="688" on="1"/>
        <pt x="515" y="845" on="0"/>
        <pt x="435" y="1074" on="0"/>
        <pt x="341" y="1234" on="0"/>
        <pt x="240" y="1336" on="0"/>
        <pt x="148" y="1397" on="0"/>
        <pt x="70" y="1427" on="0"/>
        <pt x="47" y="1436" on="1"/>
        <pt x="55" y="1470" on="1"/>
        <pt x="62" y="1468" on="0"/>
        <pt x="130" y="1454" on="0"/>
        <pt x="229" y="1409" on="0"/>
        <pt x="350" y="1326" on="0"/>
        <pt x="472" y="1186" on="0"/>
        <pt x="584" y="981" on="0"/>
        <pt x="625" y="836" on="1"/>
        <pt x="625" y="832" on="0"/>
        <pt x="627" y="827" on="0"/>
        <pt x="627" y="825" on="1"/>
        <pt x="655" y="873" on="0"/>
        <pt x="712" y="977" on="0"/>
        <pt x="743" y="1034" on="1"/>
        <pt x="844" y="1222" on="0"/>
        <pt x="1045" y="1489" on="0"/>
        <pt x="1227" y="1670" on="0"/>
        <pt x="1384" y="1775" on="0"/>
        <pt x="1502" y="1830" on="0"/>
        <pt x="1572" y="1846" on="0"/>
        <pt x="1577" y="1847" on="1"/>
        <pt x="1583" y="1808" on="1"/>
        <pt x="1582" y="1808" on="0"/>
        <pt x="1518" y="1794" on="0"/>
        <pt x="1407" y="1741" on="0"/>
        <pt x="1255" y="1637" on="0"/>
        <pt x="1077" y="1457" on="0"/>
        <pt x="879" y="1188" on="0"/>
        <pt x="778" y="997" on="1"/>
        <pt x="743" y="931" on="0"/>
        <pt x="677" y="811" on="0"/>
        <pt x="645" y="756" on="1"/>
        <pt x="678" y="629" on="0"/>
        <pt x="729" y="390" on="0"/>
        <pt x="781" y="168" on="0"/>
        <pt x="843" y="-36" on="0"/>
        <pt x="928" y="-218" on="0"/>
        <pt x="1044" y="-375" on="0"/>
        <pt x="1126" y="-440" on="1"/>
      </contour>
    </TTGlyph>
    <TTGlyph name="Y" xMin="82" yMin="-745" xMax="1317" yMax="1501">
      <contour>
        <pt x="539" y="-29" on="1"/>
        <pt x="601" y="-29" on="0"/>
        <pt x="719" y="20" on="0"/>
        <pt x="829" y="106" on="0"/>
        <pt x="930" y="224" on="0"/>
        <pt x="975" y="293" on="1"/>
        <pt x="993" y="473" on="0"/>
        <pt x="1044" y="745" on="0"/>
        <pt x="1101" y="942" on="0"/>
        <pt x="1160" y="1072" on="0"/>
        <pt x="1215" y="1149" on="0"/>
        <pt x="1262" y="1180" on="0"/>
        <pt x="1278" y="1180" on="1"/>
        <pt x="1282" y="1180" on="0"/>
        <pt x="1296" y="1177" on="0"/>
        <pt x="1308" y="1164" on="0"/>
        <pt x="1317" y="1138" on="0"/>
        <pt x="1317" y="1116" on="1"/>
        <pt x="1317" y="1078" on="0"/>
        <pt x="1289" y="931" on="0"/>
        <pt x="1233" y="742" on="0"/>
        <pt x="1150" y="526" on="0"/>
        <pt x="1096" y="420" on="1"/>
        <pt x="1093" y="360" on="0"/>
        <pt x="1088" y="197" on="0"/>
        <pt x="1075" y="11" on="0"/>
        <pt x="1050" y="-187" on="0"/>
        <pt x="1004" y="-376" on="0"/>
        <pt x="930" y="-544" on="0"/>
        <pt x="821" y="-671" on="0"/>
        <pt x="671" y="-745" on="0"/>
        <pt x="571" y="-745" on="1"/>
        <pt x="472" y="-745" on="0"/>
        <pt x="332" y="-690" on="0"/>
        <pt x="244" y="-598" on="0"/>
        <pt x="203" y="-477" on="0"/>
        <pt x="203" y="-412" on="1"/>
        <pt x="203" y="-359" on="0"/>
        <pt x="217" y="-286" on="0"/>
        <pt x="219" y="-283" on="1"/>
        <pt x="258" y="-295" on="1"/>
        <pt x="254" y="-311" on="0"/>
        <pt x="251" y="-329" on="1"/>
        <pt x="248" y="-345" on="0"/>
        <pt x="244" y="-388" on="0"/>
        <pt x="244" y="-414" on="1"/>
        <pt x="244" y="-473" on="0"/>
        <pt x="280" y="-579" on="0"/>
        <pt x="359" y="-660" on="0"/>
        <pt x="483" y="-707" on="0"/>
        <pt x="571" y="-707" on="1"/>
        <pt x="666" y="-707" on="0"/>
        <pt x="793" y="-641" on="0"/>
        <pt x="874" y="-523" on="0"/>
        <pt x="918" y="-360" on="0"/>
        <pt x="941" y="-166" on="0"/>
        <pt x="954" y="52" on="0"/>
        <pt x="963" y="166" on="1"/>
        <pt x="963" y="175" on="0"/>
        <pt x="965" y="196" on="0"/>
        <pt x="965" y="205" on="1"/>
        <pt x="917" y="140" on="0"/>
        <pt x="810" y="31" on="0"/>
        <pt x="690" y="-49" on="0"/>
        <pt x="557" y="-94" on="0"/>
        <pt x="485" y="-94" on="1"/>
        <pt x="406" y="-94" on="0"/>
        <pt x="260" y="-34" on="0"/>
        <pt x="149" y="93" on="0"/>
        <pt x="82" y="290" on="0"/>
        <pt x="82" y="426" on="1"/>
        <pt x="82" y="577" on="0"/>
        <pt x="152" y="843" on="0"/>
        <pt x="261" y="1069" on="0"/>
        <pt x="393" y="1252" on="0"/>
        <pt x="518" y="1390" on="0"/>
        <pt x="621" y="1481" on="0"/>
        <pt x="645" y="1501" on="1"/>
        <pt x="672" y="1473" on="1"/>
        <pt x="671" y="1472" on="0"/>
        <pt x="601" y="1405" on="0"/>
        <pt x="497" y="1282" on="0"/>
        <pt x="375" y="1110" on="0"/>
        <pt x="272" y="896" on="0"/>
        <pt x="203" y="646" on="0"/>
        <pt x="203" y="508" on="1"/>
        <pt x="203" y="248" on="0"/>
        <pt x="371" y="-29" on="0"/>
      </contour>
      <contour>
        <pt x="1278" y="1118" on="1"/>
        <pt x="1278" y="1127" on="0"/>
        <pt x="1277" y="1141" on="0"/>
        <pt x="1272" y="1141" on="1"/>
        <pt x="1253" y="1141" on="0"/>
        <pt x="1206" y="1061" on="0"/>
        <pt x="1160" y="906" on="0"/>
        <pt x="1119" y="678" on="0"/>
        <pt x="1106" y="530" on="1"/>
        <pt x="1146" y="618" on="0"/>
        <pt x="1210" y="792" on="0"/>
        <pt x="1255" y="948" on="0"/>
        <pt x="1278" y="1076" on="0"/>
      </contour>
    </TTGlyph>
    <TTGlyph name="Yacute" xMin="82" yMin="-745" xMax="1317" yMax="1587">
      <component glyphName="Y" x="0" y="0" flags="0x204"/>
      <component glyphName="acute" x="743" y="545" flags="0x4"/>
    </TTGlyph>
    <TTGlyph name="Ycircumflex" xMin="82" yMin="-745" xMax="1317" yMax="1583">
      <component glyphName="Y" x="0" y="0" flags="0x204"/>
      <component glyphName="circumflex" x="743" y="545" flags="0x4"/>
    </TTGlyph>
    <TTGlyph name="Ydieresis" xMin="82" yMin="-745" xMax="1317" yMax="1506">
      <component glyphName="Y" x="0" y="0" flags="0x204"/>
      <component glyphName="dieresis" x="743" y="545" flags="0x4"/>
    </TTGlyph>
    <TTGlyph name="Ygrave" xMin="82" yMin="-745" xMax="1317" yMax="1587">
      <component glyphName="Y" x="0" y="0" flags="0x204"/>
      <component glyphName="grave" x="743" y="545" flags="0x4"/>
    </TTGlyph>
</ttFont>
